{"glyphs":{"0":{"ha":932,"x_min":106,"x_max":826,"o":"m 465 -7 q 305 38 372 -7 q 193 159 238 82 q 127 334 149 236 q 106 539 106 432 q 127 744 106 646 q 193 918 149 842 q 305 1039 238 994 q 465 1083 372 1083 q 626 1039 558 1083 q 739 918 694 994 q 805 744 783 842 q 826 539 826 646 q 805 334 826 432 q 739 159 783 236 q 626 38 694 82 q 465 -7 558 -7 m 465 76 q 615 138 554 76 q 706 306 675 200 q 736 539 736 411 q 706 772 736 667 q 615 938 675 876 q 465 1000 554 1000 q 317 938 376 1000 q 226 772 257 876 q 196 539 196 667 q 226 306 196 411 q 317 138 257 200 q 465 76 376 76 z "},"1":{"ha":575,"x_min":85,"x_max":446,"o":"m 401 1083 q 433 1070 421 1083 q 446 1039 446 1057 l 428 42 q 415 10 428 24 q 383 -3 403 -3 q 352 10 365 -3 q 339 42 339 24 l 354 883 q 260 749 308 814 q 163 624 213 683 q 128 607 150 607 q 97 619 110 607 q 85 650 85 632 q 93 676 85 667 q 231 858 165 763 q 360 1060 297 954 q 401 1083 372 1083 z "},"2":{"ha":817,"x_min":86,"x_max":722,"o":"m 722 42 q 710 12 722 24 q 681 0 699 0 l 128 0 q 98 12 110 0 q 86 42 86 24 q 94 69 86 57 l 279 324 q 416 510 358 433 q 510 644 474 588 q 565 748 547 701 q 583 843 583 794 q 555 929 583 894 q 480 982 526 964 q 379 1000 433 1000 q 315 995 351 1000 q 246 981 279 990 q 190 958 213 972 q 165 950 178 950 q 135 963 147 950 q 122 993 122 975 q 140 1028 122 1015 q 215 1060 171 1047 q 303 1078 258 1072 q 379 1083 347 1083 q 520 1056 453 1083 q 631 974 588 1028 q 674 843 674 921 q 653 727 674 783 q 592 608 633 671 q 491 465 551 546 q 351 274 431 383 l 213 83 l 681 83 q 710 72 699 83 q 722 42 722 60 z "},"3":{"ha":749,"x_min":85,"x_max":653,"o":"m 651 303 q 623 158 653 217 q 542 63 593 99 q 431 10 492 26 q 310 -7 371 -7 q 111 31 197 -7 q 85 69 85 43 q 97 99 85 88 q 128 111 110 111 q 146 107 138 111 q 310 76 211 76 q 431 98 374 76 q 526 169 489 119 q 563 303 564 218 q 474 469 561 422 q 214 517 388 517 q 186 528 199 517 q 174 558 174 540 q 184 585 174 574 q 208 599 194 597 q 374 634 303 613 q 486 701 446 656 q 525 829 526 746 q 495 925 525 888 q 419 981 465 963 q 318 1000 372 1000 q 257 994 288 1000 q 199 974 226 988 q 181 969 190 969 q 150 982 163 969 q 138 1011 138 994 q 163 1050 138 1039 q 239 1075 199 1067 q 318 1083 279 1083 q 459 1055 392 1083 q 569 970 526 1026 q 614 829 613 914 q 567 662 615 722 q 444 571 519 601 q 595 476 540 540 q 651 303 650 411 z "},"4":{"ha":921,"x_min":92,"x_max":801,"o":"m 603 -3 q 572 10 585 -3 q 558 42 558 24 l 558 354 l 133 354 q 103 366 115 354 q 92 396 92 378 q 97 432 92 401 q 110 505 101 463 q 126 589 118 547 q 138 658 133 631 q 143 688 143 686 q 174 868 158 778 q 206 1047 190 958 q 221 1074 208 1063 q 250 1085 233 1085 q 284 1069 271 1085 q 294 1033 297 1053 l 190 438 l 558 438 l 558 667 q 572 699 558 686 q 603 713 585 713 q 635 699 622 713 q 649 667 649 686 l 649 438 l 760 438 q 790 426 778 438 q 801 396 801 414 q 790 366 801 378 q 760 354 778 354 l 649 354 l 649 42 q 635 10 649 24 q 603 -3 622 -3 z "},"5":{"ha":771,"x_min":94,"x_max":674,"o":"m 674 335 q 657 211 674 272 q 601 101 640 150 q 499 22 563 51 q 339 -7 435 -7 q 119 35 211 -7 q 102 50 110 40 q 94 74 94 60 q 107 103 94 90 q 138 115 119 115 q 156 111 147 115 q 237 86 189 96 q 339 76 285 76 q 487 112 433 76 q 562 206 540 147 q 583 335 583 265 q 563 455 583 400 q 495 543 543 510 q 363 576 447 576 q 251 567 306 576 q 153 546 196 557 q 117 553 133 540 q 100 586 100 565 l 100 1035 q 112 1065 100 1053 q 142 1076 124 1076 l 586 1076 q 616 1065 604 1076 q 628 1035 628 1053 q 616 1005 628 1017 q 586 993 604 993 l 190 993 l 190 640 q 274 654 229 649 q 363 660 318 660 q 511 631 451 660 q 606 556 571 603 q 658 451 642 508 q 674 335 674 393 z "},"6":{"ha":819,"x_min":101,"x_max":721,"o":"m 403 -7 q 258 37 318 -7 q 163 158 199 81 q 115 336 128 236 q 107 549 101 436 q 136 753 113 657 q 203 924 160 850 q 308 1040 246 999 q 454 1082 371 1082 q 538 1072 490 1082 q 617 1043 586 1063 q 636 1008 636 1031 q 624 978 636 990 q 593 965 611 965 q 569 974 581 965 q 517 992 551 985 q 454 999 482 999 q 327 945 381 999 q 241 797 274 892 q 199 576 208 701 q 326 658 260 632 q 450 685 392 685 q 571 654 519 685 q 656 572 622 624 q 705 458 689 521 q 718 332 721 396 q 697 209 717 269 q 638 100 676 149 q 540 22 599 51 q 403 -7 482 -7 m 450 601 q 324 564 393 601 q 194 443 254 526 q 223 252 199 335 q 292 123 247 169 q 403 76 338 76 q 528 113 479 76 q 603 209 578 150 q 629 335 628 268 q 611 463 632 401 q 550 563 590 524 q 450 601 510 601 z "},"7":{"ha":786,"x_min":88,"x_max":699,"o":"m 233 506 q 203 517 215 506 q 192 547 192 529 q 203 577 192 565 q 233 589 215 589 l 419 589 l 589 993 l 129 993 q 99 1005 111 993 q 88 1035 88 1017 q 99 1065 88 1053 q 129 1076 111 1076 l 657 1076 q 687 1065 675 1076 q 699 1035 699 1053 q 697 1020 699 1025 q 692 1007 694 1015 l 517 589 l 604 589 q 634 577 622 589 q 646 547 646 565 q 634 517 646 529 q 604 506 622 506 l 482 506 l 278 18 q 262 -1 272 7 q 236 -10 251 -10 q 205 3 218 -10 q 192 35 192 17 q 194 51 192 44 l 385 506 l 233 506 z "},"8":{"ha":828,"x_min":99,"x_max":729,"o":"m 411 -14 q 246 27 317 -14 q 137 134 175 68 q 99 275 99 200 q 143 432 99 351 q 286 569 188 513 q 161 683 201 615 q 121 821 121 751 q 156 949 121 889 q 257 1046 190 1008 q 419 1083 324 1083 q 580 1046 515 1083 q 677 949 644 1008 q 710 822 710 890 q 671 674 710 750 q 551 546 632 599 q 687 423 644 494 q 729 279 729 351 q 689 137 729 204 q 577 28 649 69 q 411 -14 506 -14 m 363 626 l 456 589 q 578 692 538 625 q 619 822 619 758 q 569 947 619 894 q 419 1000 519 1000 q 305 975 351 1000 q 235 909 258 950 q 211 821 211 868 q 249 711 211 765 q 363 626 286 657 m 189 275 q 216 174 189 221 q 293 98 243 126 q 411 69 343 69 q 530 99 479 69 q 610 177 581 129 q 639 279 639 225 q 597 399 639 340 q 460 496 554 458 l 388 525 q 237 413 285 483 q 189 275 189 342 z "},"9":{"ha":792,"x_min":96,"x_max":681,"o":"m 594 -7 q 562 7 575 -7 q 550 39 549 21 l 574 539 q 469 488 525 506 q 357 471 413 471 q 215 516 274 471 q 126 631 157 561 q 96 776 96 701 q 128 924 96 854 q 228 1039 161 994 q 400 1083 296 1083 q 535 1056 471 1083 q 640 974 600 1028 q 676 839 681 919 l 639 36 q 625 6 638 18 q 594 -7 613 -7 m 186 776 q 206 669 186 719 q 265 586 226 618 q 357 554 304 554 q 477 582 418 554 q 579 663 536 610 l 588 842 q 564 928 590 893 q 494 981 538 963 q 400 1000 451 1000 q 276 967 324 1000 q 208 883 229 935 q 186 776 186 832 z "},"A":{"ha":1035,"x_min":118,"x_max":918,"o":"m 167 -7 q 130 13 142 -7 q 124 51 118 33 l 488 1053 q 504 1074 492 1065 q 532 1083 517 1083 q 576 1053 567 1083 l 911 51 q 905 12 918 31 q 868 -7 892 -7 q 825 24 835 -7 l 719 338 l 324 338 l 210 24 q 194 2 206 11 q 167 -7 182 -7 m 354 421 l 692 421 l 531 906 l 354 421 z "},"Á":{"ha":1035,"x_min":118,"x_max":918,"o":"m 167 -7 q 130 13 142 -7 q 124 51 118 33 l 488 1053 q 504 1074 492 1065 q 532 1083 517 1083 q 576 1053 567 1083 l 911 51 q 905 12 918 31 q 868 -7 892 -7 q 825 24 835 -7 l 719 338 l 324 338 l 210 24 q 194 2 206 11 q 167 -7 182 -7 m 354 421 l 692 421 l 531 906 l 354 421 m 560 1201 q 531 1213 543 1201 q 519 1242 519 1225 q 531 1268 519 1257 l 694 1435 q 724 1449 706 1449 q 752 1437 740 1449 q 764 1408 764 1425 q 753 1382 764 1393 l 589 1215 q 560 1201 578 1201 z "},"Ă":{"ha":1035,"x_min":118,"x_max":918,"o":"m 167 -7 q 130 13 142 -7 q 124 51 118 33 l 488 1053 q 504 1074 492 1065 q 532 1083 517 1083 q 576 1053 567 1083 l 911 51 q 905 12 918 31 q 868 -7 892 -7 q 825 24 835 -7 l 719 338 l 324 338 l 210 24 q 194 2 206 11 q 167 -7 182 -7 m 354 421 l 692 421 l 531 906 l 354 421 m 546 1197 q 435 1226 485 1197 q 355 1305 385 1256 q 325 1414 325 1354 q 337 1444 325 1432 q 367 1456 349 1456 q 397 1444 385 1456 q 408 1414 408 1432 q 449 1315 408 1356 q 546 1274 490 1274 q 640 1315 600 1274 q 681 1414 681 1356 q 692 1444 681 1432 q 722 1456 704 1456 q 752 1444 740 1456 q 764 1414 764 1432 q 734 1305 764 1354 q 655 1226 704 1256 q 546 1197 606 1197 z "},"Â":{"ha":1035,"x_min":118,"x_max":918,"o":"m 167 -7 q 130 13 142 -7 q 124 51 118 33 l 488 1053 q 504 1074 492 1065 q 532 1083 517 1083 q 576 1053 567 1083 l 911 51 q 905 12 918 31 q 868 -7 892 -7 q 825 24 835 -7 l 719 338 l 324 338 l 210 24 q 194 2 206 11 q 167 -7 182 -7 m 354 421 l 692 421 l 531 906 l 354 421 m 381 1196 q 352 1208 364 1196 q 340 1236 340 1219 q 351 1263 340 1251 l 515 1429 q 544 1443 526 1443 q 574 1429 563 1443 l 738 1263 q 749 1236 749 1251 q 737 1208 749 1219 q 708 1196 725 1196 q 679 1210 690 1196 l 544 1347 l 410 1210 q 381 1196 399 1196 z "},"Ä":{"ha":1035,"x_min":118,"x_max":918,"o":"m 167 -7 q 130 13 142 -7 q 124 51 118 33 l 488 1053 q 504 1074 492 1065 q 532 1083 517 1083 q 576 1053 567 1083 l 911 51 q 905 12 918 31 q 868 -7 892 -7 q 825 24 835 -7 l 719 338 l 324 338 l 210 24 q 194 2 206 11 q 167 -7 182 -7 m 354 421 l 692 421 l 531 906 l 354 421 m 657 1201 q 615 1220 629 1201 q 600 1268 600 1239 q 615 1315 600 1296 q 657 1333 629 1333 q 699 1315 685 1333 q 713 1268 713 1296 q 699 1220 713 1239 q 657 1201 685 1201 m 449 1201 q 406 1220 421 1201 q 392 1268 392 1239 q 406 1315 392 1296 q 449 1333 421 1333 q 490 1315 476 1333 q 504 1268 504 1296 q 490 1220 504 1239 q 449 1201 476 1201 z "},"À":{"ha":1035,"x_min":118,"x_max":918,"o":"m 167 -7 q 130 13 142 -7 q 124 51 118 33 l 488 1053 q 504 1074 492 1065 q 532 1083 517 1083 q 576 1053 567 1083 l 911 51 q 905 12 918 31 q 868 -7 892 -7 q 825 24 835 -7 l 719 338 l 324 338 l 210 24 q 194 2 206 11 q 167 -7 182 -7 m 354 421 l 692 421 l 531 906 l 354 421 m 557 1201 q 528 1215 539 1201 l 364 1382 q 353 1408 353 1393 q 365 1437 353 1425 q 393 1449 376 1449 q 422 1435 411 1449 l 586 1268 q 597 1242 597 1257 q 585 1213 597 1225 q 557 1201 574 1201 z "},"Ā":{"ha":1035,"x_min":118,"x_max":918,"o":"m 167 -7 q 130 13 142 -7 q 124 51 118 33 l 488 1053 q 504 1074 492 1065 q 532 1083 517 1083 q 576 1053 567 1083 l 911 51 q 905 12 918 31 q 868 -7 892 -7 q 825 24 835 -7 l 719 338 l 324 338 l 210 24 q 194 2 206 11 q 167 -7 182 -7 m 354 421 l 692 421 l 531 906 l 354 421 m 364 1193 q 338 1204 349 1193 q 326 1231 326 1215 q 338 1258 326 1246 q 364 1269 349 1269 l 725 1269 q 752 1258 740 1269 q 764 1231 764 1246 q 752 1204 764 1215 q 725 1193 740 1193 l 364 1193 z "},"Å":{"ha":1035,"x_min":118,"x_max":918,"o":"m 167 -7 q 130 13 142 -7 q 124 51 118 33 l 488 1053 q 504 1074 492 1065 q 532 1083 517 1083 q 576 1053 567 1083 l 911 51 q 905 12 918 31 q 868 -7 892 -7 q 825 24 835 -7 l 719 338 l 324 338 l 210 24 q 194 2 206 11 q 167 -7 182 -7 m 354 421 l 692 421 l 531 906 l 354 421 m 544 1086 q 454 1110 494 1086 q 390 1173 414 1133 q 367 1260 367 1213 q 390 1348 367 1308 q 454 1411 414 1388 q 544 1435 494 1435 q 635 1411 594 1435 q 699 1348 675 1388 q 722 1260 722 1308 q 699 1173 722 1213 q 635 1110 675 1133 q 544 1086 594 1086 m 544 1163 q 611 1191 583 1163 q 639 1260 639 1219 q 611 1329 639 1300 q 544 1358 583 1358 q 478 1329 506 1358 q 450 1260 450 1300 q 478 1191 450 1219 q 544 1163 506 1163 z "},"Ã":{"ha":1035,"x_min":118,"x_max":918,"o":"m 167 -7 q 130 13 142 -7 q 124 51 118 33 l 488 1053 q 504 1074 492 1065 q 532 1083 517 1083 q 576 1053 567 1083 l 911 51 q 905 12 918 31 q 868 -7 892 -7 q 825 24 835 -7 l 719 338 l 324 338 l 210 24 q 194 2 206 11 q 167 -7 182 -7 m 354 421 l 692 421 l 531 906 l 354 421 m 639 1190 q 574 1206 604 1190 q 519 1238 543 1222 q 479 1263 496 1253 q 450 1274 463 1274 q 427 1265 435 1274 q 400 1222 419 1257 q 364 1200 389 1200 q 335 1212 347 1200 q 324 1240 324 1224 q 328 1258 324 1250 q 376 1326 351 1301 q 450 1350 400 1350 q 509 1335 482 1350 q 567 1301 536 1321 q 608 1276 590 1286 q 639 1267 625 1267 q 660 1277 653 1267 q 690 1321 668 1288 q 725 1340 703 1340 q 753 1328 742 1340 q 765 1300 765 1317 q 760 1279 765 1289 q 710 1215 733 1240 q 639 1190 688 1190 z "},"Æ":{"ha":1233,"x_min":76,"x_max":1156,"o":"m 125 -7 q 88 13 100 -7 q 82 51 76 33 l 454 1076 l 1101 1076 q 1131 1065 1119 1076 q 1143 1035 1143 1053 q 1131 1005 1143 1017 q 1101 993 1119 993 l 753 993 l 753 544 l 1056 629 q 1093 623 1076 636 q 1110 589 1110 610 q 1081 549 1110 557 l 753 457 l 753 83 l 1114 83 q 1144 72 1132 83 q 1156 42 1156 60 q 1144 12 1156 24 q 1114 0 1132 0 l 664 0 l 664 433 l 276 325 l 168 24 q 152 2 164 11 q 125 -7 140 -7 m 518 993 l 313 422 l 664 521 l 664 993 l 518 993 z "},"B":{"ha":871,"x_min":163,"x_max":738,"o":"m 163 0 l 183 1076 l 457 1076 q 526 1072 485 1076 q 610 1046 568 1067 q 680 979 651 1025 q 708 853 708 933 q 664 683 708 750 q 544 576 619 615 q 689 508 640 557 q 738 354 738 458 q 697 183 738 251 q 590 75 657 115 q 438 17 522 35 q 264 0 353 0 l 163 0 m 457 993 l 272 993 l 264 596 q 451 626 371 600 q 574 707 531 651 q 618 853 618 763 q 592 950 618 921 q 530 986 567 979 q 457 993 493 993 m 647 354 q 612 460 647 426 q 492 504 576 494 q 263 514 408 514 l 254 83 l 264 83 q 456 108 369 83 q 595 191 543 132 q 647 354 647 250 z "},"C":{"ha":881,"x_min":100,"x_max":801,"o":"m 450 -6 q 297 35 363 -6 q 188 145 232 75 q 122 309 144 215 q 100 508 100 403 q 198 940 100 796 q 518 1083 296 1083 q 629 1075 571 1083 q 751 1051 688 1067 q 774 1038 765 1049 q 783 1011 783 1026 q 767 978 783 992 q 732 971 751 965 q 616 993 668 986 q 518 1000 564 1000 q 267 885 344 1000 q 190 508 190 769 q 221 286 190 383 q 309 133 251 189 q 450 78 367 78 q 576 103 507 78 q 733 186 646 129 q 758 194 746 194 q 789 182 776 194 q 801 151 801 169 q 783 117 801 129 q 450 -6 597 -6 z "},"Ç":{"ha":881,"x_min":100,"x_max":801,"o":"m 450 -6 q 297 35 363 -6 q 188 145 232 75 q 122 309 144 215 q 100 508 100 403 q 198 940 100 796 q 518 1083 296 1083 q 629 1075 571 1083 q 751 1051 688 1067 q 774 1038 765 1049 q 783 1011 783 1026 q 767 978 783 992 q 732 971 751 965 q 616 993 668 986 q 518 1000 564 1000 q 267 885 344 1000 q 190 508 190 769 q 221 286 190 383 q 309 133 251 189 q 450 78 367 78 q 576 103 507 78 q 733 186 646 129 q 758 194 746 194 q 789 182 776 194 q 801 151 801 169 q 783 117 801 129 q 450 -6 597 -6 m 303 -164 q 274 -152 286 -164 q 263 -124 263 -140 q 272 -97 263 -108 q 389 56 346 -19 q 461 208 432 131 q 500 236 471 236 q 535 218 524 236 q 539 181 546 200 q 463 19 511 103 q 333 -150 415 -64 q 303 -164 321 -164 z "},"D":{"ha":1050,"x_min":164,"x_max":915,"o":"m 164 0 l 183 1076 l 456 1076 q 716 1018 614 1076 q 867 865 818 960 q 915 661 915 771 q 868 396 915 517 q 731 186 821 275 q 515 49 642 97 q 231 0 389 0 l 164 0 m 456 993 l 272 993 l 256 83 q 560 163 432 89 q 756 366 688 238 q 825 661 825 494 q 787 828 825 753 q 667 948 749 903 q 456 993 585 993 z "},"Ð":{"ha":1050,"x_min":-29,"x_max":915,"o":"m 164 0 l 183 1076 l 456 1076 q 716 1018 614 1076 q 867 865 818 960 q 915 661 915 771 q 868 396 915 517 q 731 186 821 275 q 515 49 642 97 q 231 0 389 0 l 164 0 m 456 993 l 272 993 l 256 83 q 560 163 432 89 q 756 366 688 238 q 825 661 825 494 q 787 828 825 753 q 667 948 749 903 q 456 993 585 993 m 6 519 q -19 530 -8 519 q -29 554 -29 540 q -19 579 -29 569 q 6 589 -8 589 l 603 589 q 628 579 618 589 q 638 554 638 569 q 628 530 638 540 q 603 519 618 519 l 6 519 z "},"E":{"ha":842,"x_min":163,"x_max":679,"o":"m 163 0 l 185 1076 l 638 1076 q 667 1065 656 1076 q 679 1035 679 1053 q 667 1005 679 1017 q 638 993 656 993 l 274 993 l 265 575 l 586 575 q 616 563 604 575 q 628 533 628 551 q 616 503 628 515 q 586 492 604 492 l 263 492 l 254 83 l 633 83 q 663 72 651 83 q 675 42 675 60 q 663 12 675 24 q 633 0 651 0 l 163 0 z "},"É":{"ha":842,"x_min":163,"x_max":679,"o":"m 163 0 l 185 1076 l 638 1076 q 667 1065 656 1076 q 679 1035 679 1053 q 667 1005 679 1017 q 638 993 656 993 l 274 993 l 265 575 l 586 575 q 616 563 604 575 q 628 533 628 551 q 616 503 628 515 q 586 492 604 492 l 263 492 l 254 83 l 633 83 q 663 72 651 83 q 675 42 675 60 q 663 12 675 24 q 633 0 651 0 l 163 0 m 439 1201 q 410 1213 422 1201 q 399 1242 399 1225 q 410 1268 399 1257 l 574 1435 q 603 1449 585 1449 q 631 1437 619 1449 q 643 1408 643 1425 q 632 1382 643 1393 l 468 1215 q 439 1201 457 1201 z "},"Ê":{"ha":842,"x_min":163,"x_max":679,"o":"m 163 0 l 185 1076 l 638 1076 q 667 1065 656 1076 q 679 1035 679 1053 q 667 1005 679 1017 q 638 993 656 993 l 274 993 l 265 575 l 586 575 q 616 563 604 575 q 628 533 628 551 q 616 503 628 515 q 586 492 604 492 l 263 492 l 254 83 l 633 83 q 663 72 651 83 q 675 42 675 60 q 663 12 675 24 q 633 0 651 0 l 163 0 m 260 1196 q 231 1208 243 1196 q 219 1236 219 1219 q 231 1263 219 1251 l 394 1429 q 424 1443 406 1443 q 453 1429 442 1443 l 617 1263 q 628 1236 628 1251 q 616 1208 628 1219 q 588 1196 604 1196 q 558 1210 569 1196 l 424 1347 l 289 1210 q 260 1196 278 1196 z "},"Ë":{"ha":842,"x_min":163,"x_max":679,"o":"m 163 0 l 185 1076 l 638 1076 q 667 1065 656 1076 q 679 1035 679 1053 q 667 1005 679 1017 q 638 993 656 993 l 274 993 l 265 575 l 586 575 q 616 563 604 575 q 628 533 628 551 q 616 503 628 515 q 586 492 604 492 l 263 492 l 254 83 l 633 83 q 663 72 651 83 q 675 42 675 60 q 663 12 675 24 q 633 0 651 0 l 163 0 m 536 1201 q 494 1220 508 1201 q 479 1268 479 1239 q 494 1315 479 1296 q 536 1333 508 1333 q 578 1315 564 1333 q 592 1268 592 1296 q 578 1220 592 1239 q 536 1201 564 1201 m 328 1201 q 285 1220 300 1201 q 271 1268 271 1239 q 285 1315 271 1296 q 328 1333 300 1333 q 369 1315 356 1333 q 383 1268 383 1296 q 369 1220 383 1239 q 328 1201 356 1201 z "},"È":{"ha":842,"x_min":163,"x_max":679,"o":"m 163 0 l 185 1076 l 638 1076 q 667 1065 656 1076 q 679 1035 679 1053 q 667 1005 679 1017 q 638 993 656 993 l 274 993 l 265 575 l 586 575 q 616 563 604 575 q 628 533 628 551 q 616 503 628 515 q 586 492 604 492 l 263 492 l 254 83 l 633 83 q 663 72 651 83 q 675 42 675 60 q 663 12 675 24 q 633 0 651 0 l 163 0 m 436 1201 q 407 1215 418 1201 l 243 1382 q 232 1408 232 1393 q 244 1437 232 1425 q 272 1449 256 1449 q 301 1435 290 1449 l 465 1268 q 476 1242 476 1257 q 465 1213 476 1225 q 436 1201 453 1201 z "},"Ẽ":{"ha":842,"x_min":163,"x_max":679,"o":"m 163 0 l 185 1076 l 638 1076 q 667 1065 656 1076 q 679 1035 679 1053 q 667 1005 679 1017 q 638 993 656 993 l 274 993 l 265 575 l 586 575 q 616 563 604 575 q 628 533 628 551 q 616 503 628 515 q 586 492 604 492 l 263 492 l 254 83 l 633 83 q 663 72 651 83 q 675 42 675 60 q 663 12 675 24 q 633 0 651 0 l 163 0 m 518 1190 q 453 1206 483 1190 q 399 1238 422 1222 q 358 1263 375 1253 q 329 1274 342 1274 q 306 1265 314 1274 q 279 1222 299 1257 q 243 1200 268 1200 q 215 1212 226 1200 q 203 1240 203 1224 q 207 1258 203 1250 q 255 1326 231 1301 q 329 1350 279 1350 q 388 1335 361 1350 q 446 1301 415 1321 q 487 1276 469 1286 q 518 1267 504 1267 q 540 1277 532 1267 q 569 1321 547 1288 q 604 1340 582 1340 q 633 1328 621 1340 q 644 1300 644 1317 q 639 1279 644 1289 q 590 1215 613 1240 q 518 1190 567 1190 z "},"F":{"ha":840,"x_min":163,"x_max":678,"o":"m 207 -7 q 176 6 189 -7 q 163 38 163 19 l 183 1076 l 636 1076 q 666 1065 654 1076 q 678 1035 678 1053 q 666 1005 678 1017 q 636 993 654 993 l 272 993 l 263 557 l 585 557 q 615 545 603 557 q 626 515 626 533 q 615 485 626 497 q 585 474 603 474 l 261 474 l 251 38 q 239 6 251 19 q 207 -7 226 -7 z "},"G":{"ha":985,"x_min":142,"x_max":861,"o":"m 493 -6 q 298 63 376 -6 q 181 247 219 131 q 142 503 142 363 q 240 939 142 794 q 561 1083 339 1083 q 672 1075 613 1083 q 794 1051 731 1067 q 817 1038 808 1049 q 826 1011 826 1026 q 810 978 826 992 q 775 971 794 965 q 658 993 711 986 q 561 1000 606 1000 q 372 949 444 1000 q 265 789 299 899 q 232 503 232 679 q 263 282 232 378 q 351 132 293 186 q 493 78 410 78 q 627 133 567 78 q 725 283 688 189 q 764 496 763 378 l 467 496 q 437 508 449 496 q 425 538 425 519 q 437 567 425 556 q 467 579 449 579 l 850 579 q 840 358 861 464 q 769 171 818 253 q 649 42 719 89 q 493 -6 579 -6 z "},"H":{"ha":1015,"x_min":165,"x_max":850,"o":"m 210 -7 q 178 7 192 -7 q 165 39 165 21 l 182 1039 q 196 1070 182 1057 q 228 1083 210 1083 q 260 1070 247 1083 q 272 1038 272 1057 l 265 588 l 269 588 l 743 588 q 753 586 749 588 l 760 1039 q 774 1070 760 1057 q 806 1083 788 1083 q 838 1070 825 1083 q 850 1038 850 1057 l 833 38 q 820 6 833 19 q 788 -7 807 -7 q 756 7 769 -7 q 743 39 743 21 l 751 504 q 743 504 747 504 l 269 504 l 264 504 l 256 38 q 242 6 256 19 q 210 -7 229 -7 z "},"I":{"ha":721,"x_min":163,"x_max":558,"o":"m 204 0 q 174 12 186 0 q 163 42 163 24 q 174 72 163 60 q 204 83 186 83 l 311 83 l 329 993 l 228 993 q 198 1005 210 993 q 186 1035 186 1017 q 198 1065 186 1053 q 228 1076 210 1076 l 517 1076 q 547 1065 535 1076 q 558 1035 558 1053 q 547 1005 558 1017 q 517 993 535 993 l 418 993 l 400 83 l 507 83 q 537 72 525 83 q 549 42 549 60 q 537 12 549 24 q 507 0 525 0 l 204 0 z "},"Ĳ":{"ha":972,"x_min":151,"x_max":831,"o":"m 558 -6 q 358 99 422 -6 q 304 394 294 203 q 317 424 304 411 q 349 436 331 436 q 381 422 368 436 q 393 389 394 408 q 427 153 385 229 q 558 78 469 78 q 681 147 632 78 q 731 350 729 217 l 740 1039 q 754 1070 740 1057 q 786 1083 768 1083 q 818 1070 806 1083 q 831 1038 831 1057 l 819 350 q 786 163 818 243 q 696 39 754 83 q 558 -6 638 -6 m 193 465 q 163 477 175 465 q 151 507 151 489 q 163 537 151 525 q 193 549 175 549 l 294 549 l 304 993 l 208 993 q 178 1005 190 993 q 167 1035 167 1017 q 178 1065 167 1053 q 208 1076 190 1076 l 486 1076 q 516 1065 504 1076 q 528 1035 528 1053 q 516 1005 528 1017 q 486 993 504 993 l 393 993 l 383 549 l 485 549 q 515 537 503 549 q 526 507 526 525 q 515 477 526 489 q 485 465 503 465 l 193 465 z "},"Í":{"ha":721,"x_min":163,"x_max":581,"o":"m 204 0 q 174 12 186 0 q 163 42 163 24 q 174 72 163 60 q 204 83 186 83 l 311 83 l 329 993 l 228 993 q 198 1005 210 993 q 186 1035 186 1017 q 198 1065 186 1053 q 228 1076 210 1076 l 517 1076 q 547 1065 535 1076 q 558 1035 558 1053 q 547 1005 558 1017 q 517 993 535 993 l 418 993 l 400 83 l 507 83 q 537 72 525 83 q 549 42 549 60 q 537 12 549 24 q 507 0 525 0 l 204 0 m 376 1201 q 348 1213 360 1201 q 336 1242 336 1225 q 347 1268 336 1257 l 511 1435 q 540 1449 522 1449 q 569 1437 557 1449 q 581 1408 581 1425 q 569 1382 581 1393 l 406 1215 q 376 1201 394 1201 z "},"Î":{"ha":721,"x_min":157,"x_max":565,"o":"m 204 0 q 174 12 186 0 q 163 42 163 24 q 174 72 163 60 q 204 83 186 83 l 311 83 l 329 993 l 228 993 q 198 1005 210 993 q 186 1035 186 1017 q 198 1065 186 1053 q 228 1076 210 1076 l 517 1076 q 547 1065 535 1076 q 558 1035 558 1053 q 547 1005 558 1017 q 517 993 535 993 l 418 993 l 400 83 l 507 83 q 537 72 525 83 q 549 42 549 60 q 537 12 549 24 q 507 0 525 0 l 204 0 m 197 1196 q 169 1208 181 1196 q 157 1236 157 1219 q 168 1263 157 1251 l 332 1429 q 361 1443 343 1443 q 390 1429 379 1443 l 554 1263 q 565 1236 565 1251 q 553 1208 565 1219 q 525 1196 542 1196 q 496 1210 507 1196 l 361 1347 l 226 1210 q 197 1196 215 1196 z "},"Ï":{"ha":721,"x_min":163,"x_max":558,"o":"m 204 0 q 174 12 186 0 q 163 42 163 24 q 174 72 163 60 q 204 83 186 83 l 311 83 l 329 993 l 228 993 q 198 1005 210 993 q 186 1035 186 1017 q 198 1065 186 1053 q 228 1076 210 1076 l 517 1076 q 547 1065 535 1076 q 558 1035 558 1053 q 547 1005 558 1017 q 517 993 535 993 l 418 993 l 400 83 l 507 83 q 537 72 525 83 q 549 42 549 60 q 537 12 549 24 q 507 0 525 0 l 204 0 m 474 1201 q 431 1220 446 1201 q 417 1268 417 1239 q 431 1315 417 1296 q 474 1333 446 1333 q 515 1315 501 1333 q 529 1268 529 1296 q 515 1220 529 1239 q 474 1201 501 1201 m 265 1201 q 223 1220 238 1201 q 208 1268 208 1239 q 223 1315 208 1296 q 265 1333 238 1333 q 307 1315 293 1333 q 321 1268 321 1296 q 307 1220 321 1239 q 265 1201 293 1201 z "},"Ì":{"ha":721,"x_min":163,"x_max":558,"o":"m 204 0 q 174 12 186 0 q 163 42 163 24 q 174 72 163 60 q 204 83 186 83 l 311 83 l 329 993 l 228 993 q 198 1005 210 993 q 186 1035 186 1017 q 198 1065 186 1053 q 228 1076 210 1076 l 517 1076 q 547 1065 535 1076 q 558 1035 558 1053 q 547 1005 558 1017 q 517 993 535 993 l 418 993 l 400 83 l 507 83 q 537 72 525 83 q 549 42 549 60 q 537 12 549 24 q 507 0 525 0 l 204 0 m 374 1201 q 344 1215 356 1201 l 181 1382 q 169 1408 169 1393 q 181 1437 169 1425 q 210 1449 193 1449 q 239 1435 228 1449 l 403 1268 q 414 1242 414 1257 q 402 1213 414 1225 q 374 1201 390 1201 z "},"Ĩ":{"ha":721,"x_min":140,"x_max":582,"o":"m 204 0 q 174 12 186 0 q 163 42 163 24 q 174 72 163 60 q 204 83 186 83 l 311 83 l 329 993 l 228 993 q 198 1005 210 993 q 186 1035 186 1017 q 198 1065 186 1053 q 228 1076 210 1076 l 517 1076 q 547 1065 535 1076 q 558 1035 558 1053 q 547 1005 558 1017 q 517 993 535 993 l 418 993 l 400 83 l 507 83 q 537 72 525 83 q 549 42 549 60 q 537 12 549 24 q 507 0 525 0 l 204 0 m 456 1190 q 390 1206 421 1190 q 336 1238 360 1222 q 296 1263 313 1253 q 267 1274 279 1274 q 244 1265 251 1274 q 217 1222 236 1257 q 181 1200 206 1200 q 152 1212 164 1200 q 140 1240 140 1224 q 144 1258 140 1250 q 192 1326 168 1301 q 267 1350 217 1350 q 326 1335 299 1350 q 383 1301 353 1321 q 424 1276 407 1286 q 456 1267 442 1267 q 477 1277 469 1267 q 507 1321 485 1288 q 542 1340 519 1340 q 570 1328 558 1340 q 582 1300 582 1317 q 576 1279 582 1289 q 527 1215 550 1240 q 456 1190 504 1190 z "},"J":{"ha":815,"x_min":121,"x_max":657,"o":"m 385 -6 q 185 99 249 -6 q 131 394 121 203 q 144 424 131 411 q 175 436 157 436 q 208 422 194 436 q 219 389 221 408 q 253 153 211 229 q 385 78 296 78 q 507 147 458 78 q 557 350 556 217 l 567 1039 q 581 1070 567 1057 q 613 1083 594 1083 q 644 1070 632 1083 q 657 1038 657 1057 l 646 350 q 613 163 644 243 q 522 39 581 83 q 385 -6 464 -6 z "},"K":{"ha":971,"x_min":167,"x_max":851,"o":"m 211 -7 q 180 7 193 -7 q 167 39 167 21 l 182 1039 q 196 1070 182 1057 q 228 1083 210 1083 q 260 1070 247 1083 q 272 1038 272 1057 l 265 550 l 717 1072 q 751 1088 729 1088 q 782 1075 769 1088 q 794 1044 794 1063 q 786 1017 794 1029 l 353 519 l 839 68 q 851 38 851 56 q 839 7 851 19 q 808 -6 826 -6 q 778 7 790 -6 l 264 486 l 257 38 q 244 6 257 19 q 211 -7 231 -7 z "},"L":{"ha":839,"x_min":164,"x_max":676,"o":"m 164 1 l 185 1039 q 198 1070 185 1057 q 229 1083 211 1083 q 262 1070 249 1083 q 275 1038 275 1057 l 256 85 l 635 85 q 665 73 653 85 q 676 43 676 61 q 665 13 676 25 q 635 1 653 1 l 164 1 z "},"M":{"ha":1393,"x_min":139,"x_max":1243,"o":"m 185 -7 q 152 8 165 -7 q 140 40 139 22 l 210 1040 q 224 1069 211 1057 q 254 1082 236 1082 q 294 1056 282 1082 l 690 222 l 1114 1057 q 1156 1082 1125 1082 q 1187 1069 1175 1082 q 1200 1039 1199 1057 l 1242 40 q 1230 8 1243 21 q 1197 -6 1217 -6 q 1166 7 1179 -6 q 1151 38 1153 19 l 1118 867 l 731 103 q 690 78 719 78 q 649 104 661 78 l 288 865 l 229 35 q 215 5 228 17 q 185 -7 203 -7 z "},"N":{"ha":1032,"x_min":163,"x_max":868,"o":"m 208 -7 q 176 7 189 -7 q 163 39 163 21 l 183 1038 q 197 1069 183 1056 q 228 1082 210 1082 q 268 1058 256 1082 l 764 199 l 778 1039 q 791 1070 778 1057 q 822 1083 804 1083 q 855 1070 842 1083 q 868 1038 868 1057 l 850 39 q 838 8 850 21 q 806 -6 825 -6 q 771 11 782 -6 l 269 881 l 253 38 q 240 6 253 19 q 208 -7 226 -7 z "},"Ñ":{"ha":1032,"x_min":163,"x_max":868,"o":"m 208 -7 q 176 7 189 -7 q 163 39 163 21 l 183 1038 q 197 1069 183 1056 q 228 1082 210 1082 q 268 1058 256 1082 l 764 199 l 778 1039 q 791 1070 778 1057 q 822 1083 804 1083 q 855 1070 842 1083 q 868 1038 868 1057 l 850 39 q 838 8 850 21 q 806 -6 825 -6 q 771 11 782 -6 l 269 881 l 253 38 q 240 6 253 19 q 208 -7 226 -7 m 611 1190 q 546 1206 576 1190 q 492 1238 515 1222 q 451 1263 468 1253 q 422 1274 435 1274 q 399 1265 407 1274 q 372 1222 392 1257 q 336 1200 361 1200 q 308 1212 319 1200 q 296 1240 296 1224 q 300 1258 296 1250 q 348 1326 324 1301 q 422 1350 372 1350 q 481 1335 454 1350 q 539 1301 508 1321 q 580 1276 563 1286 q 611 1267 597 1267 q 633 1277 625 1267 q 663 1321 640 1288 q 697 1340 675 1340 q 726 1328 714 1340 q 738 1300 738 1317 q 732 1279 738 1289 q 683 1215 706 1240 q 611 1190 660 1190 z "},"O":{"ha":1138,"x_min":133,"x_max":1004,"o":"m 538 -6 q 367 33 442 -6 q 242 137 293 71 q 165 290 192 203 q 136 474 138 376 q 163 691 133 583 q 250 888 192 799 q 397 1030 308 976 q 600 1083 485 1083 q 817 1018 729 1083 q 953 844 906 953 q 1001 606 1000 736 q 975 388 1004 496 q 888 190 946 279 q 741 48 829 101 q 538 -6 653 -6 m 538 78 q 699 124 629 78 q 817 245 769 169 q 890 414 865 321 q 913 603 914 507 q 874 808 911 718 q 767 949 836 897 q 600 1000 699 1000 q 438 955 508 1000 q 320 834 368 910 q 248 665 272 758 q 225 476 224 572 q 265 272 228 363 q 371 130 301 182 q 538 78 440 78 z "},"Ó":{"ha":1138,"x_min":133,"x_max":1004,"o":"m 538 -6 q 367 33 442 -6 q 242 137 293 71 q 165 290 192 203 q 136 474 138 376 q 163 691 133 583 q 250 888 192 799 q 397 1030 308 976 q 600 1083 485 1083 q 817 1018 729 1083 q 953 844 906 953 q 1001 606 1000 736 q 975 388 1004 496 q 888 190 946 279 q 741 48 829 101 q 538 -6 653 -6 m 538 78 q 699 124 629 78 q 817 245 769 169 q 890 414 865 321 q 913 603 914 507 q 874 808 911 718 q 767 949 836 897 q 600 1000 699 1000 q 438 955 508 1000 q 320 834 368 910 q 248 665 272 758 q 225 476 224 572 q 265 272 228 363 q 371 130 301 182 q 538 78 440 78 m 611 1201 q 583 1213 594 1201 q 571 1242 571 1225 q 582 1268 571 1257 l 746 1435 q 775 1449 757 1449 q 803 1437 792 1449 q 815 1408 815 1425 q 804 1382 815 1393 l 640 1215 q 611 1201 629 1201 z "},"Ô":{"ha":1138,"x_min":133,"x_max":1004,"o":"m 538 -6 q 367 33 442 -6 q 242 137 293 71 q 165 290 192 203 q 136 474 138 376 q 163 691 133 583 q 250 888 192 799 q 397 1030 308 976 q 600 1083 485 1083 q 817 1018 729 1083 q 953 844 906 953 q 1001 606 1000 736 q 975 388 1004 496 q 888 190 946 279 q 741 48 829 101 q 538 -6 653 -6 m 538 78 q 699 124 629 78 q 817 245 769 169 q 890 414 865 321 q 913 603 914 507 q 874 808 911 718 q 767 949 836 897 q 600 1000 699 1000 q 438 955 508 1000 q 320 834 368 910 q 248 665 272 758 q 225 476 224 572 q 265 272 228 363 q 371 130 301 182 q 538 78 440 78 m 432 1196 q 403 1208 415 1196 q 392 1236 392 1219 q 403 1263 392 1251 l 567 1429 q 596 1443 578 1443 q 625 1429 614 1443 l 789 1263 q 800 1236 800 1251 q 788 1208 800 1219 q 760 1196 776 1196 q 731 1210 742 1196 l 596 1347 l 461 1210 q 432 1196 450 1196 z "},"Ö":{"ha":1138,"x_min":133,"x_max":1004,"o":"m 538 -6 q 367 33 442 -6 q 242 137 293 71 q 165 290 192 203 q 136 474 138 376 q 163 691 133 583 q 250 888 192 799 q 397 1030 308 976 q 600 1083 485 1083 q 817 1018 729 1083 q 953 844 906 953 q 1001 606 1000 736 q 975 388 1004 496 q 888 190 946 279 q 741 48 829 101 q 538 -6 653 -6 m 538 78 q 699 124 629 78 q 817 245 769 169 q 890 414 865 321 q 913 603 914 507 q 874 808 911 718 q 767 949 836 897 q 600 1000 699 1000 q 438 955 508 1000 q 320 834 368 910 q 248 665 272 758 q 225 476 224 572 q 265 272 228 363 q 371 130 301 182 q 538 78 440 78 m 708 1201 q 666 1220 681 1201 q 651 1268 651 1239 q 666 1315 651 1296 q 708 1333 681 1333 q 750 1315 736 1333 q 764 1268 764 1296 q 750 1220 764 1239 q 708 1201 736 1201 m 500 1201 q 458 1220 472 1201 q 443 1268 443 1239 q 458 1315 443 1296 q 500 1333 472 1333 q 542 1315 528 1333 q 556 1268 556 1296 q 542 1220 556 1239 q 500 1201 528 1201 z "},"Ò":{"ha":1138,"x_min":133,"x_max":1004,"o":"m 538 -6 q 367 33 442 -6 q 242 137 293 71 q 165 290 192 203 q 136 474 138 376 q 163 691 133 583 q 250 888 192 799 q 397 1030 308 976 q 600 1083 485 1083 q 817 1018 729 1083 q 953 844 906 953 q 1001 606 1000 736 q 975 388 1004 496 q 888 190 946 279 q 741 48 829 101 q 538 -6 653 -6 m 538 78 q 699 124 629 78 q 817 245 769 169 q 890 414 865 321 q 913 603 914 507 q 874 808 911 718 q 767 949 836 897 q 600 1000 699 1000 q 438 955 508 1000 q 320 834 368 910 q 248 665 272 758 q 225 476 224 572 q 265 272 228 363 q 371 130 301 182 q 538 78 440 78 m 608 1201 q 579 1215 590 1201 l 415 1382 q 404 1408 404 1393 q 416 1437 404 1425 q 444 1449 428 1449 q 474 1435 463 1449 l 638 1268 q 649 1242 649 1257 q 637 1213 649 1225 q 608 1201 625 1201 z "},"Ø":{"ha":1121,"x_min":113,"x_max":1043,"o":"m 150 -37 q 124 -26 135 -37 q 113 0 113 -15 q 121 22 113 11 l 231 154 q 163 301 186 218 q 138 474 139 383 q 164 691 135 583 q 251 888 193 799 q 398 1030 310 976 q 601 1083 486 1083 q 768 1047 696 1083 q 892 949 840 1011 l 976 1051 q 1006 1067 988 1067 q 1032 1056 1021 1067 q 1043 1029 1043 1044 q 1035 1007 1043 1018 l 935 886 q 1003 606 1000 767 q 976 388 1006 496 q 889 190 947 279 q 742 48 831 101 q 539 -6 654 -6 q 393 22 458 -6 q 279 97 328 49 l 179 -22 q 150 -37 168 -37 m 226 476 q 289 225 229 328 l 835 881 q 736 968 794 936 q 601 1000 678 1000 q 440 955 510 1000 q 322 834 369 910 q 249 665 274 758 q 226 476 225 572 m 539 78 q 701 124 631 78 q 819 245 771 169 q 891 414 867 321 q 914 603 915 507 q 872 813 911 721 l 333 164 q 424 101 372 124 q 539 78 475 78 z "},"Õ":{"ha":1138,"x_min":133,"x_max":1004,"o":"m 538 -6 q 367 33 442 -6 q 242 137 293 71 q 165 290 192 203 q 136 474 138 376 q 163 691 133 583 q 250 888 192 799 q 397 1030 308 976 q 600 1083 485 1083 q 817 1018 729 1083 q 953 844 906 953 q 1001 606 1000 736 q 975 388 1004 496 q 888 190 946 279 q 741 48 829 101 q 538 -6 653 -6 m 538 78 q 699 124 629 78 q 817 245 769 169 q 890 414 865 321 q 913 603 914 507 q 874 808 911 718 q 767 949 836 897 q 600 1000 699 1000 q 438 955 508 1000 q 320 834 368 910 q 248 665 272 758 q 225 476 224 572 q 265 272 228 363 q 371 130 301 182 q 538 78 440 78 m 690 1190 q 625 1206 656 1190 q 571 1238 594 1222 q 531 1263 547 1253 q 501 1274 514 1274 q 478 1265 486 1274 q 451 1222 471 1257 q 415 1200 440 1200 q 387 1212 399 1200 q 375 1240 375 1224 q 379 1258 375 1250 q 427 1326 403 1301 q 501 1350 451 1350 q 560 1335 533 1350 q 618 1301 588 1321 q 659 1276 642 1286 q 690 1267 676 1267 q 712 1277 704 1267 q 742 1321 719 1288 q 776 1340 754 1340 q 805 1328 793 1340 q 817 1300 817 1317 q 811 1279 817 1289 q 762 1215 785 1240 q 690 1190 739 1190 z "},"Œ":{"ha":1315,"x_min":93,"x_max":1194,"o":"m 496 -7 q 326 31 400 -7 q 202 134 253 68 q 125 285 151 200 q 96 467 99 371 q 122 683 93 574 q 209 883 150 792 q 356 1028 268 974 q 558 1083 443 1083 q 700 1058 633 1083 l 700 1076 l 1153 1076 q 1183 1065 1171 1076 q 1194 1035 1194 1053 q 1183 1005 1194 1017 q 1153 993 1171 993 l 789 993 l 781 575 l 1101 575 q 1131 563 1119 575 q 1143 533 1143 551 q 1131 503 1143 515 q 1101 492 1119 492 l 778 492 l 769 83 l 1149 83 q 1178 72 1167 83 q 1190 42 1190 60 q 1178 12 1190 24 q 1149 0 1167 0 l 678 0 l 678 38 q 592 5 638 17 q 496 -7 546 -7 m 185 469 q 224 270 188 360 q 330 128 261 181 q 496 76 399 76 q 595 93 549 76 q 681 139 642 110 l 699 965 q 558 1000 638 1000 q 397 953 467 1000 q 278 828 326 906 q 206 656 229 750 q 185 469 182 563 z "},"P":{"ha":879,"x_min":163,"x_max":764,"o":"m 208 -7 q 176 7 189 -7 q 163 39 163 21 l 185 1076 l 469 1076 q 687 1009 610 1076 q 764 817 764 942 q 703 626 764 708 q 528 496 642 544 q 263 442 415 447 l 253 38 q 240 6 253 19 q 208 -7 226 -7 m 469 993 l 274 993 l 264 525 q 567 614 461 533 q 674 817 674 694 q 624 950 674 907 q 469 993 575 993 z "},"Þ":{"ha":813,"x_min":122,"x_max":724,"o":"m 168 -7 q 135 7 149 -7 q 122 39 122 21 l 143 1010 q 156 1041 143 1028 q 188 1054 169 1054 q 220 1041 207 1054 q 233 1008 233 1028 l 231 850 l 429 850 q 647 781 571 850 q 724 582 724 711 q 662 387 724 472 q 486 251 600 301 q 215 196 372 201 l 213 38 q 199 6 213 19 q 168 -7 186 -7 m 429 767 l 228 767 l 218 279 q 525 371 417 288 q 633 582 633 454 q 429 767 633 767 z "},"Q":{"ha":1053,"x_min":131,"x_max":1001,"o":"m 535 -6 q 365 33 439 -6 q 240 137 290 71 q 162 290 189 203 q 133 474 135 376 q 160 691 131 583 q 247 888 189 799 q 394 1030 306 976 q 597 1083 482 1083 q 815 1018 726 1083 q 950 844 903 953 q 999 606 997 736 q 978 412 1001 508 q 910 231 956 315 q 794 89 864 147 l 922 -51 q 932 -79 932 -62 q 919 -110 932 -97 q 889 -122 907 -122 q 856 -107 868 -122 l 722 40 q 634 6 681 18 q 535 -6 588 -6 m 535 78 q 663 106 603 78 l 506 279 q 496 307 496 290 q 508 338 496 325 q 539 350 521 350 q 572 335 560 350 l 736 154 q 833 275 794 203 q 892 432 872 347 q 910 603 911 517 q 871 808 908 718 q 765 949 833 897 q 597 1000 696 1000 q 435 955 506 1000 q 317 834 365 910 q 245 665 269 758 q 222 476 221 572 q 262 272 225 363 q 368 130 299 182 q 535 78 438 78 z "},"R":{"ha":954,"x_min":163,"x_max":835,"o":"m 208 -7 q 176 7 189 -7 q 163 39 163 21 l 183 1076 l 476 1076 q 624 1053 558 1076 q 727 979 689 1029 q 765 851 765 929 q 665 613 765 707 q 369 492 564 518 l 822 67 q 835 36 835 54 q 822 6 835 18 q 792 -7 810 -7 q 761 6 774 -7 l 263 474 l 253 38 q 240 6 253 19 q 208 -7 226 -7 m 476 993 l 272 993 l 264 565 q 574 649 474 572 q 675 851 675 726 q 623 959 675 925 q 476 993 571 993 z "},"S":{"ha":839,"x_min":125,"x_max":711,"o":"m 144 43 q 125 78 125 56 q 138 108 125 96 q 168 121 150 121 q 192 113 181 121 q 281 80 226 90 q 394 75 335 69 q 505 106 453 81 q 590 179 557 131 q 621 304 622 228 q 591 393 619 356 q 515 462 563 431 q 413 525 468 493 q 290 601 350 560 q 189 700 229 643 q 149 838 149 757 q 183 960 149 908 q 273 1042 217 1011 q 397 1082 329 1072 q 532 1078 464 1092 q 657 1028 600 1065 q 675 993 675 1015 q 663 963 675 975 q 632 950 650 950 q 607 958 619 950 q 492 1000 556 992 q 371 992 429 1008 q 276 936 313 975 q 239 838 239 897 q 269 739 239 781 q 349 664 299 697 q 457 597 399 631 q 573 524 515 564 q 669 433 631 485 q 710 307 708 381 q 681 159 711 219 q 600 62 651 99 q 486 8 549 25 q 360 -8 424 -8 q 239 6 296 -8 q 144 43 182 19 z "},"ẞ":{"ha":936,"x_min":122,"x_max":850,"o":"m 168 -7 q 135 7 149 -7 q 122 39 122 21 l 143 1076 l 788 1076 q 820 1063 807 1076 q 833 1031 833 1050 q 817 994 833 1008 q 770 967 808 986 q 681 918 732 947 q 579 852 629 889 q 497 772 529 815 q 464 679 464 728 q 488 606 464 638 q 551 550 511 575 q 638 499 590 525 q 736 440 688 472 q 817 366 785 408 q 850 261 850 324 q 813 115 850 171 q 718 30 776 58 q 594 -5 660 1 q 470 0 529 -11 q 375 33 411 11 q 356 69 356 46 q 368 100 356 88 q 399 113 381 113 q 422 106 411 113 q 493 81 450 89 q 582 76 536 72 q 668 101 628 81 q 734 160 708 121 q 760 261 760 200 q 711 352 760 317 q 593 426 663 388 q 494 486 544 453 q 408 566 443 519 q 374 679 374 613 q 414 811 374 756 q 520 910 454 867 q 661 993 586 953 l 232 993 l 213 38 q 199 6 213 19 q 168 -7 186 -7 z "},"T":{"ha":872,"x_min":42,"x_max":831,"o":"m 433 -7 q 401 7 414 -7 q 388 39 388 21 l 404 994 l 83 994 q 54 1006 67 994 q 42 1036 42 1018 q 54 1066 42 1054 q 83 1078 67 1078 l 789 1078 q 818 1066 806 1078 q 831 1036 831 1054 q 818 1006 831 1018 q 789 994 806 994 l 494 994 l 478 38 q 465 6 478 19 q 433 -7 451 -7 z "},"U":{"ha":1021,"x_min":156,"x_max":867,"o":"m 488 -6 q 308 42 382 -6 q 194 172 233 89 q 158 364 156 256 l 171 1039 q 184 1070 171 1057 q 215 1083 197 1083 q 248 1070 235 1083 q 261 1038 261 1057 l 247 361 q 308 156 246 235 q 488 78 369 78 q 626 113 565 78 q 724 211 688 147 q 761 364 760 275 l 776 1039 q 790 1070 776 1057 q 821 1083 803 1083 q 853 1070 840 1083 q 867 1038 867 1057 l 850 361 q 800 169 849 251 q 671 40 751 86 q 488 -6 590 -6 z "},"Ú":{"ha":1021,"x_min":156,"x_max":867,"o":"m 488 -6 q 308 42 382 -6 q 194 172 233 89 q 158 364 156 256 l 171 1039 q 184 1070 171 1057 q 215 1083 197 1083 q 248 1070 235 1083 q 261 1038 261 1057 l 247 361 q 308 156 246 235 q 488 78 369 78 q 626 113 565 78 q 724 211 688 147 q 761 364 760 275 l 776 1039 q 790 1070 776 1057 q 821 1083 803 1083 q 853 1070 840 1083 q 867 1038 867 1057 l 850 361 q 800 169 849 251 q 671 40 751 86 q 488 -6 590 -6 m 525 1201 q 497 1213 508 1201 q 485 1242 485 1225 q 496 1268 485 1257 l 660 1435 q 689 1449 671 1449 q 717 1437 706 1449 q 729 1408 729 1425 q 718 1382 729 1393 l 554 1215 q 525 1201 543 1201 z "},"Û":{"ha":1021,"x_min":156,"x_max":867,"o":"m 488 -6 q 308 42 382 -6 q 194 172 233 89 q 158 364 156 256 l 171 1039 q 184 1070 171 1057 q 215 1083 197 1083 q 248 1070 235 1083 q 261 1038 261 1057 l 247 361 q 308 156 246 235 q 488 78 369 78 q 626 113 565 78 q 724 211 688 147 q 761 364 760 275 l 776 1039 q 790 1070 776 1057 q 821 1083 803 1083 q 853 1070 840 1083 q 867 1038 867 1057 l 850 361 q 800 169 849 251 q 671 40 751 86 q 488 -6 590 -6 m 346 1196 q 317 1208 329 1196 q 306 1236 306 1219 q 317 1263 306 1251 l 481 1429 q 510 1443 492 1443 q 539 1429 528 1443 l 703 1263 q 714 1236 714 1251 q 702 1208 714 1219 q 674 1196 690 1196 q 644 1210 656 1196 l 510 1347 l 375 1210 q 346 1196 364 1196 z "},"Ü":{"ha":1021,"x_min":156,"x_max":867,"o":"m 488 -6 q 308 42 382 -6 q 194 172 233 89 q 158 364 156 256 l 171 1039 q 184 1070 171 1057 q 215 1083 197 1083 q 248 1070 235 1083 q 261 1038 261 1057 l 247 361 q 308 156 246 235 q 488 78 369 78 q 626 113 565 78 q 724 211 688 147 q 761 364 760 275 l 776 1039 q 790 1070 776 1057 q 821 1083 803 1083 q 853 1070 840 1083 q 867 1038 867 1057 l 850 361 q 800 169 849 251 q 671 40 751 86 q 488 -6 590 -6 m 622 1201 q 580 1220 594 1201 q 565 1268 565 1239 q 580 1315 565 1296 q 622 1333 594 1333 q 664 1315 650 1333 q 678 1268 678 1296 q 664 1220 678 1239 q 622 1201 650 1201 m 414 1201 q 372 1220 386 1201 q 357 1268 357 1239 q 372 1315 357 1296 q 414 1333 386 1333 q 456 1315 442 1333 q 469 1268 469 1296 q 456 1220 469 1239 q 414 1201 442 1201 z "},"Ù":{"ha":1021,"x_min":156,"x_max":867,"o":"m 488 -6 q 308 42 382 -6 q 194 172 233 89 q 158 364 156 256 l 171 1039 q 184 1070 171 1057 q 215 1083 197 1083 q 248 1070 235 1083 q 261 1038 261 1057 l 247 361 q 308 156 246 235 q 488 78 369 78 q 626 113 565 78 q 724 211 688 147 q 761 364 760 275 l 776 1039 q 790 1070 776 1057 q 821 1083 803 1083 q 853 1070 840 1083 q 867 1038 867 1057 l 850 361 q 800 169 849 251 q 671 40 751 86 q 488 -6 590 -6 m 522 1201 q 493 1215 504 1201 l 329 1382 q 318 1408 318 1393 q 330 1437 318 1425 q 358 1449 342 1449 q 388 1435 376 1449 l 551 1268 q 563 1242 563 1257 q 551 1213 563 1225 q 522 1201 539 1201 z "},"Ũ":{"ha":1021,"x_min":156,"x_max":867,"o":"m 488 -6 q 308 42 382 -6 q 194 172 233 89 q 158 364 156 256 l 171 1039 q 184 1070 171 1057 q 215 1083 197 1083 q 248 1070 235 1083 q 261 1038 261 1057 l 247 361 q 308 156 246 235 q 488 78 369 78 q 626 113 565 78 q 724 211 688 147 q 761 364 760 275 l 776 1039 q 790 1070 776 1057 q 821 1083 803 1083 q 853 1070 840 1083 q 867 1038 867 1057 l 850 361 q 800 169 849 251 q 671 40 751 86 q 488 -6 590 -6 m 604 1190 q 539 1206 569 1190 q 485 1238 508 1222 q 444 1263 461 1253 q 415 1274 428 1274 q 392 1265 400 1274 q 365 1222 385 1257 q 329 1200 354 1200 q 301 1212 313 1200 q 289 1240 289 1224 q 293 1258 289 1250 q 341 1326 317 1301 q 415 1350 365 1350 q 474 1335 447 1350 q 532 1301 501 1321 q 573 1276 556 1286 q 604 1267 590 1267 q 626 1277 618 1267 q 656 1321 633 1288 q 690 1340 668 1340 q 719 1328 707 1340 q 731 1300 731 1317 q 725 1279 731 1289 q 676 1215 699 1240 q 604 1190 653 1190 z "},"V":{"ha":1001,"x_min":118,"x_max":882,"o":"m 488 -6 q 443 26 453 -6 l 124 1025 q 131 1065 118 1046 q 167 1083 144 1083 q 210 1050 200 1083 l 489 179 l 794 1053 q 810 1074 799 1065 q 836 1083 822 1083 q 869 1070 856 1083 q 882 1039 882 1057 q 879 1024 882 1032 l 531 25 q 515 3 526 13 q 488 -6 503 -6 z "},"W":{"ha":1658,"x_min":118,"x_max":1542,"o":"m 463 -6 q 418 28 426 -6 l 124 1028 q 131 1065 118 1047 q 167 1083 144 1083 q 210 1051 200 1083 l 467 179 l 786 1051 q 831 1082 797 1082 q 874 1051 864 1082 l 1169 181 l 1449 1050 q 1492 1082 1458 1082 q 1528 1063 1515 1082 q 1535 1024 1542 1044 l 1214 26 q 1171 -6 1204 -6 q 1126 25 1136 -6 l 828 904 l 506 25 q 463 -6 494 -6 z "},"Ẃ":{"ha":1658,"x_min":118,"x_max":1542,"o":"m 463 -6 q 418 28 426 -6 l 124 1028 q 131 1065 118 1047 q 167 1083 144 1083 q 210 1051 200 1083 l 467 179 l 786 1051 q 831 1082 797 1082 q 874 1051 864 1082 l 1169 181 l 1449 1050 q 1492 1082 1458 1082 q 1528 1063 1515 1082 q 1535 1024 1542 1044 l 1214 26 q 1171 -6 1204 -6 q 1126 25 1136 -6 l 828 904 l 506 25 q 463 -6 494 -6 m 844 1201 q 816 1213 828 1201 q 804 1242 804 1225 q 815 1268 804 1257 l 979 1435 q 1008 1449 990 1449 q 1037 1437 1025 1449 q 1049 1408 1049 1425 q 1038 1382 1049 1393 l 874 1215 q 844 1201 863 1201 z "},"Ŵ":{"ha":1658,"x_min":118,"x_max":1542,"o":"m 463 -6 q 418 28 426 -6 l 124 1028 q 131 1065 118 1047 q 167 1083 144 1083 q 210 1051 200 1083 l 467 179 l 786 1051 q 831 1082 797 1082 q 874 1051 864 1082 l 1169 181 l 1449 1050 q 1492 1082 1458 1082 q 1528 1063 1515 1082 q 1535 1024 1542 1044 l 1214 26 q 1171 -6 1204 -6 q 1126 25 1136 -6 l 828 904 l 506 25 q 463 -6 494 -6 m 665 1196 q 637 1208 649 1196 q 625 1236 625 1219 q 636 1263 625 1251 l 800 1429 q 829 1443 811 1443 q 858 1429 847 1443 l 1022 1263 q 1033 1236 1033 1251 q 1022 1208 1033 1219 q 993 1196 1010 1196 q 964 1210 975 1196 l 829 1347 l 694 1210 q 665 1196 683 1196 z "},"Ẅ":{"ha":1658,"x_min":118,"x_max":1542,"o":"m 463 -6 q 418 28 426 -6 l 124 1028 q 131 1065 118 1047 q 167 1083 144 1083 q 210 1051 200 1083 l 467 179 l 786 1051 q 831 1082 797 1082 q 874 1051 864 1082 l 1169 181 l 1449 1050 q 1492 1082 1458 1082 q 1528 1063 1515 1082 q 1535 1024 1542 1044 l 1214 26 q 1171 -6 1204 -6 q 1126 25 1136 -6 l 828 904 l 506 25 q 463 -6 494 -6 m 942 1201 q 899 1220 914 1201 q 885 1268 885 1239 q 899 1315 885 1296 q 942 1333 914 1333 q 983 1315 969 1333 q 997 1268 997 1296 q 983 1220 997 1239 q 942 1201 969 1201 m 733 1201 q 691 1220 706 1201 q 676 1268 676 1239 q 691 1315 676 1296 q 733 1333 706 1333 q 775 1315 761 1333 q 789 1268 789 1296 q 775 1220 789 1239 q 733 1201 761 1201 z "},"Ẁ":{"ha":1658,"x_min":118,"x_max":1542,"o":"m 463 -6 q 418 28 426 -6 l 124 1028 q 131 1065 118 1047 q 167 1083 144 1083 q 210 1051 200 1083 l 467 179 l 786 1051 q 831 1082 797 1082 q 874 1051 864 1082 l 1169 181 l 1449 1050 q 1492 1082 1458 1082 q 1528 1063 1515 1082 q 1535 1024 1542 1044 l 1214 26 q 1171 -6 1204 -6 q 1126 25 1136 -6 l 828 904 l 506 25 q 463 -6 494 -6 m 842 1201 q 813 1215 824 1201 l 649 1382 q 638 1408 638 1393 q 649 1437 638 1425 q 678 1449 661 1449 q 707 1435 696 1449 l 871 1268 q 882 1242 882 1257 q 870 1213 882 1225 q 842 1201 858 1201 z "},"X":{"ha":1028,"x_min":122,"x_max":907,"o":"m 167 -6 q 135 8 149 -6 q 122 39 122 21 q 129 63 122 51 l 464 542 l 158 1015 q 151 1038 151 1025 q 165 1069 151 1057 q 196 1082 178 1082 q 233 1060 219 1082 l 517 619 l 825 1061 q 863 1082 839 1082 q 894 1069 882 1082 q 907 1038 907 1057 q 900 1014 907 1025 l 569 539 l 878 61 q 885 39 885 51 q 872 8 885 21 q 840 -6 860 -6 q 803 17 817 -6 l 515 463 l 204 15 q 167 -6 190 -6 z "},"Y":{"ha":1003,"x_min":121,"x_max":882,"o":"m 469 -10 q 438 4 451 -10 q 425 36 425 18 l 431 439 l 125 1021 q 121 1040 121 1029 q 134 1072 121 1060 q 165 1085 147 1085 q 206 1060 193 1085 l 479 538 l 799 1063 q 838 1085 811 1085 q 869 1072 857 1085 q 882 1040 882 1060 q 876 1018 882 1029 l 521 433 l 515 35 q 502 3 515 17 q 469 -10 489 -10 z "},"Ý":{"ha":1003,"x_min":121,"x_max":882,"o":"m 469 -10 q 438 4 451 -10 q 425 36 425 18 l 431 439 l 125 1021 q 121 1040 121 1029 q 134 1072 121 1060 q 165 1085 147 1085 q 206 1060 193 1085 l 479 538 l 799 1063 q 838 1085 811 1085 q 869 1072 857 1085 q 882 1040 882 1060 q 876 1018 882 1029 l 521 433 l 515 35 q 502 3 515 17 q 469 -10 489 -10 m 517 1201 q 488 1213 500 1201 q 476 1242 476 1225 q 488 1268 476 1257 l 651 1435 q 681 1449 663 1449 q 709 1437 697 1449 q 721 1408 721 1425 q 710 1382 721 1393 l 546 1215 q 517 1201 535 1201 z "},"Ŷ":{"ha":1003,"x_min":121,"x_max":882,"o":"m 469 -10 q 438 4 451 -10 q 425 36 425 18 l 431 439 l 125 1021 q 121 1040 121 1029 q 134 1072 121 1060 q 165 1085 147 1085 q 206 1060 193 1085 l 479 538 l 799 1063 q 838 1085 811 1085 q 869 1072 857 1085 q 882 1040 882 1060 q 876 1018 882 1029 l 521 433 l 515 35 q 502 3 515 17 q 469 -10 489 -10 m 338 1196 q 309 1208 321 1196 q 297 1236 297 1219 q 308 1263 297 1251 l 472 1429 q 501 1443 483 1443 q 531 1429 519 1443 l 694 1263 q 706 1236 706 1251 q 694 1208 706 1219 q 665 1196 682 1196 q 636 1210 647 1196 l 501 1347 l 367 1210 q 338 1196 356 1196 z "},"Ÿ":{"ha":1003,"x_min":121,"x_max":882,"o":"m 469 -10 q 438 4 451 -10 q 425 36 425 18 l 431 439 l 125 1021 q 121 1040 121 1029 q 134 1072 121 1060 q 165 1085 147 1085 q 206 1060 193 1085 l 479 538 l 799 1063 q 838 1085 811 1085 q 869 1072 857 1085 q 882 1040 882 1060 q 876 1018 882 1029 l 521 433 l 515 35 q 502 3 515 17 q 469 -10 489 -10 m 614 1201 q 572 1220 586 1201 q 557 1268 557 1239 q 572 1315 557 1296 q 614 1333 586 1333 q 656 1315 642 1333 q 669 1268 669 1296 q 656 1220 669 1239 q 614 1201 642 1201 m 406 1201 q 363 1220 378 1201 q 349 1268 349 1239 q 363 1315 349 1296 q 406 1333 378 1333 q 447 1315 433 1333 q 461 1268 461 1296 q 447 1220 461 1239 q 406 1201 433 1201 z "},"Ỳ":{"ha":1003,"x_min":121,"x_max":882,"o":"m 469 -10 q 438 4 451 -10 q 425 36 425 18 l 431 439 l 125 1021 q 121 1040 121 1029 q 134 1072 121 1060 q 165 1085 147 1085 q 206 1060 193 1085 l 479 538 l 799 1063 q 838 1085 811 1085 q 869 1072 857 1085 q 882 1040 882 1060 q 876 1018 882 1029 l 521 433 l 515 35 q 502 3 515 17 q 469 -10 489 -10 m 514 1201 q 485 1215 496 1201 l 321 1382 q 310 1408 310 1393 q 322 1437 310 1425 q 350 1449 333 1449 q 379 1435 368 1449 l 543 1268 q 554 1242 554 1257 q 542 1213 554 1225 q 514 1201 531 1201 z "},"Ỹ":{"ha":1003,"x_min":121,"x_max":882,"o":"m 469 -10 q 438 4 451 -10 q 425 36 425 18 l 431 439 l 125 1021 q 121 1040 121 1029 q 134 1072 121 1060 q 165 1085 147 1085 q 206 1060 193 1085 l 479 538 l 799 1063 q 838 1085 811 1085 q 869 1072 857 1085 q 882 1040 882 1060 q 876 1018 882 1029 l 521 433 l 515 35 q 502 3 515 17 q 469 -10 489 -10 m 596 1190 q 531 1206 561 1190 q 476 1238 500 1222 q 436 1263 453 1253 q 407 1274 419 1274 q 384 1265 392 1274 q 357 1222 376 1257 q 321 1200 346 1200 q 292 1212 304 1200 q 281 1240 281 1224 q 285 1258 281 1250 q 333 1326 308 1301 q 407 1350 357 1350 q 466 1335 439 1350 q 524 1301 493 1321 q 565 1276 547 1286 q 596 1267 582 1267 q 617 1277 610 1267 q 647 1321 625 1288 q 682 1340 660 1340 q 710 1328 699 1340 q 722 1300 722 1317 q 717 1279 722 1289 q 667 1215 690 1240 q 596 1190 644 1190 z "},"Z":{"ha":911,"x_min":78,"x_max":835,"o":"m 119 0 q 90 12 101 0 q 78 42 78 24 q 81 60 78 53 q 86 72 83 67 l 711 993 l 138 993 q 108 1005 119 993 q 96 1035 96 1017 q 108 1065 96 1053 q 138 1076 119 1076 l 793 1076 q 823 1065 811 1076 q 835 1035 835 1053 q 833 1021 835 1029 q 825 1003 832 1013 l 201 83 l 774 83 q 803 72 792 83 q 815 42 815 60 q 803 12 815 24 q 774 0 792 0 l 119 0 z "},"Ꞌ":{"ha":408,"x_min":82,"x_max":311,"o":"m 126 401 q 95 415 108 401 q 82 446 82 428 q 90 471 82 458 q 192 667 165 574 q 215 833 219 760 q 185 947 210 907 q 181 957 183 951 q 179 968 179 963 q 192 1000 179 988 q 224 1013 206 1013 q 263 989 250 1013 q 303 846 296 935 q 280 648 311 757 q 163 421 249 539 q 126 401 150 401 z "},"a":{"ha":807,"x_min":-42,"x_max":849,"o":"m 0 -7 q -30 5 -18 -7 q -42 35 -42 17 q -30 65 -42 53 q 0 76 -18 76 q 131 133 74 76 q 206 299 188 190 l 206 299 q 290 519 208 450 q 496 589 371 589 q 562 585 524 589 q 633 575 600 582 q 639 574 636 574 q 663 557 653 569 q 672 529 672 544 l 672 278 q 701 131 672 185 q 807 76 729 76 q 837 65 825 76 q 849 35 849 53 q 837 5 849 17 q 807 -7 825 -7 q 690 21 735 -7 q 619 96 644 49 q 536 19 585 46 q 435 -7 488 -7 q 319 24 374 -7 q 235 126 265 54 q 134 28 194 63 q 0 -7 74 -7 m 296 292 q 315 163 296 210 q 367 96 335 115 q 435 76 399 76 q 528 121 483 76 q 582 254 572 165 l 582 500 q 496 506 536 506 q 349 457 403 506 q 296 292 296 408 z "},"á":{"ha":807,"x_min":-42,"x_max":849,"o":"m 0 -7 q -30 5 -18 -7 q -42 35 -42 17 q -30 65 -42 53 q 0 76 -18 76 q 131 133 74 76 q 206 299 188 190 l 206 299 q 290 519 208 450 q 496 589 371 589 q 562 585 524 589 q 633 575 600 582 q 639 574 636 574 q 663 557 653 569 q 672 529 672 544 l 672 278 q 701 131 672 185 q 807 76 729 76 q 837 65 825 76 q 849 35 849 53 q 837 5 849 17 q 807 -7 825 -7 q 690 21 735 -7 q 619 96 644 49 q 536 19 585 46 q 435 -7 488 -7 q 319 24 374 -7 q 235 126 265 54 q 134 28 194 63 q 0 -7 74 -7 m 296 292 q 315 163 296 210 q 367 96 335 115 q 435 76 399 76 q 528 121 483 76 q 582 254 572 165 l 582 500 q 496 506 536 506 q 349 457 403 506 q 296 292 296 408 m 506 735 q 477 747 489 735 q 465 775 465 758 q 476 801 465 790 l 640 968 q 669 982 651 982 q 698 970 686 982 q 710 942 710 958 q 699 915 710 926 l 535 749 q 506 735 524 735 z "},"ä":{"ha":807,"x_min":-42,"x_max":849,"o":"m 0 -7 q -30 5 -18 -7 q -42 35 -42 17 q -30 65 -42 53 q 0 76 -18 76 q 131 133 74 76 q 206 299 188 190 l 206 299 q 290 519 208 450 q 496 589 371 589 q 562 585 524 589 q 633 575 600 582 q 639 574 636 574 q 663 557 653 569 q 672 529 672 544 l 672 278 q 701 131 672 185 q 807 76 729 76 q 837 65 825 76 q 849 35 849 53 q 837 5 849 17 q 807 -7 825 -7 q 690 21 735 -7 q 619 96 644 49 q 536 19 585 46 q 435 -7 488 -7 q 319 24 374 -7 q 235 126 265 54 q 134 28 194 63 q 0 -7 74 -7 m 296 292 q 315 163 296 210 q 367 96 335 115 q 435 76 399 76 q 528 121 483 76 q 582 254 572 165 l 582 500 q 496 506 536 506 q 349 457 403 506 q 296 292 296 408 m 603 735 q 560 753 575 735 q 546 801 546 772 q 560 848 546 829 q 603 867 575 867 q 644 848 631 867 q 658 801 658 829 q 644 753 658 772 q 603 735 631 735 m 394 735 q 352 753 367 735 q 338 801 338 772 q 352 848 338 829 q 394 867 367 867 q 436 848 422 867 q 450 801 450 829 q 436 753 450 772 q 394 735 422 735 z "},"à":{"ha":807,"x_min":-42,"x_max":849,"o":"m 0 -7 q -30 5 -18 -7 q -42 35 -42 17 q -30 65 -42 53 q 0 76 -18 76 q 131 133 74 76 q 206 299 188 190 l 206 299 q 290 519 208 450 q 496 589 371 589 q 562 585 524 589 q 633 575 600 582 q 639 574 636 574 q 663 557 653 569 q 672 529 672 544 l 672 278 q 701 131 672 185 q 807 76 729 76 q 837 65 825 76 q 849 35 849 53 q 837 5 849 17 q 807 -7 825 -7 q 690 21 735 -7 q 619 96 644 49 q 536 19 585 46 q 435 -7 488 -7 q 319 24 374 -7 q 235 126 265 54 q 134 28 194 63 q 0 -7 74 -7 m 296 292 q 315 163 296 210 q 367 96 335 115 q 435 76 399 76 q 528 121 483 76 q 582 254 572 165 l 582 500 q 496 506 536 506 q 349 457 403 506 q 296 292 296 408 m 503 735 q 474 749 485 735 l 310 915 q 299 942 299 926 q 310 970 299 958 q 339 982 322 982 q 368 968 357 982 l 532 801 q 543 775 543 790 q 531 747 543 758 q 503 735 519 735 z "},"ã":{"ha":807,"x_min":-42,"x_max":849,"o":"m 0 -7 q -30 5 -18 -7 q -42 35 -42 17 q -30 65 -42 53 q 0 76 -18 76 q 131 133 74 76 q 206 299 188 190 l 206 299 q 290 519 208 450 q 496 589 371 589 q 562 585 524 589 q 633 575 600 582 q 639 574 636 574 q 663 557 653 569 q 672 529 672 544 l 672 278 q 701 131 672 185 q 807 76 729 76 q 837 65 825 76 q 849 35 849 53 q 837 5 849 17 q 807 -7 825 -7 q 690 21 735 -7 q 619 96 644 49 q 536 19 585 46 q 435 -7 488 -7 q 319 24 374 -7 q 235 126 265 54 q 134 28 194 63 q 0 -7 74 -7 m 296 292 q 315 163 296 210 q 367 96 335 115 q 435 76 399 76 q 528 121 483 76 q 582 254 572 165 l 582 500 q 496 506 536 506 q 349 457 403 506 q 296 292 296 408 m 585 724 q 519 740 550 724 q 465 771 489 756 q 425 797 442 786 q 396 807 408 807 q 373 799 381 807 q 346 756 365 790 q 310 733 335 733 q 281 745 293 733 q 269 774 269 757 q 274 792 269 783 q 322 859 297 835 q 396 883 346 883 q 455 869 428 883 q 513 835 482 854 q 553 810 536 819 q 585 800 571 800 q 606 810 599 800 q 636 854 614 821 q 671 874 649 874 q 699 862 688 874 q 711 833 711 850 q 706 813 711 822 q 656 749 679 774 q 585 724 633 724 z "},"æ":{"ha":910,"x_min":-42,"x_max":951,"o":"m 0 -7 q -30 5 -18 -7 q -42 35 -42 17 q -30 65 -42 53 q 0 76 -18 76 q 130 133 74 76 q 204 292 186 189 l 204 292 q 242 461 204 396 q 344 558 279 526 q 494 589 410 589 q 560 585 522 589 q 632 575 599 582 q 638 574 635 574 q 661 557 651 569 q 671 529 671 544 l 671 522 q 744 572 704 556 q 819 589 783 589 q 916 555 883 589 q 950 469 949 521 q 922 366 951 418 q 830 276 892 314 q 676 233 768 239 q 739 113 685 150 q 907 76 793 76 q 937 65 925 76 q 949 35 949 53 q 937 5 949 17 q 907 -7 925 -7 q 625 107 700 -7 q 540 23 592 53 q 433 -7 489 -7 q 319 24 372 -7 q 235 125 265 54 q 133 28 193 63 q 0 -7 72 -7 m 819 506 q 762 485 793 506 q 706 424 731 465 q 675 317 681 382 q 791 351 747 322 q 851 417 835 381 q 858 479 867 453 q 819 506 850 506 m 494 506 q 348 458 401 506 q 294 297 294 410 q 294 286 296 292 q 315 160 296 206 q 366 95 335 114 q 433 76 397 76 q 526 121 482 76 q 581 254 571 165 l 581 500 q 494 506 535 506 z "},"b":{"ha":794,"x_min":-42,"x_max":836,"o":"m 0 -7 q -30 5 -18 -7 q -42 35 -42 17 q -30 65 -42 53 q 0 76 -18 76 q 124 140 74 76 q 207 297 175 204 q 179 435 193 353 q 156 607 165 518 q 147 769 147 696 q 160 924 147 854 q 210 1038 174 994 q 311 1081 246 1081 q 404 1051 371 1081 q 451 976 438 1022 q 465 874 465 929 q 450 723 465 807 q 410 552 435 639 q 359 390 386 465 q 308 264 332 314 q 364 126 329 176 q 450 76 399 76 q 533 102 496 76 q 592 170 569 128 q 614 264 614 213 q 600 340 614 301 q 554 414 586 379 q 526 440 539 428 q 503 461 513 453 q 490 492 490 474 q 503 522 490 510 q 533 535 515 535 l 535 535 l 535 535 q 563 525 551 535 q 622 469 596 500 q 703 413 658 439 q 794 386 749 386 q 824 374 813 386 q 836 344 836 363 q 824 315 836 326 q 794 303 813 303 q 745 308 769 303 q 699 322 721 314 q 704 264 704 293 q 671 131 704 193 q 581 31 638 69 q 450 -7 524 -7 q 324 41 374 -7 q 246 163 275 89 q 145 42 206 90 q 0 -7 85 -7 m 238 769 q 249 593 238 690 q 274 415 260 496 q 322 568 299 485 q 360 732 346 651 q 375 874 375 813 q 361 966 375 935 q 311 997 347 997 q 255 938 272 997 q 238 769 238 878 z "},"c":{"ha":511,"x_min":-42,"x_max":593,"o":"m 0 -7 q -30 5 -18 -7 q -42 35 -42 17 q -30 65 -42 53 q 0 76 -18 76 q 131 133 74 76 q 206 299 188 190 l 206 299 l 206 303 q 238 455 206 392 q 324 553 269 518 q 446 588 378 588 q 513 576 478 588 q 579 538 549 564 q 593 506 593 524 q 581 475 593 488 q 550 463 568 463 q 521 474 532 463 q 483 497 503 489 q 446 504 463 504 q 340 453 383 504 q 296 303 296 401 q 318 195 296 247 q 388 110 340 143 q 511 76 435 76 q 541 65 529 76 q 553 35 553 53 q 541 5 553 17 q 511 -7 529 -7 q 345 35 411 -7 q 244 142 279 78 q 141 33 204 72 q 0 -7 78 -7 z "},"ç":{"ha":511,"x_min":-42,"x_max":593,"o":"m 0 -7 q -30 5 -18 -7 q -42 35 -42 17 q -30 65 -42 53 q 0 76 -18 76 q 131 133 74 76 q 206 299 188 190 l 206 299 l 206 303 q 238 455 206 392 q 324 553 269 518 q 446 588 378 588 q 513 576 478 588 q 579 538 549 564 q 593 506 593 524 q 581 475 593 488 q 550 463 568 463 q 521 474 532 463 q 483 497 503 489 q 446 504 463 504 q 340 453 383 504 q 296 303 296 401 q 318 195 296 247 q 388 110 340 143 q 511 76 435 76 q 541 65 529 76 q 553 35 553 53 q 541 5 553 17 q 511 -7 529 -7 q 345 35 411 -7 q 244 142 279 78 q 141 33 204 72 q 0 -7 78 -7 m 306 -179 q 277 -167 289 -179 q 265 -139 265 -156 q 275 -112 265 -124 q 392 40 349 -35 q 464 193 435 115 q 503 221 474 221 q 538 203 526 221 q 542 165 549 185 q 466 4 514 88 q 336 -165 418 -79 q 306 -179 324 -179 z "},"d":{"ha":807,"x_min":-42,"x_max":849,"o":"m 0 -7 q -30 5 -18 -7 q -42 35 -42 17 q -30 65 -42 53 q 0 76 -18 76 q 131 133 74 76 q 206 299 188 190 l 206 299 q 290 519 208 450 q 496 589 371 589 q 536 588 514 589 q 582 583 558 586 l 582 1032 q 595 1065 582 1051 q 626 1078 608 1078 q 659 1065 646 1078 q 672 1032 672 1051 l 672 278 q 701 131 672 185 q 807 76 729 76 q 837 65 825 76 q 849 35 849 53 q 837 5 849 17 q 807 -7 825 -7 q 690 21 735 -7 q 619 96 644 49 q 536 19 585 46 q 435 -7 488 -7 q 319 24 374 -7 q 235 126 265 54 q 134 28 194 63 q 0 -7 74 -7 m 435 76 q 528 121 483 76 q 582 254 572 165 l 582 500 q 496 506 536 506 q 349 457 403 506 q 296 292 296 408 q 315 163 296 210 q 367 96 335 115 q 435 76 399 76 z "},"ð":{"ha":807,"x_min":-42,"x_max":849,"o":"m 0 -7 q -30 5 -18 -7 q -42 35 -42 17 q -30 65 -42 53 q 0 76 -18 76 q 131 133 74 76 q 206 299 188 190 l 206 299 q 290 519 208 450 q 496 589 371 589 q 536 588 514 589 q 582 583 558 586 l 582 1032 q 595 1065 582 1051 q 626 1078 608 1078 q 659 1065 646 1078 q 672 1032 672 1051 l 672 278 q 701 131 672 185 q 807 76 729 76 q 837 65 825 76 q 849 35 849 53 q 837 5 849 17 q 807 -7 825 -7 q 690 21 735 -7 q 619 96 644 49 q 536 19 585 46 q 435 -7 488 -7 q 319 24 374 -7 q 235 126 265 54 q 134 28 194 63 q 0 -7 74 -7 m 435 76 q 528 121 483 76 q 582 254 572 165 l 582 500 q 496 506 536 506 q 349 457 403 506 q 296 292 296 408 q 315 163 296 210 q 367 96 335 115 q 435 76 399 76 m 369 824 q 342 835 354 824 q 331 861 331 846 q 342 888 331 876 q 369 900 354 900 l 794 900 q 822 888 810 900 q 833 861 833 876 q 822 835 833 846 q 794 824 810 824 l 369 824 z "},"e":{"ha":468,"x_min":-42,"x_max":510,"o":"m 0 -7 q -30 5 -18 -7 q -42 35 -42 17 q -30 65 -42 53 q 0 76 -18 76 q 190 129 99 76 q 147 243 157 182 q 139 360 136 304 q 166 474 143 422 q 229 558 189 526 q 322 589 269 589 q 440 537 399 589 q 482 407 482 485 q 444 258 482 338 q 326 111 407 179 q 388 85 353 94 q 468 76 424 76 q 498 65 486 76 q 510 35 510 53 q 498 5 510 17 q 468 -7 486 -7 q 338 13 393 -7 q 244 64 283 32 q 128 13 192 32 q 0 -7 64 -7 m 228 354 q 233 259 225 307 q 267 172 242 211 q 363 292 333 228 q 392 406 392 356 q 373 478 392 450 q 322 506 354 506 q 260 465 289 506 q 228 354 232 424 z "},"é":{"ha":468,"x_min":-42,"x_max":543,"o":"m 0 -7 q -30 5 -18 -7 q -42 35 -42 17 q -30 65 -42 53 q 0 76 -18 76 q 190 129 99 76 q 147 243 157 182 q 139 360 136 304 q 166 474 143 422 q 229 558 189 526 q 322 589 269 589 q 440 537 399 589 q 482 407 482 485 q 444 258 482 338 q 326 111 407 179 q 388 85 353 94 q 468 76 424 76 q 498 65 486 76 q 510 35 510 53 q 498 5 510 17 q 468 -7 486 -7 q 338 13 393 -7 q 244 64 283 32 q 128 13 192 32 q 0 -7 64 -7 m 228 354 q 233 259 225 307 q 267 172 242 211 q 363 292 333 228 q 392 406 392 356 q 373 478 392 450 q 322 506 354 506 q 260 465 289 506 q 228 354 232 424 m 339 735 q 310 747 322 735 q 299 775 299 758 q 310 801 299 790 l 474 968 q 503 982 485 982 q 531 970 519 982 q 543 942 543 958 q 532 915 543 926 l 368 749 q 339 735 357 735 z "},"ë":{"ha":468,"x_min":-42,"x_max":510,"o":"m 0 -7 q -30 5 -18 -7 q -42 35 -42 17 q -30 65 -42 53 q 0 76 -18 76 q 190 129 99 76 q 147 243 157 182 q 139 360 136 304 q 166 474 143 422 q 229 558 189 526 q 322 589 269 589 q 440 537 399 589 q 482 407 482 485 q 444 258 482 338 q 326 111 407 179 q 388 85 353 94 q 468 76 424 76 q 498 65 486 76 q 510 35 510 53 q 498 5 510 17 q 468 -7 486 -7 q 338 13 393 -7 q 244 64 283 32 q 128 13 192 32 q 0 -7 64 -7 m 228 354 q 233 259 225 307 q 267 172 242 211 q 363 292 333 228 q 392 406 392 356 q 373 478 392 450 q 322 506 354 506 q 260 465 289 506 q 228 354 232 424 m 436 735 q 394 753 408 735 q 379 801 379 772 q 394 848 379 829 q 436 867 408 867 q 478 848 464 867 q 492 801 492 829 q 478 753 492 772 q 436 735 464 735 m 228 735 q 185 753 200 735 q 171 801 171 772 q 185 848 171 829 q 228 867 200 867 q 269 848 256 867 q 283 801 283 829 q 269 753 283 772 q 228 735 256 735 z "},"è":{"ha":468,"x_min":-42,"x_max":510,"o":"m 0 -7 q -30 5 -18 -7 q -42 35 -42 17 q -30 65 -42 53 q 0 76 -18 76 q 190 129 99 76 q 147 243 157 182 q 139 360 136 304 q 166 474 143 422 q 229 558 189 526 q 322 589 269 589 q 440 537 399 589 q 482 407 482 485 q 444 258 482 338 q 326 111 407 179 q 388 85 353 94 q 468 76 424 76 q 498 65 486 76 q 510 35 510 53 q 498 5 510 17 q 468 -7 486 -7 q 338 13 393 -7 q 244 64 283 32 q 128 13 192 32 q 0 -7 64 -7 m 228 354 q 233 259 225 307 q 267 172 242 211 q 363 292 333 228 q 392 406 392 356 q 373 478 392 450 q 322 506 354 506 q 260 465 289 506 q 228 354 232 424 m 336 735 q 307 749 318 735 l 143 915 q 132 942 132 926 q 144 970 132 958 q 172 982 156 982 q 201 968 190 982 l 365 801 q 376 775 376 790 q 365 747 376 758 q 336 735 353 735 z "},"ẽ":{"ha":468,"x_min":-42,"x_max":544,"o":"m 0 -7 q -30 5 -18 -7 q -42 35 -42 17 q -30 65 -42 53 q 0 76 -18 76 q 190 129 99 76 q 147 243 157 182 q 139 360 136 304 q 166 474 143 422 q 229 558 189 526 q 322 589 269 589 q 440 537 399 589 q 482 407 482 485 q 444 258 482 338 q 326 111 407 179 q 388 85 353 94 q 468 76 424 76 q 498 65 486 76 q 510 35 510 53 q 498 5 510 17 q 468 -7 486 -7 q 338 13 393 -7 q 244 64 283 32 q 128 13 192 32 q 0 -7 64 -7 m 228 354 q 233 259 225 307 q 267 172 242 211 q 363 292 333 228 q 392 406 392 356 q 373 478 392 450 q 322 506 354 506 q 260 465 289 506 q 228 354 232 424 m 418 724 q 353 740 383 724 q 299 771 322 756 q 258 797 275 786 q 229 807 242 807 q 206 799 214 807 q 179 756 199 790 q 143 733 168 733 q 115 745 126 733 q 103 774 103 757 q 107 792 103 783 q 155 859 131 835 q 229 883 179 883 q 288 869 261 883 q 346 835 315 854 q 387 810 369 819 q 418 800 404 800 q 440 810 432 800 q 469 854 447 821 q 504 874 482 874 q 533 862 521 874 q 544 833 544 850 q 539 813 544 822 q 490 749 513 774 q 418 724 467 724 z "},"f":{"ha":454,"x_min":-42,"x_max":497,"o":"m 0 -7 q -30 5 -18 -7 q -42 35 -42 17 q -30 65 -42 53 q 0 76 -18 76 q 124 141 74 76 q 207 300 175 206 q 181 438 194 356 q 158 608 167 521 q 149 769 149 696 q 162 924 149 854 q 211 1038 175 994 q 313 1081 247 1081 q 406 1051 372 1081 q 453 976 439 1022 q 467 874 467 929 q 451 722 467 807 q 411 549 436 636 q 359 385 386 461 q 308 260 332 308 q 330 153 318 215 q 351 22 342 92 q 390 48 371 35 q 426 75 408 61 q 454 85 438 85 q 485 72 472 85 q 497 42 497 60 q 482 8 497 21 q 420 -37 450 -17 q 363 -75 390 -57 q 369 -150 367 -112 q 371 -222 371 -187 q 361 -372 371 -306 q 321 -478 351 -439 q 226 -517 290 -517 q 132 -475 171 -517 q 93 -344 93 -433 q 117 -207 93 -264 q 180 -108 140 -150 q 267 -33 219 -67 q 253 62 261 15 q 238 150 246 108 q 140 38 199 82 q 0 -7 82 -7 m 239 769 q 250 593 239 690 q 275 415 261 496 q 324 568 300 485 q 362 732 347 651 q 376 874 376 813 q 363 966 376 935 q 313 997 349 997 q 256 938 274 997 q 239 769 239 878 m 183 -344 q 196 -414 183 -394 q 226 -433 208 -433 q 270 -377 260 -433 q 281 -222 281 -321 q 278 -136 281 -182 q 208 -219 233 -172 q 183 -344 183 -267 z "},"g":{"ha":769,"x_min":-42,"x_max":813,"o":"m 0 -7 q -30 5 -18 -7 q -42 35 -42 17 q -30 65 -42 53 q 0 76 -18 76 q 131 133 74 76 q 206 299 188 190 l 206 299 q 290 519 208 450 q 496 589 371 589 q 562 585 524 589 q 633 575 600 582 q 639 574 636 574 q 663 557 653 569 q 672 529 672 544 l 672 26 q 708 49 690 38 q 742 75 725 61 q 769 85 753 85 q 800 72 788 85 q 813 42 813 60 q 797 8 813 21 q 731 -40 763 -18 q 672 -79 700 -61 l 672 -137 q 659 -365 672 -282 q 615 -483 646 -449 q 531 -518 583 -518 q 426 -470 463 -518 q 389 -344 389 -422 q 415 -203 389 -260 q 485 -107 442 -147 q 582 -32 529 -67 l 582 53 q 435 -7 518 -7 q 319 24 374 -7 q 235 126 265 54 q 134 28 194 63 q 0 -7 74 -7 m 296 292 q 315 163 296 210 q 367 96 335 115 q 435 76 399 76 q 528 121 483 76 q 582 254 572 165 l 582 500 q 496 506 536 506 q 349 457 403 506 q 296 292 296 408 m 479 -344 q 492 -410 479 -386 q 531 -435 504 -435 q 556 -410 544 -435 q 575 -321 568 -385 q 582 -137 582 -257 q 506 -219 533 -174 q 479 -344 479 -264 z "},"h":{"ha":790,"x_min":-42,"x_max":832,"o":"m 0 -7 q -30 5 -18 -7 q -42 35 -42 17 q -30 65 -42 53 q 0 76 -18 76 q 124 141 74 76 q 208 301 175 206 l 208 885 q 252 1032 208 983 q 356 1081 296 1081 q 461 1031 414 1081 q 508 889 508 982 q 487 734 508 822 q 432 556 465 646 q 526 582 482 582 q 588 566 558 582 q 637 513 618 550 q 656 413 656 476 l 656 278 q 684 131 656 185 q 790 76 713 76 q 820 65 808 76 q 832 35 832 53 q 820 5 832 17 q 790 -7 808 -7 q 663 26 711 -7 q 593 116 615 60 q 567 240 571 172 q 565 250 565 244 l 565 413 q 553 481 565 463 q 526 499 542 499 q 466 478 501 499 q 395 422 431 457 q 333 344 360 388 l 297 278 l 297 38 q 285 6 297 19 q 253 -7 272 -7 q 222 6 235 -7 q 208 38 208 19 l 208 106 q 118 24 169 56 q 0 -7 67 -7 m 297 885 l 297 463 q 359 613 332 535 q 402 763 386 690 q 418 889 418 835 q 397 971 418 944 q 356 997 376 997 q 317 972 336 997 q 297 885 297 946 z "},"i":{"ha":481,"x_min":-42,"x_max":522,"o":"m 0 -7 q -30 5 -18 -7 q -42 35 -42 17 q -30 65 -42 53 q 0 76 -18 76 q 142 135 97 76 q 201 298 188 193 q 214 543 214 403 q 221 567 214 556 q 258 588 233 588 q 291 574 278 588 q 304 542 304 561 l 304 319 q 342 142 304 207 q 481 76 379 76 q 510 65 499 76 q 522 35 522 53 q 510 5 522 17 q 481 -7 499 -7 q 328 33 386 -7 q 244 140 271 72 q 155 33 213 72 q 0 -7 97 -7 m 267 735 q 224 753 239 735 q 210 801 210 772 q 224 848 210 829 q 267 867 239 867 q 308 848 294 867 q 322 801 322 829 q 308 753 322 772 q 267 735 294 735 z "},"ı":{"ha":481,"x_min":-42,"x_max":522,"o":"m 0 -7 q -30 5 -18 -7 q -42 35 -42 17 q -30 65 -42 53 q 0 76 -18 76 q 142 135 97 76 q 201 298 188 193 q 214 543 214 403 q 221 567 214 556 q 258 588 233 588 q 291 574 278 588 q 304 542 304 561 l 304 319 q 342 142 304 207 q 481 76 379 76 q 510 65 499 76 q 522 35 522 53 q 510 5 522 17 q 481 -7 499 -7 q 328 33 386 -7 q 244 140 271 72 q 155 33 213 72 q 0 -7 97 -7 z "},"í":{"ha":481,"x_min":-42,"x_max":522,"o":"m 0 -7 q -30 5 -18 -7 q -42 35 -42 17 q -30 65 -42 53 q 0 76 -18 76 q 142 135 97 76 q 201 298 188 193 q 214 543 214 403 q 221 567 214 556 q 258 588 233 588 q 291 574 278 588 q 304 542 304 561 l 304 319 q 342 142 304 207 q 481 76 379 76 q 510 65 499 76 q 522 35 522 53 q 510 5 522 17 q 481 -7 499 -7 q 328 33 386 -7 q 244 140 271 72 q 155 33 213 72 q 0 -7 97 -7 m 283 735 q 255 747 267 735 q 243 775 243 758 q 254 801 243 790 l 418 968 q 447 982 429 982 q 476 970 464 982 q 488 942 488 958 q 476 915 488 926 l 313 749 q 283 735 301 735 z "},"ï":{"ha":481,"x_min":-42,"x_max":522,"o":"m 0 -7 q -30 5 -18 -7 q -42 35 -42 17 q -30 65 -42 53 q 0 76 -18 76 q 142 135 97 76 q 201 298 188 193 q 214 543 214 403 q 221 567 214 556 q 258 588 233 588 q 291 574 278 588 q 304 542 304 561 l 304 319 q 342 142 304 207 q 481 76 379 76 q 510 65 499 76 q 522 35 522 53 q 510 5 522 17 q 481 -7 499 -7 q 328 33 386 -7 q 244 140 271 72 q 155 33 213 72 q 0 -7 97 -7 m 381 735 q 338 753 353 735 q 324 801 324 772 q 338 848 324 829 q 381 867 353 867 q 422 848 408 867 q 436 801 436 829 q 422 753 436 772 q 381 735 408 735 m 172 735 q 130 753 144 735 q 115 801 115 772 q 130 848 115 829 q 172 867 144 867 q 214 848 200 867 q 228 801 228 829 q 214 753 228 772 q 172 735 200 735 z "},"ì":{"ha":481,"x_min":-42,"x_max":522,"o":"m 0 -7 q -30 5 -18 -7 q -42 35 -42 17 q -30 65 -42 53 q 0 76 -18 76 q 142 135 97 76 q 201 298 188 193 q 214 543 214 403 q 221 567 214 556 q 258 588 233 588 q 291 574 278 588 q 304 542 304 561 l 304 319 q 342 142 304 207 q 481 76 379 76 q 510 65 499 76 q 522 35 522 53 q 510 5 522 17 q 481 -7 499 -7 q 328 33 386 -7 q 244 140 271 72 q 155 33 213 72 q 0 -7 97 -7 m 281 735 q 251 749 263 735 l 88 915 q 76 942 76 926 q 88 970 76 958 q 117 982 100 982 q 146 968 135 982 l 310 801 q 321 775 321 790 q 309 747 321 758 q 281 735 297 735 z "},"ĩ":{"ha":481,"x_min":-42,"x_max":522,"o":"m 0 -7 q -30 5 -18 -7 q -42 35 -42 17 q -30 65 -42 53 q 0 76 -18 76 q 142 135 97 76 q 201 298 188 193 q 214 543 214 403 q 221 567 214 556 q 258 588 233 588 q 291 574 278 588 q 304 542 304 561 l 304 319 q 342 142 304 207 q 481 76 379 76 q 510 65 499 76 q 522 35 522 53 q 510 5 522 17 q 481 -7 499 -7 q 328 33 386 -7 q 244 140 271 72 q 155 33 213 72 q 0 -7 97 -7 m 363 724 q 297 740 328 724 q 243 771 267 756 q 203 797 219 786 q 174 807 186 807 q 151 799 158 807 q 124 756 143 790 q 88 733 113 733 q 59 745 71 733 q 47 774 47 757 q 51 792 47 783 q 99 859 75 835 q 174 883 124 883 q 233 869 206 883 q 290 835 260 854 q 331 810 314 819 q 363 800 349 800 q 384 810 376 800 q 414 854 392 821 q 449 874 426 874 q 477 862 465 874 q 489 833 489 850 q 483 813 489 822 q 434 749 457 774 q 363 724 411 724 z "},"j":{"ha":401,"x_min":-42,"x_max":444,"o":"m 254 735 q 212 753 226 735 q 197 801 197 772 q 212 848 197 829 q 254 867 226 867 q 296 848 282 867 q 310 801 310 829 q 296 753 310 772 q 254 735 282 735 m 0 -7 q -30 5 -18 -7 q -42 35 -42 17 q -30 65 -42 53 q 0 76 -18 76 q 142 135 97 76 q 201 298 188 193 q 214 543 214 403 q 214 546 214 546 q 215 553 214 550 q 215 553 215 553 q 230 578 218 568 q 258 589 242 589 q 291 576 278 589 q 304 543 304 563 l 304 26 q 340 49 322 38 q 374 75 357 61 q 401 85 385 85 q 432 72 419 85 q 444 42 444 60 q 429 8 444 21 q 363 -40 394 -18 q 304 -79 332 -61 l 304 -137 q 291 -365 304 -282 q 247 -483 278 -449 q 163 -518 215 -518 q 58 -470 94 -518 q 21 -344 21 -422 q 47 -203 21 -260 q 117 -107 74 -147 q 214 -32 161 -67 l 214 89 q 128 19 181 44 q 0 -7 76 -7 m 111 -344 q 124 -410 111 -386 q 163 -435 136 -435 q 188 -410 176 -435 q 207 -321 200 -385 q 214 -137 214 -257 q 138 -219 165 -174 q 111 -344 111 -264 z "},"ȷ":{"ha":143,"x_min":-237,"x_max":186,"o":"m -96 -518 q -201 -470 -164 -518 q -237 -344 -237 -422 q -211 -203 -237 -260 q -141 -107 -185 -147 q -44 -32 -97 -67 l -44 543 q -31 576 -44 563 q 0 589 -18 589 q 33 576 19 589 q 46 543 46 563 l 46 26 q 81 49 64 38 q 115 75 99 61 q 143 85 126 85 q 174 72 161 85 q 186 42 186 60 q 171 8 186 21 q 105 -40 136 -18 q 46 -79 74 -61 l 46 -137 q 33 -365 46 -282 q -12 -483 19 -449 q -96 -518 -43 -518 m -147 -344 q -135 -410 -147 -386 q -96 -435 -122 -435 q -70 -410 -82 -435 q -51 -321 -58 -385 q -44 -137 -44 -257 q -120 -219 -93 -174 q -147 -344 -147 -264 z "},"k":{"ha":629,"x_min":-42,"x_max":671,"o":"m 0 -7 q -30 5 -18 -7 q -42 35 -42 17 q -30 65 -42 53 q 0 76 -18 76 q 124 141 74 76 q 208 301 175 206 l 208 885 q 252 1032 208 983 q 356 1081 296 1081 q 461 1031 414 1081 q 508 889 508 982 q 485 726 508 819 q 424 537 463 633 q 342 358 386 440 l 315 310 q 406 372 361 336 q 488 445 450 408 q 551 513 525 482 q 586 561 578 544 q 626 586 597 586 q 658 574 646 586 q 671 542 671 561 q 667 522 671 531 q 625 465 656 501 q 550 385 594 428 q 453 301 506 342 q 346 229 401 260 q 445 159 394 194 q 544 100 496 124 q 629 76 592 76 q 659 65 647 76 q 671 35 671 53 q 659 5 671 17 q 629 -7 647 -7 q 517 19 575 -7 q 402 85 458 46 q 297 158 346 124 l 297 38 q 285 6 297 19 q 253 -7 272 -7 q 222 6 235 -7 q 208 38 208 19 l 208 106 q 118 24 169 56 q 0 -7 67 -7 m 297 885 l 297 463 q 359 613 332 535 q 402 763 386 690 q 418 889 418 835 q 397 971 418 944 q 356 997 376 997 q 317 972 336 997 q 297 885 297 946 z "},"l":{"ha":513,"x_min":-42,"x_max":554,"o":"m 0 -7 q -30 5 -18 -7 q -42 35 -42 17 q -30 65 -42 53 q 0 76 -18 76 q 124 141 74 76 q 208 301 175 206 q 181 440 194 358 q 159 610 168 522 q 150 769 150 697 q 163 924 150 854 q 213 1038 176 994 q 314 1081 249 1081 q 407 1051 374 1081 q 454 976 440 1022 q 468 874 468 929 q 453 722 468 807 q 413 549 438 636 q 360 385 388 461 q 310 260 333 308 q 391 116 336 156 q 513 76 446 76 q 542 65 531 76 q 554 35 554 53 q 542 5 554 17 q 513 -7 531 -7 q 362 31 433 -7 q 247 165 290 68 q 147 42 207 92 q 0 -7 86 -7 m 240 769 q 251 593 240 690 q 276 415 263 496 q 325 568 301 485 q 363 732 349 651 q 378 874 378 813 q 364 966 378 935 q 314 997 350 997 q 258 938 275 997 q 240 769 240 878 z "},"ŀ":{"ha":513,"x_min":-42,"x_max":593,"o":"m 0 -7 q -30 5 -18 -7 q -42 35 -42 17 q -30 65 -42 53 q 0 76 -18 76 q 124 141 74 76 q 208 301 175 206 q 181 440 194 358 q 159 610 168 522 q 150 769 150 697 q 163 924 150 854 q 213 1038 176 994 q 314 1081 249 1081 q 407 1051 374 1081 q 454 976 440 1022 q 468 874 468 929 q 453 722 468 807 q 413 549 438 636 q 360 385 388 461 q 310 260 333 308 q 391 116 336 156 q 513 76 446 76 q 542 65 531 76 q 554 35 554 53 q 542 5 554 17 q 513 -7 531 -7 q 362 31 433 -7 q 247 165 290 68 q 147 42 207 92 q 0 -7 86 -7 m 240 769 q 251 593 240 690 q 276 415 263 496 q 325 568 301 485 q 363 732 349 651 q 378 874 378 813 q 364 966 378 935 q 314 997 350 997 q 258 938 275 997 q 240 769 240 878 m 538 432 q 495 451 510 432 q 481 499 481 469 q 495 545 481 526 q 538 564 510 564 q 579 545 565 564 q 593 499 593 526 q 579 451 593 469 q 538 432 565 432 z "},"m":{"ha":1419,"x_min":-42,"x_max":1461,"o":"m 0 -7 q -30 5 -18 -7 q -42 35 -42 17 q -30 65 -42 53 q 0 76 -18 76 q 99 106 63 76 q 159 187 136 136 q 201 300 182 238 q 254 444 226 379 q 328 549 282 510 q 458 588 375 588 l 460 588 l 461 588 q 549 564 508 588 q 611 492 589 540 q 692 563 646 538 q 786 589 739 589 q 874 565 833 589 q 936 492 914 540 q 1018 563 972 538 q 1111 589 1064 589 q 1233 536 1181 589 q 1285 376 1285 483 l 1285 283 l 1285 281 l 1285 278 q 1313 131 1285 185 q 1419 76 1342 76 q 1449 65 1438 76 q 1461 35 1461 53 q 1449 5 1461 17 q 1419 -7 1438 -7 q 1284 33 1333 -7 q 1215 138 1235 72 q 1194 278 1194 203 l 1194 281 l 1194 283 l 1194 376 q 1169 476 1194 446 q 1111 506 1143 506 q 1044 478 1079 506 q 984 401 1008 450 q 960 285 960 351 l 960 38 q 947 6 960 19 q 914 -7 933 -7 q 883 6 896 -7 q 869 38 869 19 l 869 376 q 844 476 869 446 q 786 506 818 506 q 719 478 754 506 q 659 401 683 450 q 635 285 635 351 l 635 38 q 622 6 635 19 q 589 -7 608 -7 q 558 6 571 -7 q 544 38 544 19 l 544 376 q 519 475 544 446 q 461 504 493 504 l 460 504 l 458 504 q 381 480 410 504 q 333 405 353 456 q 288 275 313 354 q 253 178 274 228 q 200 87 232 129 q 119 19 168 44 q 0 -7 71 -7 z "},"n":{"ha":1094,"x_min":-42,"x_max":1136,"o":"m 0 -7 q -30 5 -18 -7 q -42 35 -42 17 q -30 65 -42 53 q 0 76 -18 76 q 99 106 63 76 q 159 187 136 136 q 201 300 182 238 q 254 444 226 379 q 328 549 282 510 q 458 588 375 588 l 460 588 l 461 588 q 549 564 508 588 q 611 492 589 540 q 692 563 646 538 q 786 589 739 589 q 908 536 856 589 q 960 376 960 483 l 960 283 l 960 281 l 960 278 q 988 131 960 185 q 1094 76 1017 76 q 1124 65 1113 76 q 1136 35 1136 53 q 1124 5 1136 17 q 1094 -7 1113 -7 q 959 33 1008 -7 q 890 138 910 72 q 869 278 869 203 l 869 281 l 869 283 l 869 376 q 844 476 869 446 q 786 506 818 506 q 719 478 754 506 q 659 401 683 450 q 635 285 635 351 l 635 38 q 622 6 635 19 q 589 -7 608 -7 q 558 6 571 -7 q 544 38 544 19 l 544 376 q 519 475 544 446 q 461 504 493 504 l 460 504 l 458 504 q 381 480 410 504 q 333 405 353 456 q 288 275 313 354 q 253 178 274 228 q 200 87 232 129 q 119 19 168 44 q 0 -7 71 -7 z "},"ñ":{"ha":1094,"x_min":-42,"x_max":1136,"o":"m 0 -7 q -30 5 -18 -7 q -42 35 -42 17 q -30 65 -42 53 q 0 76 -18 76 q 99 106 63 76 q 159 187 136 136 q 201 300 182 238 q 254 444 226 379 q 328 549 282 510 q 458 588 375 588 l 460 588 l 461 588 q 549 564 508 588 q 611 492 589 540 q 692 563 646 538 q 786 589 739 589 q 908 536 856 589 q 960 376 960 483 l 960 283 l 960 281 l 960 278 q 988 131 960 185 q 1094 76 1017 76 q 1124 65 1113 76 q 1136 35 1136 53 q 1124 5 1136 17 q 1094 -7 1113 -7 q 959 33 1008 -7 q 890 138 910 72 q 869 278 869 203 l 869 281 l 869 283 l 869 376 q 844 476 869 446 q 786 506 818 506 q 719 478 754 506 q 659 401 683 450 q 635 285 635 351 l 635 38 q 622 6 635 19 q 589 -7 608 -7 q 558 6 571 -7 q 544 38 544 19 l 544 376 q 519 475 544 446 q 461 504 493 504 l 460 504 l 458 504 q 381 480 410 504 q 333 405 353 456 q 288 275 313 354 q 253 178 274 228 q 200 87 232 129 q 119 19 168 44 q 0 -7 71 -7 m 725 724 q 660 740 690 724 q 606 771 629 756 q 565 797 582 786 q 536 807 549 807 q 513 799 521 807 q 486 756 506 790 q 450 733 475 733 q 422 745 433 733 q 410 774 410 757 q 414 792 410 783 q 462 859 438 835 q 536 883 486 883 q 595 869 568 883 q 653 835 622 854 q 694 810 676 819 q 725 800 711 800 q 747 810 739 800 q 776 854 754 821 q 811 874 789 874 q 840 862 828 874 q 851 833 851 850 q 846 813 851 822 q 797 749 819 774 q 725 724 774 724 z "},"o":{"ha":750,"x_min":-42,"x_max":792,"o":"m 0 -7 q -30 5 -18 -7 q -42 35 -42 17 q -30 65 -42 53 q 0 76 -18 76 q 131 133 74 76 q 206 299 188 190 l 206 299 q 240 447 208 382 q 328 551 271 513 q 464 589 385 589 q 496 586 479 589 q 521 581 513 583 q 612 539 567 576 q 688 438 657 501 q 718 292 718 375 q 710 210 718 249 q 750 208 729 208 q 780 197 768 208 q 792 167 792 185 q 780 137 792 149 q 750 125 768 125 q 681 129 714 125 q 587 27 646 63 q 464 -8 528 -8 q 327 33 383 -8 q 240 135 271 74 q 138 31 200 68 q 0 -7 75 -7 m 476 425 q 515 301 476 351 q 621 228 553 251 q 628 292 628 258 q 606 403 628 357 q 556 474 583 450 q 508 499 528 499 l 508 499 l 506 499 q 488 480 500 499 q 476 425 476 461 m 296 289 q 315 185 296 235 q 372 106 335 136 q 464 75 410 75 q 533 94 499 75 q 590 150 567 113 q 442 251 497 182 q 386 425 386 321 q 396 492 386 461 q 322 417 349 469 q 296 289 296 364 z "},"ó":{"ha":750,"x_min":-42,"x_max":792,"o":"m 0 -7 q -30 5 -18 -7 q -42 35 -42 17 q -30 65 -42 53 q 0 76 -18 76 q 131 133 74 76 q 206 299 188 190 l 206 299 q 240 447 208 382 q 328 551 271 513 q 464 589 385 589 q 496 586 479 589 q 521 581 513 583 q 612 539 567 576 q 688 438 657 501 q 718 292 718 375 q 710 210 718 249 q 750 208 729 208 q 780 197 768 208 q 792 167 792 185 q 780 137 792 149 q 750 125 768 125 q 681 129 714 125 q 587 27 646 63 q 464 -8 528 -8 q 327 33 383 -8 q 240 135 271 74 q 138 31 200 68 q 0 -7 75 -7 m 476 425 q 515 301 476 351 q 621 228 553 251 q 628 292 628 258 q 606 403 628 357 q 556 474 583 450 q 508 499 528 499 l 508 499 l 506 499 q 488 480 500 499 q 476 425 476 461 m 296 289 q 315 185 296 235 q 372 106 335 136 q 464 75 410 75 q 533 94 499 75 q 590 150 567 113 q 442 251 497 182 q 386 425 386 321 q 396 492 386 461 q 322 417 349 469 q 296 289 296 364 m 492 735 q 463 747 475 735 q 451 775 451 758 q 463 801 451 790 l 626 968 q 656 982 638 982 q 684 970 672 982 q 696 942 696 958 q 685 915 696 926 l 521 749 q 492 735 510 735 z "},"ö":{"ha":750,"x_min":-42,"x_max":792,"o":"m 0 -7 q -30 5 -18 -7 q -42 35 -42 17 q -30 65 -42 53 q 0 76 -18 76 q 131 133 74 76 q 206 299 188 190 l 206 299 q 240 447 208 382 q 328 551 271 513 q 464 589 385 589 q 496 586 479 589 q 521 581 513 583 q 612 539 567 576 q 688 438 657 501 q 718 292 718 375 q 710 210 718 249 q 750 208 729 208 q 780 197 768 208 q 792 167 792 185 q 780 137 792 149 q 750 125 768 125 q 681 129 714 125 q 587 27 646 63 q 464 -8 528 -8 q 327 33 383 -8 q 240 135 271 74 q 138 31 200 68 q 0 -7 75 -7 m 476 425 q 515 301 476 351 q 621 228 553 251 q 628 292 628 258 q 606 403 628 357 q 556 474 583 450 q 508 499 528 499 l 508 499 l 506 499 q 488 480 500 499 q 476 425 476 461 m 296 289 q 315 185 296 235 q 372 106 335 136 q 464 75 410 75 q 533 94 499 75 q 590 150 567 113 q 442 251 497 182 q 386 425 386 321 q 396 492 386 461 q 322 417 349 469 q 296 289 296 364 m 589 735 q 547 753 561 735 q 532 801 532 772 q 547 848 532 829 q 589 867 561 867 q 631 848 617 867 q 644 801 644 829 q 631 753 644 772 q 589 735 617 735 m 381 735 q 338 753 353 735 q 324 801 324 772 q 338 848 324 829 q 381 867 353 867 q 422 848 408 867 q 436 801 436 829 q 422 753 436 772 q 381 735 408 735 z "},"ò":{"ha":750,"x_min":-42,"x_max":792,"o":"m 0 -7 q -30 5 -18 -7 q -42 35 -42 17 q -30 65 -42 53 q 0 76 -18 76 q 131 133 74 76 q 206 299 188 190 l 206 299 q 240 447 208 382 q 328 551 271 513 q 464 589 385 589 q 496 586 479 589 q 521 581 513 583 q 612 539 567 576 q 688 438 657 501 q 718 292 718 375 q 710 210 718 249 q 750 208 729 208 q 780 197 768 208 q 792 167 792 185 q 780 137 792 149 q 750 125 768 125 q 681 129 714 125 q 587 27 646 63 q 464 -8 528 -8 q 327 33 383 -8 q 240 135 271 74 q 138 31 200 68 q 0 -7 75 -7 m 476 425 q 515 301 476 351 q 621 228 553 251 q 628 292 628 258 q 606 403 628 357 q 556 474 583 450 q 508 499 528 499 l 508 499 l 506 499 q 488 480 500 499 q 476 425 476 461 m 296 289 q 315 185 296 235 q 372 106 335 136 q 464 75 410 75 q 533 94 499 75 q 590 150 567 113 q 442 251 497 182 q 386 425 386 321 q 396 492 386 461 q 322 417 349 469 q 296 289 296 364 m 489 735 q 460 749 471 735 l 296 915 q 285 942 285 926 q 297 970 285 958 q 325 982 308 982 q 354 968 343 982 l 518 801 q 529 775 529 790 q 517 747 529 758 q 489 735 506 735 z "},"ø":{"ha":750,"x_min":-42,"x_max":792,"o":"m 0 -7 q -30 5 -18 -7 q -42 35 -42 17 q -30 65 -42 53 q 0 76 -18 76 q 131 133 74 76 q 206 299 188 190 l 206 299 q 240 447 208 382 q 328 551 271 513 q 464 589 385 589 q 496 586 479 589 q 521 581 513 583 q 612 539 567 576 q 688 438 657 501 q 718 292 718 375 q 710 210 718 249 q 750 208 729 208 q 780 197 768 208 q 792 167 792 185 q 780 137 792 149 q 750 125 768 125 q 681 129 714 125 q 587 27 646 63 q 464 -8 528 -8 q 327 33 383 -8 q 240 135 271 74 q 138 31 200 68 q 0 -7 75 -7 m 476 425 q 515 301 476 351 q 621 228 553 251 q 628 292 628 258 q 606 403 628 357 q 556 474 583 450 q 508 499 528 499 l 508 499 l 506 499 q 488 480 500 499 q 476 425 476 461 m 296 289 q 315 185 296 235 q 372 106 335 136 q 464 75 410 75 q 533 94 499 75 q 590 150 567 113 q 442 251 497 182 q 386 425 386 321 q 396 492 386 461 q 322 417 349 469 q 296 289 296 364 m 278 -175 q 249 -163 261 -175 q 236 -133 236 -151 q 238 -124 236 -128 q 242 -115 240 -119 l 700 792 q 736 814 713 814 q 765 802 753 814 q 778 772 778 790 q 776 763 778 767 q 772 754 775 758 l 314 -153 q 278 -175 301 -175 z "},"õ":{"ha":750,"x_min":-42,"x_max":792,"o":"m 0 -7 q -30 5 -18 -7 q -42 35 -42 17 q -30 65 -42 53 q 0 76 -18 76 q 131 133 74 76 q 206 299 188 190 l 206 299 q 240 447 208 382 q 328 551 271 513 q 464 589 385 589 q 496 586 479 589 q 521 581 513 583 q 612 539 567 576 q 688 438 657 501 q 718 292 718 375 q 710 210 718 249 q 750 208 729 208 q 780 197 768 208 q 792 167 792 185 q 780 137 792 149 q 750 125 768 125 q 681 129 714 125 q 587 27 646 63 q 464 -8 528 -8 q 327 33 383 -8 q 240 135 271 74 q 138 31 200 68 q 0 -7 75 -7 m 476 425 q 515 301 476 351 q 621 228 553 251 q 628 292 628 258 q 606 403 628 357 q 556 474 583 450 q 508 499 528 499 l 508 499 l 506 499 q 488 480 500 499 q 476 425 476 461 m 296 289 q 315 185 296 235 q 372 106 335 136 q 464 75 410 75 q 533 94 499 75 q 590 150 567 113 q 442 251 497 182 q 386 425 386 321 q 396 492 386 461 q 322 417 349 469 q 296 289 296 364 m 571 724 q 506 740 536 724 q 451 771 475 756 q 411 797 428 786 q 382 807 394 807 q 359 799 367 807 q 332 756 351 790 q 296 733 321 733 q 267 745 279 733 q 256 774 256 757 q 260 792 256 783 q 308 859 283 835 q 382 883 332 883 q 441 869 414 883 q 499 835 468 854 q 540 810 522 819 q 571 800 557 800 q 592 810 585 800 q 622 854 600 821 q 657 874 635 874 q 685 862 674 874 q 697 833 697 850 q 692 813 697 822 q 642 749 665 774 q 571 724 619 724 z "},"œ":{"ha":956,"x_min":-42,"x_max":1001,"o":"m 0 -7 q -30 5 -18 -7 q -42 35 -42 17 q -30 65 -42 53 q 0 76 -18 76 q 131 133 74 76 q 206 299 188 190 q 210 313 207 307 q 247 454 215 392 q 335 553 279 517 q 468 589 392 589 q 501 586 483 589 q 528 581 518 583 q 529 581 529 581 q 607 541 568 571 q 675 463 646 511 q 765 558 711 526 q 868 589 819 589 q 967 551 933 589 q 1001 461 1001 513 q 960 338 1001 393 q 859 247 919 283 q 740 196 799 210 q 826 107 767 138 q 956 76 885 76 q 985 65 974 76 q 997 35 997 53 q 985 5 997 17 q 956 -7 974 -7 q 800 26 874 -7 q 681 122 726 60 q 588 26 646 60 q 468 -8 531 -8 q 330 33 386 -8 q 243 139 274 75 q 140 31 203 69 q 0 -7 76 -7 m 722 285 q 722 278 722 281 q 808 315 764 289 q 881 380 851 342 q 911 461 911 418 q 868 506 911 506 q 806 482 840 506 q 747 410 771 458 q 722 285 722 361 m 496 451 q 534 329 496 371 q 632 276 572 288 q 632 292 632 283 q 611 408 632 360 q 564 479 590 456 q 517 497 538 503 q 496 451 496 492 m 300 289 q 319 185 300 235 q 376 106 339 136 q 468 75 414 75 q 553 106 513 75 q 617 194 594 136 q 512 235 560 204 q 435 319 464 265 q 406 451 406 372 q 410 494 406 475 q 328 421 357 475 q 300 289 300 367 z "},"p":{"ha":792,"x_min":-42,"x_max":833,"o":"m 0 -7 q -30 5 -18 -7 q -42 35 -42 17 q -30 65 -42 53 q 0 76 -18 76 q 142 135 97 76 q 201 298 188 193 q 214 543 214 403 l 214 557 q 227 590 214 576 q 258 603 240 603 q 291 590 278 603 q 304 557 304 576 l 304 422 q 399 545 346 501 q 501 589 451 589 q 615 538 574 589 q 657 385 657 486 l 657 278 q 685 131 657 185 q 792 76 714 76 q 822 65 810 76 q 833 35 833 53 q 822 5 833 17 q 792 -7 810 -7 q 665 26 713 -7 q 594 116 617 60 q 568 240 572 172 q 567 250 567 244 l 567 385 q 549 480 567 454 q 501 506 532 506 q 453 480 485 506 q 387 399 421 454 q 328 260 353 344 q 304 56 304 175 l 304 -472 q 291 -503 304 -490 q 258 -517 278 -517 q 227 -503 240 -517 q 214 -472 214 -490 l 214 89 q 128 19 181 44 q 0 -7 76 -7 z "},"þ":{"ha":792,"x_min":-42,"x_max":833,"o":"m 0 -7 q -30 5 -18 -7 q -42 35 -42 17 q -30 65 -42 53 q 0 76 -18 76 q 142 135 97 76 q 201 298 188 193 q 214 543 214 403 l 214 1035 q 227 1067 214 1054 q 258 1081 240 1081 q 291 1067 278 1081 q 304 1035 304 1054 l 304 422 q 399 545 346 501 q 501 589 451 589 q 615 538 574 589 q 657 385 657 486 l 657 278 q 685 131 657 185 q 792 76 714 76 q 822 65 810 76 q 833 35 833 53 q 822 5 833 17 q 792 -7 810 -7 q 665 26 713 -7 q 594 116 617 60 q 568 240 572 172 q 567 250 567 244 l 567 385 q 549 480 567 454 q 501 506 532 506 q 453 480 485 506 q 387 399 421 454 q 328 260 353 344 q 304 56 304 175 l 304 -472 q 291 -503 304 -490 q 258 -517 278 -517 q 227 -503 240 -517 q 214 -472 214 -490 l 214 89 q 128 19 181 44 q 0 -7 76 -7 z "},"q":{"ha":807,"x_min":-42,"x_max":849,"o":"m 0 -7 q -30 5 -18 -7 q -42 35 -42 17 q -30 65 -42 53 q 0 76 -18 76 q 131 133 74 76 q 206 299 188 190 l 206 299 q 290 519 208 450 q 496 589 371 589 q 562 585 524 589 q 633 575 600 582 q 639 574 636 574 q 663 557 653 569 q 672 529 672 544 l 672 278 q 701 131 672 185 q 807 76 729 76 q 837 65 825 76 q 849 35 849 53 q 837 5 849 17 q 807 -7 825 -7 q 731 3 764 -7 q 672 33 697 14 l 672 -472 q 659 -503 672 -490 q 626 -517 646 -517 q 595 -503 608 -517 q 582 -472 582 -490 l 582 53 q 435 -7 518 -7 q 319 24 374 -7 q 235 126 265 54 q 134 28 194 63 q 0 -7 74 -7 m 296 292 q 315 163 296 210 q 367 96 335 115 q 435 76 399 76 q 528 121 483 76 q 582 254 572 165 l 582 500 q 496 506 536 506 q 349 457 403 506 q 296 292 296 408 z "},"r":{"ha":674,"x_min":-42,"x_max":715,"o":"m 0 -7 q -30 5 -18 -7 q -42 35 -42 17 q -30 65 -42 53 q 0 76 -18 76 q 142 135 97 76 q 201 298 188 193 q 214 543 214 403 q 258 604 214 604 q 282 596 271 604 q 369 574 322 571 q 485 586 415 576 q 569 578 546 594 q 588 524 593 563 q 569 394 579 468 q 560 251 560 321 q 585 126 560 175 q 674 76 610 76 q 703 65 692 76 q 715 35 715 53 q 703 5 715 17 q 674 -7 692 -7 q 553 31 597 -7 q 489 127 508 68 q 469 251 469 186 q 478 381 469 314 q 493 501 486 449 q 396 491 444 494 q 301 499 347 488 q 288 306 299 397 q 247 145 276 215 q 158 34 217 75 q 0 -7 99 -7 z "},"s":{"ha":699,"x_min":-42,"x_max":751,"o":"m 0 -7 q -30 5 -18 -7 q -42 35 -42 17 q -30 65 -42 53 q 0 76 -18 76 q 106 111 64 76 q 176 209 147 146 q 231 360 206 272 q 285 553 256 447 q 288 561 286 557 q 290 569 289 565 q 292 572 290 571 q 293 574 292 574 q 331 597 304 597 q 356 589 344 597 q 481 508 417 547 q 599 426 544 468 q 684 331 653 383 q 713 208 715 278 q 701 134 711 167 q 676 76 692 101 q 699 76 686 76 q 736 63 721 76 q 740 -4 751 49 q 664 -8 714 -7 q 556 -6 614 -10 q 442 12 497 -1 q 350 51 388 25 q 336 83 336 61 q 347 113 336 99 q 379 126 358 126 q 396 123 388 126 q 410 115 404 119 q 454 94 425 106 q 513 83 483 83 q 587 110 553 83 q 624 211 621 138 q 591 312 626 268 q 494 396 556 356 q 358 485 433 436 q 305 298 332 386 q 240 141 278 210 q 145 33 203 72 q 0 -7 88 -7 z "},"ß":{"ha":808,"x_min":-42,"x_max":850,"o":"m 0 -7 q -30 5 -18 -7 q -42 35 -42 17 q -30 65 -42 53 q 0 76 -18 76 q 142 135 97 76 q 201 298 188 193 q 214 543 214 403 q 215 553 214 549 l 224 1036 q 237 1067 224 1054 q 268 1081 250 1081 q 300 1067 288 1081 q 313 1036 313 1054 l 308 774 q 374 929 336 860 q 461 1040 413 999 q 569 1081 510 1081 q 656 1052 622 1081 q 707 978 690 1024 q 724 881 724 933 q 703 767 724 825 q 649 659 683 710 q 569 572 614 608 q 736 466 683 539 q 789 311 789 393 q 760 185 789 247 q 676 76 731 122 l 808 76 q 838 65 826 76 q 850 35 850 53 q 838 5 850 17 q 808 -7 826 -7 l 465 -7 l 463 -7 q 449 -7 456 -7 q 419 5 431 -7 q 407 35 407 17 q 419 65 407 53 q 449 76 431 76 q 580 111 524 76 q 667 199 636 146 q 699 311 699 253 q 672 406 699 361 q 585 480 644 450 q 431 514 526 510 q 403 527 414 515 q 392 556 392 539 q 403 584 392 572 q 431 597 414 596 q 500 625 464 599 q 566 693 536 651 q 615 784 596 735 q 633 881 633 833 q 615 966 633 935 q 569 997 597 997 q 478 938 525 997 q 392 767 432 879 q 326 494 351 656 q 296 129 300 333 l 290 -206 q 278 -237 290 -224 q 246 -250 265 -250 q 215 -237 228 -250 q 201 -206 201 -224 l 207 79 q 123 16 174 39 q 0 -7 72 -7 z "},"t":{"ha":581,"x_min":-42,"x_max":653,"o":"m 0 -7 q -30 5 -18 -7 q -42 35 -42 17 q -30 65 -42 53 q 0 76 -18 76 q 177 138 113 76 q 272 306 242 199 q 306 547 301 413 l 306 582 l 206 582 q 174 595 188 582 q 161 626 161 608 q 174 659 161 646 q 206 672 188 672 l 306 672 l 306 1032 q 319 1065 306 1051 q 350 1078 332 1078 q 383 1065 369 1078 q 396 1032 396 1051 l 396 672 l 607 672 q 640 659 626 672 q 653 626 653 646 q 640 595 653 608 q 607 582 626 582 l 396 582 l 396 524 q 403 293 396 382 q 429 158 410 204 q 485 94 449 111 q 581 76 522 76 q 610 65 599 76 q 622 35 622 53 q 610 5 622 17 q 581 -7 599 -7 q 407 40 465 -7 q 326 201 349 86 q 205 50 283 107 q 0 -7 126 -7 z "},"u":{"ha":815,"x_min":-42,"x_max":857,"o":"m 0 -7 q -30 5 -18 -7 q -42 35 -42 17 q -30 65 -42 53 q 0 76 -18 76 q 142 135 97 76 q 201 298 188 193 q 214 543 214 403 q 214 546 214 546 q 215 553 214 550 q 215 553 215 553 q 230 578 218 568 q 258 589 242 589 q 291 576 278 589 q 304 543 304 563 l 304 250 q 318 142 304 181 q 357 90 332 104 q 413 76 382 76 q 514 125 461 76 q 590 261 567 174 l 590 543 q 603 576 590 563 q 635 589 617 589 q 667 576 654 589 q 681 543 681 563 l 681 278 q 709 131 681 185 q 815 76 738 76 q 845 65 833 76 q 857 35 857 53 q 845 5 857 17 q 815 -7 833 -7 q 689 26 736 -7 q 618 115 642 60 q 524 26 578 58 q 413 -7 469 -7 q 346 3 381 -7 q 281 40 311 13 q 233 118 251 67 q 144 26 200 60 q 0 -7 89 -7 z "},"ú":{"ha":815,"x_min":-42,"x_max":857,"o":"m 0 -7 q -30 5 -18 -7 q -42 35 -42 17 q -30 65 -42 53 q 0 76 -18 76 q 142 135 97 76 q 201 298 188 193 q 214 543 214 403 q 214 546 214 546 q 215 553 214 550 q 215 553 215 553 q 230 578 218 568 q 258 589 242 589 q 291 576 278 589 q 304 543 304 563 l 304 250 q 318 142 304 181 q 357 90 332 104 q 413 76 382 76 q 514 125 461 76 q 590 261 567 174 l 590 543 q 603 576 590 563 q 635 589 617 589 q 667 576 654 589 q 681 543 681 563 l 681 278 q 709 131 681 185 q 815 76 738 76 q 845 65 833 76 q 857 35 857 53 q 845 5 857 17 q 815 -7 833 -7 q 689 26 736 -7 q 618 115 642 60 q 524 26 578 58 q 413 -7 469 -7 q 346 3 381 -7 q 281 40 311 13 q 233 118 251 67 q 144 26 200 60 q 0 -7 89 -7 m 450 735 q 422 747 433 735 q 410 775 410 758 q 421 801 410 790 l 585 968 q 614 982 596 982 q 642 970 631 982 q 654 942 654 958 q 643 915 654 926 l 479 749 q 450 735 468 735 z "},"ü":{"ha":815,"x_min":-42,"x_max":857,"o":"m 0 -7 q -30 5 -18 -7 q -42 35 -42 17 q -30 65 -42 53 q 0 76 -18 76 q 142 135 97 76 q 201 298 188 193 q 214 543 214 403 q 214 546 214 546 q 215 553 214 550 q 215 553 215 553 q 230 578 218 568 q 258 589 242 589 q 291 576 278 589 q 304 543 304 563 l 304 250 q 318 142 304 181 q 357 90 332 104 q 413 76 382 76 q 514 125 461 76 q 590 261 567 174 l 590 543 q 603 576 590 563 q 635 589 617 589 q 667 576 654 589 q 681 543 681 563 l 681 278 q 709 131 681 185 q 815 76 738 76 q 845 65 833 76 q 857 35 857 53 q 845 5 857 17 q 815 -7 833 -7 q 689 26 736 -7 q 618 115 642 60 q 524 26 578 58 q 413 -7 469 -7 q 346 3 381 -7 q 281 40 311 13 q 233 118 251 67 q 144 26 200 60 q 0 -7 89 -7 m 547 735 q 505 753 519 735 q 490 801 490 772 q 505 848 490 829 q 547 867 519 867 q 589 848 575 867 q 603 801 603 829 q 589 753 603 772 q 547 735 575 735 m 339 735 q 297 753 311 735 q 282 801 282 772 q 297 848 282 829 q 339 867 311 867 q 381 848 367 867 q 394 801 394 829 q 381 753 394 772 q 339 735 367 735 z "},"ù":{"ha":815,"x_min":-42,"x_max":857,"o":"m 0 -7 q -30 5 -18 -7 q -42 35 -42 17 q -30 65 -42 53 q 0 76 -18 76 q 142 135 97 76 q 201 298 188 193 q 214 543 214 403 q 214 546 214 546 q 215 553 214 550 q 215 553 215 553 q 230 578 218 568 q 258 589 242 589 q 291 576 278 589 q 304 543 304 563 l 304 250 q 318 142 304 181 q 357 90 332 104 q 413 76 382 76 q 514 125 461 76 q 590 261 567 174 l 590 543 q 603 576 590 563 q 635 589 617 589 q 667 576 654 589 q 681 543 681 563 l 681 278 q 709 131 681 185 q 815 76 738 76 q 845 65 833 76 q 857 35 857 53 q 845 5 857 17 q 815 -7 833 -7 q 689 26 736 -7 q 618 115 642 60 q 524 26 578 58 q 413 -7 469 -7 q 346 3 381 -7 q 281 40 311 13 q 233 118 251 67 q 144 26 200 60 q 0 -7 89 -7 m 447 735 q 418 749 429 735 l 254 915 q 243 942 243 926 q 255 970 243 958 q 283 982 267 982 q 313 968 301 982 l 476 801 q 488 775 488 790 q 476 747 488 758 q 447 735 464 735 z "},"ũ":{"ha":815,"x_min":-42,"x_max":857,"o":"m 0 -7 q -30 5 -18 -7 q -42 35 -42 17 q -30 65 -42 53 q 0 76 -18 76 q 142 135 97 76 q 201 298 188 193 q 214 543 214 403 q 214 546 214 546 q 215 553 214 550 q 215 553 215 553 q 230 578 218 568 q 258 589 242 589 q 291 576 278 589 q 304 543 304 563 l 304 250 q 318 142 304 181 q 357 90 332 104 q 413 76 382 76 q 514 125 461 76 q 590 261 567 174 l 590 543 q 603 576 590 563 q 635 589 617 589 q 667 576 654 589 q 681 543 681 563 l 681 278 q 709 131 681 185 q 815 76 738 76 q 845 65 833 76 q 857 35 857 53 q 845 5 857 17 q 815 -7 833 -7 q 689 26 736 -7 q 618 115 642 60 q 524 26 578 58 q 413 -7 469 -7 q 346 3 381 -7 q 281 40 311 13 q 233 118 251 67 q 144 26 200 60 q 0 -7 89 -7 m 529 724 q 464 740 494 724 q 410 771 433 756 q 369 797 386 786 q 340 807 353 807 q 317 799 325 807 q 290 756 310 790 q 254 733 279 733 q 226 745 238 733 q 214 774 214 757 q 218 792 214 783 q 266 859 242 835 q 340 883 290 883 q 399 869 372 883 q 457 835 426 854 q 498 810 481 819 q 529 800 515 800 q 551 810 543 800 q 581 854 558 821 q 615 874 593 874 q 644 862 632 874 q 656 833 656 850 q 650 813 656 822 q 601 749 624 774 q 529 724 578 724 z "},"v":{"ha":1007,"x_min":-42,"x_max":1049,"o":"m 0 -7 q -30 5 -18 -7 q -42 35 -42 17 q -30 65 -42 53 q 0 76 -18 76 q 99 118 58 76 q 169 225 139 160 q 226 361 200 290 q 274 478 250 426 q 328 559 297 529 q 403 589 358 589 q 502 542 472 589 q 532 376 532 494 l 532 251 q 547 115 532 154 q 608 76 561 76 q 703 111 657 76 q 778 201 749 146 q 807 313 807 256 q 763 418 807 368 q 738 440 749 429 q 719 457 728 450 l 718 458 q 715 461 717 460 l 715 461 l 715 461 q 706 476 708 467 q 703 492 703 483 q 715 522 703 510 q 746 535 728 535 q 747 535 747 535 q 751 535 750 535 q 774 525 764 533 q 832 472 807 500 q 914 414 868 442 q 1007 386 960 386 q 1037 374 1025 386 q 1049 344 1049 363 q 1037 315 1049 326 q 1007 303 1025 303 q 950 310 978 303 q 897 328 922 317 q 897 313 897 321 q 874 198 897 254 q 810 95 850 142 q 717 21 769 49 q 608 -7 665 -7 q 503 26 539 -7 q 454 117 467 60 q 442 251 442 175 l 442 376 q 438 460 442 433 q 426 497 435 488 q 403 506 418 506 q 366 460 389 506 q 313 333 343 415 q 267 220 293 279 q 206 110 242 161 q 119 26 169 58 q 0 -7 69 -7 z "},"w":{"ha":1374,"x_min":-42,"x_max":1415,"o":"m 0 -7 q -30 5 -18 -7 q -42 35 -42 17 q -30 65 -42 53 q 0 76 -18 76 q 99 118 58 76 q 169 225 139 160 q 226 361 200 290 q 274 478 250 426 q 328 559 297 529 q 403 589 358 589 q 502 542 472 589 q 532 376 532 494 l 532 256 l 532 253 l 532 251 q 547 115 532 154 q 608 76 561 76 q 683 103 647 76 q 745 172 718 131 q 788 256 772 213 q 803 335 803 300 l 803 536 q 816 569 803 556 q 847 582 829 582 q 880 569 867 582 q 893 536 893 556 l 893 346 q 913 206 893 267 q 963 110 932 144 q 1029 76 994 76 q 1112 102 1075 76 q 1171 170 1149 128 q 1193 264 1193 213 q 1179 340 1193 301 q 1133 414 1165 379 q 1105 440 1118 428 q 1082 461 1092 453 q 1069 492 1069 474 q 1082 522 1069 510 q 1113 535 1094 535 l 1114 535 l 1114 535 q 1142 525 1131 535 q 1201 469 1175 500 q 1283 413 1238 439 q 1374 386 1328 386 q 1403 374 1392 386 q 1415 344 1415 363 q 1403 315 1415 326 q 1374 303 1392 303 q 1324 308 1349 303 q 1278 322 1300 314 q 1283 264 1283 293 q 1250 131 1283 193 q 1160 31 1217 69 q 1029 -7 1103 -7 q 915 37 964 -7 q 838 153 865 81 q 741 40 800 88 q 608 -7 682 -7 q 503 26 539 -7 q 454 117 467 60 q 442 251 442 175 l 442 254 l 442 256 l 442 376 q 438 460 442 433 q 426 497 435 488 q 403 506 418 506 q 366 460 389 506 q 313 333 343 415 q 267 220 293 279 q 206 110 242 161 q 119 26 169 58 q 0 -7 69 -7 z "},"x":{"ha":940,"x_min":-42,"x_max":1010,"o":"m 0 -7 q -30 5 -18 -7 q -42 35 -42 17 q -30 65 -42 53 q 0 76 -18 76 q 99 106 63 76 q 159 187 136 136 q 201 300 182 238 q 253 442 226 378 q 324 545 279 506 q 447 588 368 585 q 458 589 453 589 q 590 560 536 589 q 675 479 643 531 q 767 569 711 542 q 884 588 824 596 q 994 542 944 581 q 1010 508 1010 529 q 997 478 1010 490 q 967 465 985 465 q 939 475 950 465 q 867 504 906 501 q 794 484 829 507 q 738 410 760 461 q 717 276 717 358 q 773 130 717 183 q 940 76 829 76 q 970 65 958 76 q 982 35 982 53 q 970 5 982 17 q 940 -7 958 -7 q 781 24 849 -7 q 675 111 714 56 q 600 28 644 56 q 506 -6 556 1 q 413 -3 457 -12 q 339 22 368 6 q 324 38 331 28 q 318 58 318 47 q 331 89 318 76 q 361 101 343 101 q 383 94 372 101 q 431 78 401 85 q 494 77 460 72 q 558 105 528 82 q 607 176 588 128 q 626 304 626 224 q 588 450 626 397 q 468 506 550 503 q 458 504 464 504 q 381 480 410 504 q 333 405 353 456 q 288 275 313 354 q 253 178 274 228 q 200 87 232 129 q 119 19 168 44 q 0 -7 71 -7 z "},"y":{"ha":778,"x_min":-42,"x_max":821,"o":"m 0 -7 q -30 5 -18 -7 q -42 35 -42 17 q -30 65 -42 53 q 0 76 -18 76 q 142 135 97 76 q 201 298 188 193 q 214 543 214 403 q 214 546 214 546 q 215 553 214 550 q 215 553 215 553 q 230 578 218 568 q 258 589 242 589 q 291 576 278 589 q 304 543 304 563 l 304 250 q 318 142 304 181 q 357 90 332 104 q 413 76 382 76 q 514 125 461 76 q 590 261 567 174 l 590 543 q 603 576 590 563 q 635 589 617 589 q 667 576 654 589 q 681 543 681 563 l 681 26 q 716 49 699 38 q 750 75 733 61 q 778 85 761 85 q 808 72 796 85 q 821 42 821 60 q 806 8 821 21 q 740 -40 771 -18 q 681 -79 708 -61 l 681 -137 q 667 -365 681 -282 q 623 -483 654 -449 q 539 -518 592 -518 q 434 -470 471 -518 q 397 -344 397 -422 q 424 -203 397 -260 q 494 -107 450 -147 q 590 -32 538 -67 l 590 81 q 506 16 553 39 q 413 -7 460 -7 q 346 3 381 -7 q 281 40 311 13 q 233 118 251 67 q 144 26 200 60 q 0 -7 89 -7 m 488 -344 q 500 -410 488 -386 q 539 -435 513 -435 q 565 -410 553 -435 q 583 -321 576 -385 q 590 -137 590 -257 q 515 -219 542 -174 q 488 -344 488 -264 z "},"ỹ":{"ha":778,"x_min":-42,"x_max":821,"o":"m 0 -7 q -30 5 -18 -7 q -42 35 -42 17 q -30 65 -42 53 q 0 76 -18 76 q 142 135 97 76 q 201 298 188 193 q 214 543 214 403 q 214 546 214 546 q 215 553 214 550 q 215 553 215 553 q 230 578 218 568 q 258 589 242 589 q 291 576 278 589 q 304 543 304 563 l 304 250 q 318 142 304 181 q 357 90 332 104 q 413 76 382 76 q 514 125 461 76 q 590 261 567 174 l 590 543 q 603 576 590 563 q 635 589 617 589 q 667 576 654 589 q 681 543 681 563 l 681 26 q 716 49 699 38 q 750 75 733 61 q 778 85 761 85 q 808 72 796 85 q 821 42 821 60 q 806 8 821 21 q 740 -40 771 -18 q 681 -79 708 -61 l 681 -137 q 667 -365 681 -282 q 623 -483 654 -449 q 539 -518 592 -518 q 434 -470 471 -518 q 397 -344 397 -422 q 424 -203 397 -260 q 494 -107 450 -147 q 590 -32 538 -67 l 590 81 q 506 16 553 39 q 413 -7 460 -7 q 346 3 381 -7 q 281 40 311 13 q 233 118 251 67 q 144 26 200 60 q 0 -7 89 -7 m 488 -344 q 500 -410 488 -386 q 539 -435 513 -435 q 565 -410 553 -435 q 583 -321 576 -385 q 590 -137 590 -257 q 515 -219 542 -174 q 488 -344 488 -264 m 533 724 q 468 740 499 724 q 414 771 438 756 q 374 797 390 786 q 344 807 357 807 q 322 799 329 807 q 294 756 314 790 q 258 733 283 733 q 230 745 242 733 q 218 774 218 757 q 222 792 218 783 q 270 859 246 835 q 344 883 294 883 q 403 869 376 883 q 461 835 431 854 q 502 810 485 819 q 533 800 519 800 q 555 810 547 800 q 585 854 563 821 q 619 874 597 874 q 648 862 636 874 q 660 833 660 850 q 654 813 660 822 q 605 749 628 774 q 533 724 582 724 z "},"z":{"ha":757,"x_min":-42,"x_max":800,"o":"m 0 -7 q -30 5 -18 -7 q -42 35 -42 17 q -30 65 -42 53 q 0 76 -18 76 q 177 138 113 76 q 272 306 242 199 q 306 547 301 413 l 306 563 q 318 592 306 581 q 349 604 331 604 q 368 600 360 604 q 421 585 390 590 q 481 578 451 579 q 529 576 511 576 q 641 581 589 576 q 726 589 693 585 q 780 569 760 593 q 776 506 800 546 q 728 424 763 482 q 649 290 693 365 q 563 135 604 214 q 635 98 603 121 q 690 44 667 75 q 729 75 710 60 q 757 85 740 85 q 788 72 775 85 q 800 42 800 60 q 785 8 800 21 q 736 -31 758 -11 q 768 -132 758 -79 q 778 -236 778 -185 q 726 -451 778 -383 q 600 -518 674 -518 q 510 -486 546 -518 q 458 -402 474 -454 q 452 -288 443 -350 q 499 -165 461 -226 q 624 -14 543 -92 q 568 38 601 17 q 492 64 535 58 q 453 108 453 68 q 457 128 453 119 q 533 266 493 196 q 608 397 572 336 q 669 499 644 457 q 603 494 639 496 q 529 493 567 493 q 468 495 507 493 q 393 504 429 497 q 363 309 386 401 q 295 145 340 217 q 178 33 250 74 q 0 -7 106 -7 m 576 -207 q 540 -313 544 -261 q 553 -400 536 -365 q 600 -435 569 -435 q 660 -391 632 -435 q 688 -236 688 -347 q 682 -164 688 -200 q 665 -96 676 -128 q 576 -207 611 -151 z "},"ꞌ":{"ha":431,"x_min":104,"x_max":331,"o":"m 147 272 q 117 285 129 272 q 104 315 104 297 q 117 346 104 333 q 197 453 169 396 q 232 565 225 510 q 231 669 239 621 q 206 747 224 717 q 202 757 204 751 q 200 768 200 763 q 213 800 200 788 q 244 813 226 813 q 283 789 271 813 q 319 688 308 747 q 322 558 331 628 q 279 418 314 489 q 178 285 244 347 q 147 272 165 272 z "},"⓪":{"ha":1292,"x_min":47,"x_max":1244,"o":"m 647 -56 q 333 16 468 -56 q 122 220 197 88 q 47 538 47 353 q 119 847 47 714 q 326 1053 192 979 q 647 1128 461 1128 q 960 1056 826 1128 q 1169 853 1094 985 q 1244 538 1244 721 q 1173 226 1244 360 q 967 19 1101 93 q 647 -56 833 -56 m 646 983 q 501 947 563 983 q 399 849 439 911 q 338 706 358 786 q 318 539 318 626 q 338 372 318 451 q 399 229 358 292 q 501 131 439 167 q 646 94 563 94 q 792 131 729 94 q 894 229 854 167 q 955 372 935 292 q 975 539 975 451 q 955 706 975 626 q 894 849 935 786 q 792 947 854 911 q 646 983 729 983 m 646 900 q 778 851 725 900 q 858 721 832 803 q 885 539 885 639 q 858 357 885 439 q 778 226 832 275 q 646 178 725 178 q 514 226 567 178 q 435 357 461 275 q 408 539 408 439 q 435 721 408 639 q 514 851 461 803 q 646 900 567 900 z "},"①":{"ha":1292,"x_min":47,"x_max":1244,"o":"m 647 -56 q 333 16 468 -56 q 122 220 197 88 q 47 538 47 353 q 119 847 47 714 q 326 1053 192 979 q 647 1128 461 1128 q 960 1056 826 1128 q 1169 853 1094 985 q 1244 538 1244 721 q 1173 226 1244 360 q 967 19 1101 93 q 647 -56 833 -56 m 671 97 q 703 110 690 97 q 715 142 715 124 l 732 939 q 719 971 733 958 q 686 983 706 983 q 647 963 661 983 q 532 801 592 878 q 408 657 472 724 q 399 628 399 646 q 411 597 399 610 q 442 585 424 585 q 475 599 461 585 q 640 799 561 693 l 643 939 l 722 915 q 640 799 682 856 l 626 142 q 639 110 625 124 q 671 97 653 97 z "},"②":{"ha":1292,"x_min":47,"x_max":1244,"o":"m 647 -56 q 333 16 468 -56 q 122 220 197 88 q 47 538 47 353 q 119 847 47 714 q 326 1053 192 979 q 647 1128 461 1128 q 960 1056 826 1128 q 1169 853 1094 985 q 1244 538 1244 721 q 1173 226 1244 360 q 967 19 1101 93 q 647 -56 833 -56 m 406 100 l 903 100 q 933 112 921 100 q 944 142 944 124 q 933 172 944 160 q 903 183 921 183 l 496 183 l 608 321 q 769 515 704 438 q 868 655 835 593 q 901 783 901 717 q 862 893 901 849 q 761 960 822 938 q 632 983 700 983 q 563 978 603 983 q 483 964 522 974 q 417 939 444 954 q 396 903 396 928 q 408 872 396 885 q 439 860 421 860 q 461 867 450 860 q 543 892 492 883 q 632 900 594 900 q 758 869 704 900 q 811 783 811 839 q 795 710 811 746 q 747 629 779 674 q 663 524 714 585 q 539 374 611 463 l 374 171 q 364 142 364 158 q 376 112 364 124 q 406 100 388 100 z "},"③":{"ha":1292,"x_min":47,"x_max":1244,"o":"m 647 -56 q 333 16 468 -56 q 122 220 197 88 q 47 538 47 353 q 119 847 47 714 q 326 1053 192 979 q 647 1128 461 1128 q 960 1056 826 1128 q 1169 853 1094 985 q 1244 538 1244 721 q 1173 226 1244 360 q 967 19 1101 93 q 647 -56 833 -56 m 485 554 q 497 524 485 536 q 525 513 508 513 q 754 476 678 513 q 833 349 831 439 q 803 247 835 285 q 722 194 772 210 q 614 178 671 178 q 538 185 575 178 q 469 204 500 193 q 456 206 465 206 q 426 194 438 206 q 414 164 414 182 q 422 139 414 150 q 442 124 431 128 q 522 103 478 113 q 614 94 567 94 q 724 108 668 94 q 825 151 779 121 q 898 231 871 182 q 922 351 925 281 q 875 488 919 436 q 751 565 831 540 q 849 642 813 593 q 882 772 885 690 q 840 890 881 843 q 738 960 800 936 q 610 983 676 983 q 540 976 575 983 q 475 957 504 968 q 449 918 449 947 q 460 888 449 900 q 490 876 472 876 q 506 879 500 876 q 556 894 529 889 q 610 900 583 900 q 735 867 681 900 q 793 769 790 835 q 762 672 796 706 q 666 623 728 639 q 521 596 604 607 q 495 583 506 594 q 485 554 485 571 m 671 585 q 751 565 715 578 q 712 550 733 557 q 668 538 690 543 l 671 585 z "},"④":{"ha":1292,"x_min":47,"x_max":1244,"o":"m 647 -56 q 333 16 468 -56 q 122 220 197 88 q 47 538 47 353 q 119 847 47 714 q 326 1053 192 979 q 647 1128 461 1128 q 960 1056 826 1128 q 1169 853 1094 985 q 1244 538 1244 721 q 1173 226 1244 360 q 967 19 1101 93 q 647 -56 833 -56 m 332 429 q 343 397 331 411 q 374 383 356 383 l 751 383 l 751 142 q 765 110 751 124 q 796 97 778 97 q 828 110 815 97 q 842 142 842 124 l 842 383 l 751 383 l 751 467 l 432 467 l 522 932 q 513 969 526 953 q 478 985 499 985 q 449 974 461 985 q 433 949 436 964 l 381 679 q 362 588 372 638 q 343 494 351 538 q 332 429 335 451 m 751 642 l 751 467 l 842 467 l 842 383 l 936 383 q 966 395 954 383 q 978 425 978 407 q 966 455 978 443 q 936 467 954 467 l 842 467 l 842 642 q 828 674 842 661 q 796 688 815 688 q 765 674 778 688 q 751 642 751 661 m 374 467 l 432 467 l 425 432 l 374 467 z "},"⑤":{"ha":1292,"x_min":47,"x_max":1244,"o":"m 647 -56 q 333 16 468 -56 q 122 220 197 88 q 47 538 47 353 q 119 847 47 714 q 326 1053 192 979 q 647 1128 461 1128 q 960 1056 826 1128 q 1169 853 1094 985 q 1244 538 1244 721 q 1173 226 1244 360 q 967 19 1101 93 q 647 -56 833 -56 m 504 581 l 446 617 q 473 622 458 619 q 504 628 488 625 l 504 893 l 458 893 l 504 935 l 504 893 l 851 893 q 881 905 869 893 q 893 935 893 917 q 881 965 893 953 q 851 976 869 976 l 456 976 q 426 965 438 976 q 414 935 414 953 l 414 576 q 430 544 414 557 q 465 536 446 531 q 553 552 504 544 q 654 560 603 560 q 772 534 731 560 q 831 466 814 508 q 849 375 849 424 q 829 276 849 321 q 763 203 810 231 q 633 176 717 176 q 472 203 533 176 q 464 206 468 206 q 456 206 460 206 q 426 194 439 206 q 414 164 414 182 q 442 125 414 135 q 531 101 481 110 q 633 93 581 93 q 814 134 747 93 q 910 240 881 175 q 939 375 939 304 q 912 503 939 442 q 823 603 885 564 q 654 643 761 643 q 576 639 615 643 q 504 628 538 635 l 504 581 z "},"⑥":{"ha":1292,"x_min":47,"x_max":1244,"o":"m 647 -56 q 333 16 468 -56 q 122 220 197 88 q 47 538 47 353 q 119 847 47 714 q 326 1053 192 979 q 647 1128 461 1128 q 960 1056 826 1128 q 1169 853 1094 985 q 1244 538 1244 721 q 1173 226 1244 360 q 967 19 1101 93 q 647 -56 833 -56 m 432 436 l 383 518 q 453 583 414 556 q 524 811 467 724 q 676 899 582 899 q 731 893 700 899 q 779 878 761 888 q 801 871 790 871 q 832 883 819 871 q 844 914 844 896 q 824 950 844 939 q 752 974 796 965 q 676 982 708 982 q 508 923 576 982 q 403 765 440 864 q 360 547 367 667 q 367 374 354 456 q 412 228 379 292 q 499 129 444 165 q 631 93 553 93 q 790 134 726 93 q 885 240 853 175 q 918 372 917 304 q 894 511 921 444 q 811 621 867 578 q 672 664 756 664 q 565 644 622 664 q 453 583 507 625 q 449 542 450 564 q 447 457 446 497 q 432 436 440 447 m 829 375 q 806 280 828 325 q 742 206 785 235 q 631 176 699 176 q 499 254 544 176 q 447 457 453 332 q 561 551 500 522 q 672 581 622 581 q 760 551 725 581 q 813 475 796 522 q 829 375 831 428 z "},"⑦":{"ha":1292,"x_min":47,"x_max":1244,"o":"m 647 -56 q 333 16 468 -56 q 122 220 197 88 q 47 538 47 353 q 119 847 47 714 q 326 1053 192 979 q 647 1128 461 1128 q 960 1056 826 1128 q 1169 853 1094 985 q 1244 538 1244 721 q 1173 226 1244 360 q 967 19 1101 93 q 647 -56 833 -56 m 508 90 q 549 117 536 90 l 718 476 l 835 476 q 865 488 853 476 q 876 518 876 500 q 865 548 876 536 q 835 560 853 560 l 757 560 l 917 897 q 927 923 925 915 q 929 936 929 931 q 917 965 929 954 q 888 976 906 976 l 413 976 q 383 965 394 976 q 371 935 371 953 q 383 905 371 917 q 413 893 394 893 l 818 893 l 661 560 l 501 560 q 472 548 483 560 q 460 518 460 536 q 472 488 460 500 q 501 476 483 476 l 621 476 l 468 153 q 464 135 464 143 q 477 103 464 117 q 508 90 490 90 z "},"⑧":{"ha":1292,"x_min":47,"x_max":1244,"o":"m 647 -56 q 333 16 468 -56 q 122 220 197 88 q 47 538 47 353 q 119 847 47 714 q 326 1053 192 979 q 647 1128 461 1128 q 960 1056 826 1128 q 1169 853 1094 985 q 1244 538 1244 721 q 1173 226 1244 360 q 967 19 1101 93 q 647 -56 833 -56 m 363 326 q 398 209 363 264 q 497 121 433 154 q 647 88 561 88 q 799 122 733 88 q 901 213 864 157 q 939 331 939 268 q 902 447 939 389 q 788 544 865 504 q 888 648 856 588 q 921 765 921 708 q 890 872 921 822 q 801 951 860 921 q 656 982 742 982 q 507 951 568 982 q 414 870 446 919 q 382 764 382 821 q 416 654 382 708 q 518 563 450 600 q 400 451 438 515 q 363 326 363 388 m 722 574 q 788 544 757 561 q 686 500 743 517 l 654 576 q 686 586 671 581 l 604 615 q 504 681 536 639 q 472 764 472 724 q 518 858 472 817 q 656 899 564 899 q 788 858 744 899 q 831 765 831 818 q 795 665 831 717 q 686 586 760 614 l 722 574 m 599 599 l 664 532 q 625 519 643 526 l 692 496 q 812 420 775 465 q 849 331 849 375 q 824 253 849 290 q 753 194 799 217 q 647 171 708 171 q 504 218 556 171 q 453 326 453 265 q 494 431 453 376 q 625 519 535 486 l 574 538 q 518 563 544 549 q 599 599 556 583 z "},"⑨":{"ha":1292,"x_min":47,"x_max":1244,"o":"m 647 -56 q 333 16 468 -56 q 122 220 197 88 q 47 538 47 353 q 119 847 47 714 q 326 1053 192 979 q 647 1128 461 1128 q 960 1056 826 1128 q 1169 853 1094 985 q 1244 538 1244 721 q 1173 226 1244 360 q 967 19 1101 93 q 647 -56 833 -56 m 817 669 l 869 596 q 788 528 836 556 l 768 140 q 780 108 767 122 q 813 93 793 93 q 844 105 831 93 q 857 135 857 117 l 890 778 q 857 891 894 846 q 760 960 819 936 q 638 983 701 983 q 480 946 542 983 q 389 850 418 908 q 360 729 360 792 q 388 609 360 667 q 469 514 415 551 q 599 476 522 476 q 696 489 647 476 q 788 528 744 501 l 794 642 q 817 669 807 654 m 801 783 l 794 642 q 703 580 756 600 q 599 560 651 560 q 518 584 551 560 q 467 647 485 608 q 450 729 450 686 q 469 813 450 774 q 531 876 489 851 q 638 900 572 900 q 754 869 704 900 q 801 783 804 839 z "},"⁄":{"ha":315,"x_min":-301,"x_max":617,"o":"m -264 -37 q -290 -26 -279 -37 q -301 0 -301 -15 q -293 22 -301 11 l 550 1036 q 579 1051 561 1051 q 606 1040 594 1051 q 617 1014 617 1029 q 608 992 617 1003 l -235 -22 q -264 -37 -246 -37 z "},"½":{"ha":667,"x_min":35,"x_max":632,"o":"m 376 678 q 350 690 361 678 q 339 715 339 701 l 347 1099 q 249 989 301 1042 q 222 978 238 978 q 197 988 207 978 q 186 1014 186 999 q 196 1039 186 1029 q 277 1128 238 1081 q 354 1228 317 1176 q 385 1246 365 1246 l 386 1246 l 388 1246 q 414 1235 403 1246 q 425 1208 425 1224 l 414 715 q 403 690 414 701 q 376 678 392 678 m 69 564 q 45 574 56 564 q 35 599 35 585 q 45 624 35 614 q 69 633 56 633 l 597 633 q 622 624 613 633 q 632 599 632 614 q 622 574 632 585 q 597 564 613 564 l 69 564 m 169 -50 q 165 -50 167 -50 q 133 -14 133 -47 q 142 11 133 1 l 253 124 q 360 235 321 192 q 415 310 399 279 q 431 372 431 342 q 397 420 431 403 q 319 438 364 438 q 261 433 294 438 q 208 417 228 428 q 190 411 200 411 q 165 422 176 411 q 154 447 154 433 q 172 478 154 467 q 245 500 200 493 q 319 507 290 507 q 409 492 367 507 q 479 447 451 476 q 507 372 507 417 q 487 288 507 329 q 424 197 467 247 q 308 74 381 146 l 254 19 l 500 19 q 525 10 515 19 q 535 -15 535 0 q 525 -40 535 -29 q 500 -50 515 -50 l 169 -50 z "},"¼":{"ha":667,"x_min":49,"x_max":646,"o":"m 404 678 q 378 690 389 678 q 367 715 367 701 l 375 1099 q 276 989 329 1042 q 250 978 265 978 q 224 988 235 978 q 214 1014 214 999 q 224 1039 214 1029 q 305 1128 265 1081 q 382 1228 344 1176 q 413 1246 393 1246 l 414 1246 l 415 1246 q 442 1235 431 1246 q 453 1208 453 1224 l 442 715 q 431 690 442 701 q 404 678 419 678 m 83 564 q 59 574 69 564 q 49 599 49 585 q 59 624 49 614 q 83 633 69 633 l 611 633 q 636 624 626 633 q 646 599 646 614 q 636 574 646 585 q 611 564 626 564 l 83 564 m 442 -58 q 415 -47 426 -58 q 404 -21 404 -36 l 404 110 l 176 110 q 171 110 174 110 q 167 111 169 110 q 164 113 165 111 q 144 128 151 117 q 139 154 136 140 l 206 479 q 219 501 208 492 q 243 510 229 510 q 272 496 261 510 q 281 465 283 482 l 222 179 l 404 179 l 404 292 q 415 319 404 307 q 442 331 426 331 q 469 319 457 331 q 481 292 481 307 l 481 179 l 549 179 q 574 169 564 179 q 583 144 583 160 q 574 120 583 131 q 549 110 564 110 l 481 110 l 481 -21 q 469 -47 481 -36 q 442 -58 457 -58 z "},"¾":{"ha":667,"x_min":49,"x_max":646,"o":"m 307 678 q 196 693 246 678 q 172 726 172 700 q 188 756 172 746 q 218 760 203 765 q 307 747 254 747 q 406 771 364 747 q 447 850 447 794 q 401 915 446 894 q 258 938 356 935 q 234 948 244 938 q 224 972 224 958 l 224 974 l 224 975 q 232 998 224 988 q 254 1010 240 1008 q 381 1039 336 1021 q 426 1111 426 1057 q 392 1160 425 1143 q 313 1176 358 1176 q 280 1174 296 1176 q 250 1167 264 1172 q 218 1171 233 1161 q 203 1199 203 1181 q 210 1220 203 1211 q 226 1232 217 1229 q 313 1246 268 1246 q 401 1231 358 1246 q 473 1187 444 1217 q 501 1111 501 1157 q 481 1030 503 1061 q 422 981 458 999 q 495 931 468 963 q 522 850 522 899 q 490 748 524 786 q 407 694 457 710 q 307 678 357 678 m 83 564 q 59 574 69 564 q 49 599 49 585 q 59 624 49 614 q 83 633 69 633 l 611 633 q 636 624 626 633 q 646 599 646 614 q 636 574 646 585 q 611 564 626 564 l 83 564 m 428 -58 q 401 -47 413 -58 q 390 -21 390 -36 l 390 110 l 163 110 q 157 110 160 110 q 153 111 156 110 q 150 113 151 111 q 130 128 138 117 q 125 154 122 140 l 192 479 q 205 501 194 492 q 229 510 215 510 q 258 496 247 510 q 267 465 269 482 l 208 179 l 390 179 l 390 292 q 401 319 390 307 q 428 331 413 331 q 455 319 443 331 q 467 292 467 307 l 467 179 l 535 179 q 560 169 550 179 q 569 144 569 160 q 560 120 569 131 q 535 110 550 110 l 467 110 l 467 -21 q 455 -47 467 -36 q 428 -58 443 -58 z "},"⅛":{"ha":667,"x_min":35,"x_max":632,"o":"m 390 678 q 364 690 375 678 q 353 715 353 701 l 361 1099 q 263 989 315 1042 q 236 978 251 978 q 210 988 221 978 q 200 1014 200 999 q 210 1039 200 1029 q 291 1128 251 1081 q 368 1228 331 1176 q 399 1246 379 1246 l 400 1246 l 401 1246 q 428 1235 417 1246 q 439 1208 439 1224 l 428 715 q 417 690 428 701 q 390 678 406 678 m 69 564 q 45 574 56 564 q 35 599 35 585 q 45 624 35 614 q 69 633 56 633 l 597 633 q 622 624 613 633 q 632 599 632 614 q 622 574 632 585 q 597 564 613 564 l 69 564 m 332 -58 q 188 -12 243 -58 q 133 97 133 35 q 156 173 133 135 q 229 239 179 211 q 167 297 188 264 q 146 364 146 329 q 196 464 146 419 q 336 508 246 508 q 474 465 426 508 q 522 365 522 421 q 501 294 522 329 q 439 233 481 260 q 510 171 488 207 q 533 99 533 135 q 508 22 533 58 q 436 -36 482 -14 q 332 -58 390 -58 m 303 282 q 328 274 313 278 q 351 268 343 269 q 418 308 390 283 q 446 365 446 332 q 419 416 446 393 q 336 439 393 439 q 251 415 279 439 q 222 364 222 392 q 242 319 222 342 q 303 282 261 296 m 210 97 q 242 38 210 64 q 332 11 274 11 q 423 39 389 11 q 457 99 457 67 q 435 151 457 124 q 360 194 413 178 q 342 199 353 197 q 321 204 331 201 q 241 159 272 186 q 210 97 210 132 z "},"⅜":{"ha":667,"x_min":35,"x_max":632,"o":"m 293 678 q 182 693 232 678 q 158 726 158 700 q 174 756 158 746 q 204 760 189 765 q 293 747 240 747 q 392 771 350 747 q 433 850 433 794 q 387 915 432 894 q 244 938 342 935 q 220 948 231 938 q 210 972 210 958 l 210 974 l 210 975 q 218 998 210 988 q 240 1010 226 1008 q 367 1039 322 1021 q 413 1111 413 1057 q 378 1160 411 1143 q 299 1176 344 1176 q 266 1174 282 1176 q 236 1167 250 1172 q 204 1171 219 1161 q 189 1199 189 1181 q 196 1220 189 1211 q 213 1232 203 1229 q 299 1246 254 1246 q 388 1231 344 1246 q 459 1187 431 1217 q 488 1111 488 1157 q 467 1030 489 1061 q 408 981 444 999 q 481 931 454 963 q 508 850 508 899 q 476 748 510 786 q 393 694 443 710 q 293 678 343 678 m 69 564 q 45 574 56 564 q 35 599 35 585 q 45 624 35 614 q 69 633 56 633 l 597 633 q 622 624 613 633 q 632 599 632 614 q 622 574 632 585 q 597 564 613 564 l 69 564 m 332 -58 q 188 -12 243 -58 q 133 97 133 35 q 156 173 133 135 q 229 239 179 211 q 167 297 188 264 q 146 364 146 329 q 196 464 146 419 q 336 508 246 508 q 474 465 426 508 q 522 365 522 421 q 501 294 522 329 q 439 233 481 260 q 510 171 488 207 q 533 99 533 135 q 508 22 533 58 q 436 -36 482 -14 q 332 -58 390 -58 m 303 282 q 328 274 313 278 q 351 268 343 269 q 418 308 390 283 q 446 365 446 332 q 419 416 446 393 q 336 439 393 439 q 251 415 279 439 q 222 364 222 392 q 242 319 222 342 q 303 282 261 296 m 210 97 q 242 38 210 64 q 332 11 274 11 q 423 39 389 11 q 457 99 457 67 q 435 151 457 124 q 360 194 413 178 q 342 199 353 197 q 321 204 331 201 q 241 159 272 186 q 210 97 210 132 z "},"⅝":{"ha":667,"x_min":35,"x_max":632,"o":"m 317 678 q 226 687 269 678 q 156 711 183 696 q 139 742 139 722 q 150 767 139 757 q 175 778 161 778 q 194 772 186 778 q 317 747 235 747 q 424 781 396 747 q 453 863 453 815 q 427 938 453 907 q 331 969 401 969 q 229 959 276 969 q 163 944 182 949 l 163 1238 l 488 1238 q 513 1228 503 1238 q 522 1203 522 1218 q 513 1178 522 1189 q 488 1168 503 1168 l 239 1168 l 239 1031 q 283 1036 258 1033 q 331 1039 307 1039 q 448 1013 404 1039 q 510 947 492 988 q 529 863 529 907 q 509 776 529 818 q 443 706 489 733 q 317 678 397 678 m 69 564 q 45 574 56 564 q 35 599 35 585 q 45 624 35 614 q 69 633 56 633 l 597 633 q 622 624 613 633 q 632 599 632 614 q 622 574 632 585 q 597 564 613 564 l 69 564 m 332 -58 q 188 -12 243 -58 q 133 97 133 35 q 156 173 133 135 q 229 239 179 211 q 167 297 188 264 q 146 364 146 329 q 196 464 146 419 q 336 508 246 508 q 474 465 426 508 q 522 365 522 421 q 501 294 522 329 q 439 233 481 260 q 510 171 488 207 q 533 99 533 135 q 508 22 533 58 q 436 -36 482 -14 q 332 -58 390 -58 m 303 282 q 328 274 313 278 q 351 268 343 269 q 418 308 390 283 q 446 365 446 332 q 419 416 446 393 q 336 439 393 439 q 251 415 279 439 q 222 364 222 392 q 242 319 222 342 q 303 282 261 296 m 210 97 q 242 38 210 64 q 332 11 274 11 q 423 39 389 11 q 457 99 457 67 q 435 151 457 124 q 360 194 413 178 q 342 199 353 197 q 321 204 331 201 q 241 159 272 186 q 210 97 210 132 z "},"⅞":{"ha":667,"x_min":35,"x_max":632,"o":"m 239 664 q 213 675 224 664 q 201 701 201 686 q 206 717 201 708 l 303 907 l 235 907 q 210 917 221 907 q 200 942 200 928 q 210 967 200 957 q 235 976 221 976 l 339 976 l 432 1157 l 175 1157 q 151 1167 161 1157 q 140 1192 140 1178 q 151 1217 140 1207 q 175 1226 161 1226 l 492 1226 q 517 1217 507 1226 q 526 1192 526 1207 l 526 1189 l 526 1188 q 522 1172 526 1181 l 421 976 l 457 976 q 482 967 472 976 q 492 942 492 957 q 482 917 492 928 q 457 907 472 907 l 386 907 l 272 686 q 239 664 263 664 m 69 564 q 45 574 56 564 q 35 599 35 585 q 45 624 35 614 q 69 633 56 633 l 597 633 q 622 624 613 633 q 632 599 632 614 q 622 574 632 585 q 597 564 613 564 l 69 564 m 332 -58 q 188 -12 243 -58 q 133 97 133 35 q 156 173 133 135 q 229 239 179 211 q 167 297 188 264 q 146 364 146 329 q 196 464 146 419 q 336 508 246 508 q 474 465 426 508 q 522 365 522 421 q 501 294 522 329 q 439 233 481 260 q 510 171 488 207 q 533 99 533 135 q 508 22 533 58 q 436 -36 482 -14 q 332 -58 390 -58 m 303 282 q 328 274 313 278 q 351 268 343 269 q 418 308 390 283 q 446 365 446 332 q 419 416 446 393 q 336 439 393 439 q 251 415 279 439 q 222 364 222 392 q 242 319 222 342 q 303 282 261 296 m 210 97 q 242 38 210 64 q 332 11 274 11 q 423 39 389 11 q 457 99 457 67 q 435 151 457 124 q 360 194 413 178 q 342 199 353 197 q 321 204 331 201 q 241 159 272 186 q 210 97 210 132 z "},"₀":{"ha":665,"x_min":106,"x_max":560,"o":"m 332 -58 q 205 -19 256 -58 q 130 85 154 21 q 106 226 106 150 q 130 367 106 303 q 205 470 154 431 q 332 510 256 510 q 460 470 410 510 q 535 367 510 431 q 560 226 560 303 q 535 85 560 150 q 460 -19 510 21 q 332 -58 410 -58 m 332 11 q 446 72 408 11 q 483 226 483 133 q 446 379 483 318 q 332 440 408 440 q 219 379 256 440 q 182 226 182 318 q 219 72 182 133 q 332 11 256 11 z "},"₁":{"ha":453,"x_min":85,"x_max":324,"o":"m 275 -58 q 249 -47 260 -58 q 238 -21 238 -35 l 246 363 q 147 253 200 306 q 121 242 136 242 q 95 252 106 242 q 85 278 85 263 q 94 303 85 293 q 176 392 136 344 q 253 492 215 440 q 283 510 264 510 l 285 510 l 286 510 q 313 499 301 510 q 324 472 324 488 l 313 -21 q 301 -47 313 -35 q 275 -58 290 -58 z "},"₂":{"ha":582,"x_min":86,"x_max":488,"o":"m 122 -50 q 118 -50 119 -50 q 86 -14 86 -47 q 94 11 86 1 l 206 124 q 313 235 274 192 q 367 310 351 279 q 383 372 383 342 q 350 420 383 403 q 272 438 317 438 q 214 433 247 438 q 161 417 181 428 q 143 411 153 411 q 118 422 129 411 q 107 447 107 433 q 125 478 107 467 q 198 500 153 493 q 272 507 243 507 q 362 492 319 507 q 432 447 404 476 q 460 372 460 417 q 440 288 460 329 q 376 197 419 247 q 261 74 333 146 l 207 19 l 453 19 q 478 10 468 19 q 488 -15 488 0 q 478 -40 488 -29 q 453 -50 468 -50 l 122 -50 z "},"₃":{"ha":532,"x_min":85,"x_max":436,"o":"m 219 -58 q 108 -43 158 -58 q 85 -10 85 -36 q 100 19 85 10 q 131 24 115 29 q 219 11 167 11 q 318 35 276 11 q 360 114 360 58 q 313 178 358 158 q 171 201 268 199 q 147 212 157 201 q 136 236 136 222 l 136 238 l 136 239 q 144 262 136 251 q 167 274 153 272 q 294 303 249 285 q 339 375 339 321 q 304 424 338 407 q 225 440 271 440 q 192 438 208 440 q 163 431 176 436 q 131 435 146 425 q 115 463 115 444 q 122 484 115 475 q 139 496 129 493 q 225 510 181 510 q 314 495 271 510 q 385 451 357 481 q 414 375 414 421 q 393 294 415 325 q 335 244 371 263 q 408 194 381 226 q 435 114 435 163 q 403 12 436 50 q 319 -42 369 -26 q 219 -58 269 -58 z "},"₄":{"ha":657,"x_min":90,"x_max":538,"o":"m 396 -58 q 369 -47 381 -58 q 358 -21 358 -36 l 358 110 l 131 110 q 125 110 128 110 q 121 111 124 110 q 118 113 119 111 q 98 128 106 117 q 93 154 90 140 l 160 479 q 173 501 163 492 q 197 510 183 510 q 226 496 215 510 q 235 465 238 482 l 176 179 l 358 179 l 358 292 q 369 319 358 307 q 396 331 381 331 q 423 319 411 331 q 435 292 435 307 l 435 179 l 503 179 q 528 169 518 179 q 538 144 538 160 q 528 120 538 131 q 503 110 518 110 l 435 110 l 435 -21 q 423 -47 435 -36 q 396 -58 411 -58 z "},"₅":{"ha":582,"x_min":94,"x_max":485,"o":"m 272 -58 q 182 -49 225 -58 q 111 -25 139 -40 q 94 6 94 -14 q 106 31 94 21 q 131 42 117 42 q 150 36 142 42 q 272 11 190 11 q 380 45 351 11 q 408 126 408 79 q 383 202 408 171 q 286 233 357 233 q 185 223 232 233 q 118 208 138 213 l 118 501 l 443 501 q 468 492 458 501 q 478 467 478 482 q 468 442 478 453 q 443 432 458 432 l 194 432 l 194 294 q 238 300 214 297 q 286 303 263 303 q 403 277 360 303 q 466 211 447 251 q 485 126 485 171 q 465 40 485 82 q 399 -31 444 -3 q 272 -58 353 -58 z "},"₆":{"ha":594,"x_min":103,"x_max":499,"o":"m 300 -58 q 186 -20 231 -58 q 122 83 142 18 q 107 226 103 149 q 133 363 110 299 q 203 468 157 428 q 321 508 250 508 q 372 503 342 508 q 421 490 403 499 q 439 458 439 481 q 429 434 439 444 q 404 424 419 424 q 388 426 396 424 q 356 436 375 433 q 321 439 338 439 q 229 389 264 439 q 185 261 194 339 q 322 307 251 307 q 419 279 381 307 q 478 209 458 251 q 497 122 499 167 q 476 36 497 78 q 410 -32 454 -6 q 300 -58 367 -58 m 322 238 q 251 219 289 238 q 183 160 214 200 q 219 52 190 93 q 300 11 249 11 q 392 45 363 11 q 422 122 421 79 q 397 201 422 165 q 322 238 371 238 z "},"₇":{"ha":561,"x_min":88,"x_max":474,"o":"m 186 -58 q 160 -47 171 -58 q 149 -21 149 -36 q 153 -6 149 -14 l 250 185 l 182 185 q 158 195 168 185 q 147 219 147 206 q 158 244 147 235 q 182 254 168 254 l 286 254 l 379 435 l 122 435 q 98 445 108 435 q 88 469 88 456 q 98 494 88 485 q 122 504 108 504 l 439 504 q 464 494 454 504 q 474 469 474 485 l 474 467 l 474 465 q 469 450 474 458 l 368 254 l 404 254 q 429 244 419 254 q 439 219 439 235 q 429 195 439 206 q 404 185 419 185 l 333 185 l 219 -36 q 186 -58 210 -58 z "},"₈":{"ha":597,"x_min":99,"x_max":499,"o":"m 297 -58 q 153 -12 208 -58 q 99 97 99 35 q 122 173 99 135 q 194 239 144 211 q 132 297 153 264 q 111 364 111 329 q 161 464 111 419 q 301 508 211 508 q 440 465 392 508 q 488 365 488 421 q 467 294 488 329 q 404 233 446 260 q 476 171 453 207 q 499 99 499 135 q 473 22 499 58 q 401 -36 447 -14 q 297 -58 356 -58 m 268 282 q 293 274 278 278 q 317 268 308 269 q 383 308 356 283 q 411 365 411 332 q 385 416 411 393 q 301 439 358 439 q 216 415 244 439 q 188 364 188 392 q 207 319 188 342 q 268 282 226 296 m 175 97 q 207 38 175 64 q 297 11 239 11 q 388 39 354 11 q 422 99 422 67 q 400 151 422 124 q 325 194 378 178 q 307 199 318 197 q 286 204 296 201 q 206 159 238 186 q 175 97 175 132 z "},"₉":{"ha":581,"x_min":96,"x_max":469,"o":"m 406 -58 q 378 -47 389 -58 q 368 -19 367 -35 l 381 204 q 263 176 324 176 q 172 201 210 176 q 115 264 135 225 q 96 343 96 303 q 117 423 96 385 q 181 485 138 461 q 289 510 224 510 q 375 494 333 510 q 443 449 417 479 q 465 374 469 419 l 443 -22 q 432 -47 443 -36 q 406 -58 421 -58 m 172 343 q 196 275 172 304 q 263 246 219 246 q 328 257 296 246 q 386 292 361 268 l 390 376 q 361 424 392 407 q 289 440 331 440 q 199 411 226 440 q 172 343 172 382 z "},"⁰":{"ha":665,"x_min":106,"x_max":560,"o":"m 332 497 q 205 537 256 497 q 130 641 154 576 q 106 782 106 706 q 130 922 106 858 q 205 1026 154 986 q 332 1065 256 1065 q 460 1026 410 1065 q 535 922 510 986 q 560 782 560 858 q 535 641 560 706 q 460 537 510 576 q 332 497 410 497 m 332 567 q 446 628 408 567 q 483 782 483 689 q 446 935 483 874 q 332 996 408 996 q 219 935 256 996 q 182 782 182 874 q 219 628 182 689 q 332 567 256 567 z "},"¹":{"ha":453,"x_min":85,"x_max":324,"o":"m 275 497 q 249 509 260 497 q 238 535 238 521 l 246 918 q 147 808 200 861 q 121 797 136 797 q 95 808 106 797 q 85 833 85 818 q 94 858 85 849 q 176 948 136 900 q 253 1047 215 996 q 283 1065 264 1065 l 285 1065 l 286 1065 q 313 1054 301 1065 q 324 1028 324 1043 l 313 535 q 301 509 313 521 q 275 497 290 497 z "},"²":{"ha":582,"x_min":86,"x_max":488,"o":"m 122 506 q 118 506 119 506 q 86 542 86 508 q 94 567 86 557 l 206 679 q 313 791 274 747 q 367 866 351 835 q 383 928 383 897 q 350 976 383 958 q 272 993 317 993 q 214 988 247 993 q 161 972 181 983 q 143 967 153 967 q 118 978 129 967 q 107 1003 107 989 q 125 1033 107 1022 q 198 1056 153 1049 q 272 1063 243 1063 q 362 1047 319 1063 q 432 1002 404 1032 q 460 928 460 972 q 440 844 460 885 q 376 752 419 803 q 261 629 333 701 l 207 575 l 453 575 q 478 565 468 575 q 488 540 488 556 q 478 516 488 526 q 453 506 468 506 l 122 506 z "},"³":{"ha":532,"x_min":85,"x_max":436,"o":"m 219 497 q 108 513 158 497 q 85 546 85 519 q 100 575 85 565 q 131 579 115 585 q 219 567 167 567 q 318 590 276 567 q 360 669 360 614 q 313 734 358 714 q 171 757 268 754 q 147 767 157 757 q 136 792 136 778 l 136 793 l 136 794 q 144 817 136 807 q 167 829 153 828 q 294 858 249 840 q 339 931 339 876 q 304 979 338 963 q 225 996 271 996 q 192 994 208 996 q 163 986 176 992 q 131 990 146 981 q 115 1018 115 1000 q 122 1040 115 1031 q 139 1051 129 1049 q 225 1065 181 1065 q 314 1051 271 1065 q 385 1006 357 1036 q 414 931 414 976 q 393 849 415 881 q 335 800 371 818 q 408 750 381 782 q 435 669 435 718 q 403 567 436 606 q 319 513 369 529 q 219 497 269 497 z "},"⁴":{"ha":657,"x_min":90,"x_max":538,"o":"m 396 497 q 369 508 381 497 q 358 535 358 519 l 358 665 l 131 665 q 125 665 128 665 q 121 667 124 665 q 118 668 119 667 q 98 684 106 672 q 93 710 90 696 l 160 1035 q 173 1056 163 1047 q 197 1065 183 1065 q 226 1051 215 1065 q 235 1021 238 1038 l 176 735 l 358 735 l 358 847 q 369 874 358 863 q 396 886 381 886 q 423 874 411 886 q 435 847 435 863 l 435 735 l 503 735 q 528 725 518 735 q 538 700 538 715 q 528 676 538 686 q 503 665 518 665 l 435 665 l 435 535 q 423 508 435 519 q 396 497 411 497 z "},"⁵":{"ha":582,"x_min":94,"x_max":485,"o":"m 272 497 q 182 506 225 497 q 111 531 139 515 q 94 561 94 542 q 106 587 94 576 q 131 597 117 597 q 150 592 142 597 q 272 567 190 567 q 380 601 351 567 q 408 682 408 635 q 383 758 408 726 q 286 789 357 789 q 185 778 232 789 q 118 764 138 768 l 118 1057 l 443 1057 q 468 1047 458 1057 q 478 1022 478 1038 q 468 998 478 1008 q 443 988 458 988 l 194 988 l 194 850 q 238 856 214 853 q 286 858 263 858 q 403 833 360 858 q 466 767 447 807 q 485 682 485 726 q 465 595 485 638 q 399 525 444 553 q 272 497 353 497 z "},"⁶":{"ha":594,"x_min":103,"x_max":499,"o":"m 300 497 q 186 535 231 497 q 122 639 142 574 q 107 782 103 704 q 133 919 110 854 q 203 1024 157 983 q 321 1064 250 1064 q 372 1059 342 1064 q 421 1046 403 1054 q 439 1014 439 1036 q 429 990 439 1000 q 404 979 419 979 q 388 982 396 979 q 356 992 375 989 q 321 994 338 994 q 229 944 264 994 q 185 817 194 894 q 322 863 251 863 q 419 835 381 863 q 478 765 458 807 q 497 678 499 722 q 476 592 497 633 q 410 524 454 550 q 300 497 367 497 m 322 793 q 251 774 289 793 q 183 715 214 756 q 219 608 190 649 q 300 567 249 567 q 392 601 363 567 q 422 678 421 635 q 397 757 422 721 q 322 793 371 793 z "},"⁷":{"ha":561,"x_min":88,"x_max":474,"o":"m 186 497 q 160 508 171 497 q 149 535 149 519 q 153 550 149 542 l 250 740 l 182 740 q 158 751 168 740 q 147 775 147 761 q 158 800 147 790 q 182 810 168 810 l 286 810 l 379 990 l 122 990 q 98 1001 108 990 q 88 1025 88 1011 q 98 1050 88 1040 q 122 1060 108 1060 l 439 1060 q 464 1050 454 1060 q 474 1025 474 1040 l 474 1022 l 474 1021 q 469 1006 474 1014 l 368 810 l 404 810 q 429 800 419 810 q 439 775 439 790 q 429 751 439 761 q 404 740 419 740 l 333 740 l 219 519 q 186 497 210 497 z "},"⁸":{"ha":597,"x_min":99,"x_max":499,"o":"m 297 497 q 153 544 208 497 q 99 653 99 590 q 122 728 99 690 q 194 794 144 767 q 132 852 153 819 q 111 919 111 885 q 161 1019 111 975 q 301 1064 211 1064 q 440 1020 392 1064 q 488 921 488 976 q 467 850 488 885 q 404 789 446 815 q 476 726 453 763 q 499 654 499 690 q 473 578 499 614 q 401 519 447 542 q 297 497 356 497 m 268 838 q 293 829 278 833 q 317 824 308 825 q 383 863 356 839 q 411 921 411 888 q 385 972 411 949 q 301 994 358 994 q 216 971 244 994 q 188 919 188 947 q 207 874 188 897 q 268 838 226 851 m 175 653 q 207 593 175 619 q 297 567 239 567 q 388 594 354 567 q 422 654 422 622 q 400 706 422 679 q 325 750 378 733 q 307 755 318 753 q 286 760 296 757 q 206 715 238 742 q 175 653 175 688 z "},"⁹":{"ha":581,"x_min":96,"x_max":469,"o":"m 406 497 q 378 509 389 497 q 368 536 367 521 l 381 760 q 263 732 324 732 q 172 756 210 732 q 115 819 135 781 q 96 899 96 858 q 117 978 96 940 q 181 1041 138 1017 q 289 1065 224 1065 q 375 1050 333 1065 q 443 1005 417 1035 q 465 929 469 975 l 443 533 q 432 508 443 519 q 406 497 421 497 m 172 899 q 196 831 172 860 q 263 801 219 801 q 328 813 296 801 q 386 847 361 824 l 390 932 q 361 979 392 963 q 289 996 331 996 q 199 967 226 996 q 172 899 172 938 z "}," ":{"ha":333,"x_min":0,"x_max":0,"o":""}," ":{"ha":333,"x_min":0,"x_max":0,"o":""}," ":{"ha":694,"x_min":0,"x_max":0,"o":""}," ":{"ha":1389,"x_min":0,"x_max":0,"o":""}," ":{"ha":694,"x_min":0,"x_max":0,"o":""}," ":{"ha":1389,"x_min":0,"x_max":0,"o":""}," ":{"ha":463,"x_min":0,"x_max":0,"o":""}," ":{"ha":347,"x_min":0,"x_max":0,"o":""}," ":{"ha":232,"x_min":0,"x_max":0,"o":""}," ":{"ha":763,"x_min":0,"x_max":0,"o":""}," ":{"ha":393,"x_min":0,"x_max":0,"o":""}," ":{"ha":278,"x_min":0,"x_max":0,"o":""}," ":{"ha":139,"x_min":0,"x_max":0,"o":""},"​":{"ha":0,"x_min":0,"x_max":0,"o":""},"\u0000":{"ha":0,"x_min":0,"x_max":0,"o":""},"\r":{"ha":333,"x_min":0,"x_max":0,"o":""}," ":{"ha":833,"x_min":0,"x_max":0,"o":""}," ":{"ha":833,"x_min":0,"x_max":0,"o":""},".":{"ha":393,"x_min":129,"x_max":264,"o":"m 197 -7 q 146 15 163 -7 q 129 72 129 38 q 146 129 129 107 q 197 151 163 151 q 247 129 229 151 q 264 72 264 107 q 247 15 264 38 q 197 -7 229 -7 z "},",":{"ha":422,"x_min":89,"x_max":315,"o":"m 132 -310 q 101 -297 114 -310 q 89 -267 89 -285 q 107 -232 89 -246 q 183 -149 157 -197 q 217 -49 210 -101 q 216 49 224 3 q 190 124 208 94 q 187 133 189 128 q 185 144 185 139 q 198 176 185 164 q 229 189 211 189 q 268 165 256 189 q 304 63 293 124 q 306 -63 315 3 q 262 -192 297 -129 q 157 -301 226 -254 q 132 -310 146 -310 z "},":":{"ha":357,"x_min":111,"x_max":246,"o":"m 179 431 q 128 453 144 431 q 111 510 111 475 q 128 567 111 544 q 179 589 144 589 q 228 567 211 589 q 246 510 246 544 q 228 453 246 475 q 179 431 211 431 m 179 -7 q 128 15 144 -7 q 111 72 111 38 q 128 129 111 107 q 179 151 144 151 q 228 129 211 151 q 246 72 246 107 q 228 15 246 38 q 179 -7 211 -7 z "},";":{"ha":414,"x_min":92,"x_max":318,"o":"m 221 361 q 169 383 186 361 q 153 440 153 406 q 169 497 153 475 q 221 519 186 519 q 270 497 253 519 q 288 440 288 475 q 270 383 288 406 q 221 361 253 361 m 135 -310 q 104 -297 117 -310 q 92 -267 92 -285 q 110 -232 92 -246 q 186 -149 160 -197 q 219 -49 213 -101 q 219 49 226 3 q 193 124 211 94 q 190 133 192 128 q 188 144 188 139 q 201 176 188 164 q 232 189 214 189 q 271 165 258 189 q 307 63 296 124 q 309 -63 318 3 q 265 -192 300 -129 q 160 -301 229 -254 q 135 -310 149 -310 z "},"…":{"ha":838,"x_min":129,"x_max":708,"o":"m 197 -7 q 146 15 163 -7 q 129 72 129 38 q 146 129 129 107 q 197 151 163 151 q 247 129 229 151 q 264 72 264 107 q 247 15 264 38 q 197 -7 229 -7 m 415 -7 q 364 15 381 -7 q 347 72 347 38 q 364 129 347 107 q 415 151 381 151 q 465 129 447 151 q 482 72 482 107 q 465 15 482 38 q 415 -7 447 -7 m 642 -7 q 590 15 607 -7 q 574 72 574 38 q 590 129 574 107 q 642 151 607 151 q 691 129 674 151 q 708 72 708 107 q 691 15 708 38 q 642 -7 674 -7 z "},"!":{"ha":314,"x_min":89,"x_max":224,"o":"m 172 1043 q 205 1030 192 1043 q 217 997 218 1017 l 199 328 q 186 297 199 310 q 154 285 174 285 q 122 298 136 285 q 110 331 108 311 l 128 1000 q 141 1031 128 1018 q 172 1043 154 1043 m 156 151 q 207 129 190 151 q 224 72 224 107 q 207 15 224 38 q 156 -7 190 -7 q 106 15 124 -7 q 89 72 89 38 q 106 129 89 107 q 156 151 124 151 z "},"¡":{"ha":314,"x_min":90,"x_max":225,"o":"m 158 636 q 107 658 124 636 q 90 715 90 681 q 107 772 90 750 q 158 794 124 794 q 208 772 190 794 q 225 715 225 750 q 208 658 225 681 q 158 636 190 636 m 142 -256 q 110 -242 124 -256 q 97 -210 96 -229 l 115 460 q 128 490 115 478 q 160 503 142 503 q 192 490 179 503 q 204 457 206 476 l 186 -212 q 174 -243 186 -231 q 142 -256 161 -256 z "},"?":{"ha":614,"x_min":67,"x_max":506,"o":"m 167 283 q 135 296 149 283 q 122 326 122 308 q 135 440 119 400 q 183 505 150 481 q 264 551 215 529 q 354 603 321 578 q 401 663 388 628 q 415 753 415 697 q 384 856 415 818 q 305 911 353 894 q 207 928 257 928 q 119 921 157 929 q 83 928 100 915 q 67 961 67 942 q 76 988 67 976 q 97 1001 85 999 q 191 1012 138 1011 q 299 1000 244 1013 q 401 958 354 988 q 476 878 447 928 q 506 753 506 828 q 484 627 506 676 q 417 543 463 578 q 303 476 372 508 q 244 443 264 458 q 217 403 224 428 q 211 329 210 378 q 199 297 213 310 q 167 283 186 283 m 168 -7 q 119 15 136 -7 q 101 72 101 38 q 119 129 101 107 q 168 151 136 151 q 219 129 203 151 q 236 72 236 107 q 219 15 236 38 q 168 -7 203 -7 z "},"¿":{"ha":615,"x_min":94,"x_max":525,"o":"m 446 636 q 394 658 411 636 q 378 715 378 681 q 394 772 378 750 q 446 794 411 794 q 495 772 478 794 q 513 715 513 750 q 495 658 513 681 q 446 636 478 636 m 493 -214 q 401 -224 453 -224 q 295 -212 349 -225 q 196 -169 242 -199 q 122 -90 150 -140 q 94 35 94 -40 q 119 162 94 113 q 190 246 143 211 q 306 311 238 281 q 367 344 346 329 q 395 385 388 360 q 403 460 403 411 q 416 492 403 479 q 447 506 429 506 q 480 492 467 506 q 493 460 493 479 q 476 347 493 388 q 425 283 458 307 q 342 236 392 258 q 249 184 283 210 q 199 124 214 158 q 185 35 185 90 q 215 -70 185 -32 q 291 -124 244 -108 q 387 -141 338 -140 q 474 -133 436 -142 q 509 -141 493 -128 q 525 -174 525 -154 q 516 -199 525 -187 q 493 -214 507 -211 z "},"·":{"ha":374,"x_min":131,"x_max":243,"o":"m 188 376 q 145 395 160 376 q 131 443 131 414 q 145 490 131 471 q 188 508 160 508 q 229 490 215 508 q 243 443 243 471 q 229 395 243 414 q 188 376 215 376 z "},"•":{"ha":424,"x_min":125,"x_max":300,"o":"m 210 350 q 149 374 172 350 q 125 442 125 399 q 148 508 125 482 q 210 533 171 533 q 274 508 249 533 q 300 442 300 482 q 275 376 300 403 q 210 350 250 350 z "},"*":{"ha":803,"x_min":97,"x_max":704,"o":"m 265 463 q 239 474 250 463 q 228 500 228 485 q 232 518 228 510 l 338 699 l 132 699 q 108 709 118 699 q 97 733 97 719 q 108 758 97 749 q 132 768 118 768 l 338 768 l 233 949 q 229 965 229 957 q 240 992 229 981 q 267 1003 251 1003 q 300 982 290 1003 l 400 807 l 503 983 q 536 1003 514 1003 q 563 992 551 1003 q 574 965 574 981 q 569 947 574 956 l 465 768 l 669 768 q 694 758 685 768 q 704 733 704 749 q 694 709 704 719 q 669 699 685 699 l 464 699 l 568 517 q 572 500 572 508 q 561 474 572 485 q 535 463 550 463 q 501 483 513 463 l 401 658 l 299 482 q 265 463 288 463 z "},"#":{"ha":1156,"x_min":129,"x_max":1026,"o":"m 364 -7 q 331 9 343 -7 q 319 43 318 25 l 356 339 l 171 339 q 141 351 153 339 q 129 381 129 363 q 141 410 129 399 q 171 422 153 422 l 367 422 l 390 617 l 171 617 q 141 628 153 617 q 129 658 129 640 q 141 688 129 676 q 171 700 153 700 l 401 700 l 440 1015 q 485 1054 444 1054 q 519 1039 506 1054 q 529 1004 532 1024 l 492 700 l 707 700 l 746 1015 q 790 1054 750 1054 q 824 1039 811 1054 q 835 1004 838 1024 l 797 700 l 985 700 q 1015 688 1003 700 q 1026 658 1026 676 q 1015 628 1026 640 q 985 617 1003 617 l 786 617 l 763 422 l 985 422 q 1015 410 1003 422 q 1026 381 1026 399 q 1015 351 1026 363 q 985 339 1003 339 l 751 339 l 714 32 q 669 -7 710 -7 q 636 9 649 -7 q 625 43 624 25 l 661 339 l 446 339 l 408 32 q 364 -7 404 -7 m 457 422 l 672 422 l 696 617 l 481 617 l 457 422 z "},"/":{"ha":635,"x_min":88,"x_max":547,"o":"m 132 -7 q 101 6 114 -7 q 88 38 88 19 q 90 53 88 44 l 461 1025 q 477 1045 465 1036 q 503 1054 489 1054 q 535 1042 522 1054 q 547 1010 547 1029 q 544 994 547 1003 l 174 22 q 158 2 169 11 q 132 -7 147 -7 z "},"\\":{"ha":599,"x_min":82,"x_max":517,"o":"m 467 -7 q 424 24 433 -7 l 89 996 q 96 1037 82 1019 q 132 1054 110 1054 q 175 1024 165 1054 l 510 51 q 503 11 517 29 q 467 -7 490 -7 z "},"-":{"ha":468,"x_min":51,"x_max":417,"o":"m 93 264 q 63 276 75 264 q 51 306 51 288 q 63 335 51 324 q 93 347 75 347 l 375 347 q 405 335 393 347 q 417 306 417 324 q 405 276 417 288 q 375 264 393 264 l 93 264 z "},"–":{"ha":746,"x_min":51,"x_max":694,"o":"m 93 264 q 63 276 75 264 q 51 306 51 288 q 63 335 51 324 q 93 347 75 347 l 653 347 q 683 335 671 347 q 694 306 694 324 q 683 276 694 288 q 653 264 671 264 l 93 264 z "},"—":{"ha":1056,"x_min":38,"x_max":1014,"o":"m 79 264 q 49 276 61 264 q 38 306 38 288 q 49 335 38 324 q 79 347 61 347 l 972 347 q 1002 335 990 347 q 1014 306 1014 324 q 1002 276 1014 288 q 972 264 990 264 l 79 264 z "},"_":{"ha":607,"x_min":51,"x_max":556,"o":"m 93 -131 q 63 -119 75 -131 q 51 -89 51 -107 q 63 -59 51 -71 q 93 -47 75 -47 l 514 -47 q 544 -59 532 -47 q 556 -89 556 -71 q 544 -119 556 -107 q 514 -131 532 -131 l 93 -131 z "},"(":{"ha":471,"x_min":103,"x_max":385,"o":"m 322 -24 q 288 -7 301 -24 q 149 240 194 108 q 103 507 103 372 q 154 794 103 651 q 307 1058 206 936 q 342 1075 321 1075 q 372 1063 360 1075 q 385 1032 385 1050 q 375 1004 385 1015 q 239 765 285 893 q 193 507 193 638 q 233 268 193 386 q 356 47 274 150 q 365 21 365 35 q 353 -10 365 3 q 322 -24 340 -24 z "},")":{"ha":471,"x_min":103,"x_max":385,"o":"m 165 -24 q 135 -10 147 -24 q 122 21 122 3 q 132 47 122 35 q 254 268 214 150 q 294 507 294 386 q 249 765 294 638 q 113 1004 203 893 q 103 1032 103 1015 q 115 1063 103 1050 q 146 1075 128 1075 q 181 1058 167 1075 q 333 794 282 936 q 385 507 385 651 q 340 240 385 372 q 200 -7 294 108 q 165 -24 186 -24 z "},"{":{"ha":439,"x_min":61,"x_max":353,"o":"m 307 -71 q 201 -28 235 -62 q 160 58 168 7 q 159 165 153 108 q 175 276 165 222 q 185 369 185 329 q 172 424 185 406 q 142 449 160 442 q 105 459 124 456 q 74 472 86 463 q 61 503 61 481 q 74 533 61 525 q 105 546 86 542 q 142 557 124 550 q 172 582 160 564 q 185 638 185 600 q 175 731 185 678 q 159 842 165 785 q 160 949 153 899 q 201 1033 168 999 q 307 1076 235 1068 q 339 1067 325 1079 q 353 1035 353 1054 q 343 1008 353 1019 q 318 993 333 996 q 253 952 267 985 q 245 869 239 919 q 263 760 251 819 q 275 638 275 700 q 210 507 275 551 q 257 453 239 489 q 275 369 275 418 q 263 247 275 307 q 245 136 251 186 q 253 53 239 86 q 318 13 267 21 q 343 -1 333 11 q 353 -29 353 -14 q 339 -60 353 -47 q 307 -71 325 -72 z "},"}":{"ha":439,"x_min":85,"x_max":376,"o":"m 131 -71 q 99 -60 113 -72 q 85 -29 85 -47 q 94 -1 85 -14 q 119 13 104 11 q 185 53 171 21 q 192 136 199 86 q 174 247 186 186 q 163 369 163 307 q 181 453 163 418 q 228 507 199 489 q 163 638 163 551 q 174 760 163 700 q 192 869 186 819 q 185 952 199 919 q 119 993 171 985 q 94 1008 104 996 q 85 1035 85 1019 q 99 1067 85 1054 q 131 1076 113 1079 q 236 1033 203 1068 q 277 949 269 999 q 278 842 285 899 q 263 731 272 785 q 253 638 253 678 q 265 582 253 600 q 297 557 278 564 q 333 546 315 550 q 364 533 351 542 q 376 503 376 525 q 364 472 376 481 q 333 459 351 463 q 297 449 315 456 q 265 424 278 442 q 253 369 253 406 q 263 276 253 329 q 278 165 272 222 q 277 58 285 108 q 236 -28 269 7 q 131 -71 203 -62 z "},"[":{"ha":553,"x_min":138,"x_max":415,"o":"m 182 0 q 151 13 164 0 q 138 44 138 26 l 138 1001 q 151 1034 138 1021 q 182 1047 164 1047 l 374 1047 q 403 1035 392 1047 q 415 1006 415 1024 q 403 976 415 988 q 374 964 392 964 l 228 964 l 228 83 l 374 83 q 403 72 392 83 q 415 42 415 60 q 403 12 415 24 q 374 0 392 0 l 182 0 z "},"]":{"ha":553,"x_min":136,"x_max":414,"o":"m 369 0 l 178 0 q 148 12 160 0 q 136 42 136 24 q 148 72 136 60 q 178 83 160 83 l 324 83 l 324 964 l 178 964 q 148 976 160 964 q 136 1006 136 988 q 148 1035 136 1024 q 178 1047 160 1047 l 369 1047 q 401 1034 389 1047 q 414 1001 414 1021 l 414 44 q 401 13 414 26 q 369 0 389 0 z "},"‚":{"ha":422,"x_min":89,"x_max":315,"o":"m 132 -310 q 101 -297 114 -310 q 89 -267 89 -285 q 107 -232 89 -246 q 183 -149 157 -197 q 217 -49 210 -101 q 216 49 224 3 q 190 124 208 94 q 187 133 189 128 q 185 144 185 139 q 198 176 185 164 q 229 189 211 189 q 268 165 256 189 q 304 63 293 124 q 306 -63 315 3 q 262 -192 297 -129 q 157 -301 226 -254 q 132 -310 146 -310 z "},"„":{"ha":643,"x_min":89,"x_max":536,"o":"m 353 -310 q 322 -297 335 -310 q 310 -267 310 -285 q 328 -232 310 -246 q 404 -149 378 -197 q 438 -49 431 -101 q 437 49 444 3 q 411 124 429 94 q 408 133 410 128 q 406 144 406 139 q 419 176 406 164 q 450 189 432 189 q 489 165 476 189 q 525 63 514 124 q 527 -63 536 3 q 483 -192 518 -129 q 378 -301 447 -254 q 353 -310 367 -310 m 132 -310 q 101 -297 114 -310 q 89 -267 89 -285 q 107 -232 89 -246 q 183 -149 157 -197 q 217 -49 210 -101 q 216 49 224 3 q 190 124 208 94 q 187 133 189 128 q 185 144 185 139 q 198 176 185 164 q 229 189 211 189 q 268 165 256 189 q 304 63 293 124 q 306 -63 315 3 q 262 -192 297 -129 q 157 -301 226 -254 q 132 -310 146 -310 z "},"“":{"ha":561,"x_min":178,"x_max":517,"o":"m 285 1054 q 317 1042 304 1054 q 329 1010 329 1029 q 326 994 329 1003 q 272 800 276 872 q 307 697 268 728 q 322 664 322 685 q 310 633 322 646 q 279 621 297 621 q 251 631 263 621 q 183 788 178 688 q 243 1025 188 889 q 285 1054 254 1054 m 472 1054 q 504 1042 492 1054 q 517 1010 517 1029 q 514 994 517 1003 q 460 800 464 872 q 494 697 456 728 q 510 664 510 685 q 497 633 510 646 q 467 621 485 621 q 439 631 450 621 q 370 788 365 688 q 431 1025 375 889 q 472 1054 442 1054 z "},"”":{"ha":558,"x_min":42,"x_max":381,"o":"m 274 622 q 242 635 256 622 q 229 667 229 649 q 232 682 229 674 q 286 876 282 804 q 251 979 290 949 q 236 1013 236 992 q 249 1043 236 1031 q 279 1056 261 1056 q 307 1046 296 1056 q 376 888 381 989 q 315 651 372 788 q 274 622 304 622 m 86 622 q 55 635 68 622 q 42 667 42 649 q 44 682 42 674 q 99 876 94 804 q 64 979 103 949 q 49 1013 49 992 q 61 1043 49 1031 q 92 1056 74 1056 q 119 1046 108 1056 q 189 888 193 989 q 128 651 185 788 q 86 622 117 622 z "},"‘":{"ha":374,"x_min":178,"x_max":329,"o":"m 285 1054 q 317 1042 304 1054 q 329 1010 329 1029 q 326 994 329 1003 q 272 800 276 872 q 307 697 268 728 q 322 664 322 685 q 310 633 322 646 q 279 621 297 621 q 251 631 263 621 q 183 788 178 688 q 243 1025 188 889 q 285 1054 254 1054 z "},"’":{"ha":231,"x_min":42,"x_max":193,"o":"m 86 622 q 55 635 68 622 q 42 667 42 649 q 44 682 42 674 q 99 876 94 804 q 64 979 103 949 q 49 1013 49 992 q 61 1043 49 1031 q 92 1056 74 1056 q 119 1046 108 1056 q 189 888 193 989 q 128 651 185 788 q 86 622 117 622 z "},"«":{"ha":819,"x_min":88,"x_max":726,"o":"m 683 -1 q 653 11 665 -1 l 378 261 q 365 292 365 274 q 378 322 365 310 l 653 572 q 683 585 665 585 q 714 572 701 585 q 726 542 726 560 q 714 511 726 524 l 472 292 l 714 72 q 726 42 726 60 q 714 11 726 24 q 683 -1 701 -1 m 406 -1 q 375 11 388 -1 l 100 261 q 88 292 88 274 q 100 322 88 310 l 375 572 q 406 585 388 585 q 436 572 424 585 q 449 542 449 560 q 436 511 449 524 l 194 292 l 436 72 q 449 42 449 60 q 436 11 449 24 q 406 -1 424 -1 z "},"»":{"ha":819,"x_min":88,"x_max":726,"o":"m 131 -1 q 100 11 113 -1 q 88 42 88 24 q 100 72 88 60 l 342 292 l 100 511 q 88 542 88 524 q 100 572 88 560 q 131 585 113 585 q 161 572 149 585 l 436 322 q 449 292 449 310 q 436 261 449 274 l 161 11 q 131 -1 149 -1 m 408 -1 q 378 11 390 -1 q 365 42 365 24 q 378 72 365 60 l 619 292 l 378 511 q 365 542 365 524 q 378 572 365 560 q 408 585 390 585 q 439 572 426 585 l 714 322 q 726 292 726 310 q 714 261 726 274 l 439 11 q 408 -1 426 -1 z "},"‹":{"ha":542,"x_min":88,"x_max":449,"o":"m 406 -1 q 375 11 388 -1 l 100 261 q 88 292 88 274 q 100 322 88 310 l 375 572 q 406 585 388 585 q 436 572 424 585 q 449 542 449 560 q 436 511 449 524 l 194 292 l 436 72 q 449 42 449 60 q 436 11 449 24 q 406 -1 424 -1 z "},"›":{"ha":542,"x_min":88,"x_max":449,"o":"m 131 -1 q 100 11 113 -1 q 88 42 88 24 q 100 72 88 60 l 342 292 l 100 511 q 88 542 88 524 q 100 572 88 560 q 131 585 113 585 q 161 572 149 585 l 436 322 q 449 292 449 310 q 436 261 449 274 l 161 11 q 131 -1 149 -1 z "},"\"":{"ha":586,"x_min":42,"x_max":408,"o":"m 301 622 q 270 635 283 622 q 257 667 257 649 q 260 682 257 674 q 314 876 310 804 q 279 979 318 949 q 264 1013 264 992 q 276 1043 264 1031 q 307 1056 289 1056 q 335 1046 324 1056 q 404 888 408 989 q 343 651 400 788 q 301 622 332 622 m 86 622 q 55 635 68 622 q 42 667 42 649 q 44 682 42 674 q 99 876 94 804 q 64 979 103 949 q 49 1013 49 992 q 61 1043 49 1031 q 92 1056 74 1056 q 119 1046 108 1056 q 189 888 193 989 q 128 651 185 788 q 86 622 117 622 z "},"'":{"ha":371,"x_min":42,"x_max":193,"o":"m 86 622 q 55 635 68 622 q 42 667 42 649 q 44 682 42 674 q 99 876 94 804 q 64 979 103 949 q 49 1013 49 992 q 61 1043 49 1031 q 92 1056 74 1056 q 119 1046 108 1056 q 189 888 193 989 q 128 651 185 788 q 86 622 117 622 z "},"฿":{"ha":789,"x_min":158,"x_max":733,"o":"m 158 0 l 179 1076 l 363 1076 l 365 1164 q 376 1190 365 1179 q 403 1201 388 1201 q 429 1190 418 1201 q 440 1164 440 1179 l 438 1076 l 453 1076 q 522 1072 481 1076 q 606 1046 564 1067 q 676 979 647 1025 q 704 853 704 933 q 660 683 704 750 q 540 576 615 615 q 685 508 636 557 q 733 354 733 458 q 688 175 733 246 q 568 65 643 104 q 403 11 493 26 l 399 -139 q 388 -165 399 -153 q 361 -176 376 -176 q 335 -165 346 -176 q 324 -139 324 -153 l 328 3 q 260 0 294 0 l 158 0 m 268 993 l 260 596 q 347 603 307 597 l 360 993 l 268 993 m 453 993 l 435 993 l 422 618 q 563 699 513 643 q 614 853 614 756 q 588 950 614 921 q 526 986 563 979 q 453 993 489 993 m 260 83 q 331 86 297 83 l 344 513 q 303 514 325 514 q 258 514 282 514 l 250 83 l 260 83 m 643 354 q 622 443 643 411 q 551 490 600 475 q 419 510 503 506 l 406 96 q 576 176 510 115 q 643 354 643 236 z "},"★":{"ha":1176,"x_min":4,"x_max":1172,"o":"m 199 0 l 356 431 l 4 674 l 443 674 l 588 1071 l 733 674 l 1172 674 l 822 431 l 978 3 l 589 271 l 199 0 z "},"☆":{"ha":1176,"x_min":7,"x_max":1169,"o":"m 229 -1 q 192 19 204 -1 q 186 57 179 39 l 321 424 l 25 626 q 7 661 7 640 q 19 692 7 679 q 50 704 32 704 l 422 704 l 544 1042 q 588 1072 556 1072 q 631 1042 619 1072 l 753 704 l 1128 704 q 1158 692 1146 704 q 1169 663 1169 681 q 1151 628 1169 640 l 856 429 l 992 58 q 986 20 999 40 q 949 0 974 0 q 924 8 935 0 l 589 240 l 256 7 q 229 -1 243 -1 m 589 343 l 861 156 l 750 460 l 989 621 l 689 621 l 588 897 l 486 621 l 185 621 l 426 454 l 318 156 l 589 343 z "},"@":{"ha":1276,"x_min":86,"x_max":1178,"o":"m 599 -7 q 488 22 540 -7 q 402 117 435 51 q 369 292 369 183 q 407 461 369 396 q 510 558 444 526 q 660 589 575 589 q 726 585 688 589 q 797 575 764 582 q 803 574 800 574 q 826 557 817 569 q 836 529 836 544 l 836 246 l 836 243 l 836 240 q 862 120 836 163 q 925 71 888 78 q 999 93 963 64 q 1062 188 1036 122 q 1088 354 1088 253 q 1038 562 1088 469 q 897 708 989 654 q 672 761 804 761 q 457 715 550 761 q 301 590 364 668 q 207 418 239 513 q 175 228 175 324 q 224 19 175 111 q 367 -127 274 -74 q 590 -181 460 -181 q 710 -167 656 -181 q 813 -129 765 -154 q 833 -122 824 -122 q 864 -135 851 -122 q 876 -165 876 -147 q 854 -201 876 -189 q 734 -247 801 -231 q 590 -264 667 -264 q 377 -226 471 -264 q 219 -120 283 -187 q 120 35 154 -53 q 86 225 86 124 q 124 446 86 336 q 235 646 161 556 q 418 790 308 736 q 672 844 528 844 q 944 778 832 844 q 1117 601 1057 713 q 1178 354 1178 490 q 1147 159 1178 238 q 1067 38 1115 81 q 963 -13 1018 -6 q 858 5 907 -21 q 778 89 808 31 q 697 18 744 43 q 599 -7 650 -7 m 460 292 q 479 163 460 210 q 531 96 499 115 q 599 76 563 76 q 692 121 647 76 q 746 254 736 165 l 746 500 q 660 506 700 506 q 513 457 567 506 q 460 292 460 408 z "},"&":{"ha":1232,"x_min":94,"x_max":1147,"o":"m 424 -7 q 238 34 311 -7 q 130 140 165 75 q 94 276 94 206 q 144 450 94 378 q 285 563 193 522 q 190 642 229 590 q 150 775 150 693 q 190 910 150 846 q 306 1015 229 975 q 497 1056 383 1056 q 603 1048 546 1056 q 724 1025 661 1040 q 745 1011 736 1022 q 754 985 754 1000 q 738 952 754 965 q 701 944 721 939 q 592 966 642 960 q 497 972 542 972 q 354 944 411 972 q 269 870 297 915 q 240 775 240 825 q 274 676 240 713 q 356 624 307 639 q 451 608 404 608 l 738 608 l 738 750 q 751 782 738 769 q 782 794 764 794 q 815 782 801 794 q 828 750 828 769 l 828 608 l 1011 608 q 1041 597 1029 608 q 1053 567 1053 585 q 1041 537 1053 549 q 1011 525 1029 525 l 828 525 l 828 524 q 834 294 828 382 q 858 158 840 206 q 906 94 875 111 q 985 76 936 76 q 1042 83 1021 76 q 1079 99 1064 89 q 1104 107 1092 107 q 1135 94 1122 107 q 1147 64 1147 82 q 1129 29 1147 42 q 1068 3 1103 13 q 985 -7 1033 -7 q 833 39 885 -7 q 760 197 781 85 q 610 40 701 88 q 424 -7 519 -7 m 185 276 q 210 178 185 224 q 288 104 235 132 q 424 76 340 76 q 533 95 478 76 q 635 157 589 114 q 709 271 681 200 q 738 447 738 342 l 738 525 l 572 525 q 282 467 379 532 q 185 276 185 401 z "},"¶":{"ha":963,"x_min":188,"x_max":797,"o":"m 549 -492 q 517 -478 531 -492 q 503 -446 503 -464 l 514 8 q 433 -7 474 -7 q 315 24 371 -7 q 223 126 258 56 q 188 313 188 196 q 227 494 188 424 q 338 597 267 564 q 499 631 408 631 q 555 628 524 631 q 617 621 586 626 l 594 -446 q 581 -478 594 -464 q 549 -492 568 -492 m 729 -492 q 697 -478 711 -492 q 683 -446 683 -464 l 706 576 q 719 609 706 596 q 751 622 733 622 q 784 609 771 622 q 797 576 797 596 l 775 -446 q 762 -478 775 -464 q 729 -492 749 -492 z "},"§":{"ha":843,"x_min":94,"x_max":753,"o":"m 396 -10 q 261 9 326 -10 q 153 69 196 28 q 108 181 111 111 q 123 253 107 218 q 174 315 139 288 q 201 325 185 325 q 232 313 219 325 q 244 282 244 300 q 229 249 244 261 q 206 219 215 238 q 197 183 197 200 q 256 99 200 124 q 396 74 313 74 q 559 116 508 74 q 607 210 610 158 q 587 262 607 236 q 519 311 567 288 q 385 354 471 335 q 288 378 338 365 q 196 413 238 390 q 127 475 154 436 q 97 578 100 514 q 124 683 94 636 q 200 761 153 729 q 176 856 178 801 q 213 964 175 917 q 317 1037 251 1011 q 465 1060 383 1063 q 628 1017 546 1057 q 650 979 650 1006 q 638 949 650 961 q 608 938 626 938 q 589 942 597 938 q 468 976 526 972 q 364 964 410 979 q 291 920 318 949 q 265 858 264 892 q 294 778 268 806 q 365 735 319 750 q 469 708 410 721 q 563 682 514 697 q 653 641 611 667 q 722 572 694 615 q 750 463 749 529 q 733 356 753 399 q 678 282 714 313 q 696 213 696 250 q 666 104 699 156 q 566 22 633 53 q 396 -10 499 -10 m 404 435 q 533 396 479 418 q 621 347 586 374 q 661 460 663 383 q 631 549 660 518 q 555 597 603 581 q 447 628 507 614 q 348 653 399 638 q 257 697 297 668 q 205 647 225 678 q 186 581 185 615 q 216 504 189 531 q 292 463 243 478 q 404 435 340 449 z "},"©":{"ha":907,"x_min":101,"x_max":807,"o":"m 449 353 q 272 400 351 353 q 147 526 193 447 q 103 700 101 604 q 153 875 104 796 q 281 1001 201 954 q 458 1049 361 1049 q 636 1001 557 1049 q 761 876 715 954 q 804 700 807 797 q 755 526 803 606 q 626 400 707 447 q 449 353 546 353 m 449 422 q 587 460 524 422 q 689 560 650 497 q 729 700 728 624 q 694 841 731 778 q 596 942 657 904 q 458 979 535 979 q 320 942 383 979 q 218 841 257 904 q 178 700 179 778 q 214 560 178 624 q 312 460 250 497 q 449 422 374 422 m 443 488 q 319 547 363 488 q 275 692 275 606 q 322 865 275 806 q 472 924 369 924 q 517 919 500 924 q 557 908 535 914 q 586 871 586 901 q 570 840 586 851 q 538 833 554 829 q 497 844 507 840 q 472 847 488 847 q 385 813 411 847 q 358 692 358 778 q 381 598 358 632 q 443 564 403 564 q 494 574 471 564 q 531 596 517 583 q 558 607 542 607 q 587 595 575 607 q 599 567 599 583 q 586 538 599 550 q 528 503 565 519 q 443 488 490 488 z "},"®":{"ha":907,"x_min":101,"x_max":807,"o":"m 449 353 q 272 400 351 353 q 147 526 193 447 q 103 700 101 604 q 153 875 104 796 q 281 1001 201 954 q 458 1049 361 1049 q 636 1001 557 1049 q 761 876 715 954 q 804 700 807 797 q 755 526 803 606 q 626 400 707 447 q 449 353 546 353 m 449 422 q 587 460 524 422 q 689 560 650 497 q 729 700 728 624 q 694 841 731 778 q 596 942 657 904 q 458 979 535 979 q 320 942 383 979 q 218 841 257 904 q 178 700 179 778 q 214 560 178 624 q 312 460 250 497 q 449 422 374 422 m 346 489 q 319 501 331 489 q 308 526 308 513 l 319 914 l 472 914 q 584 888 543 914 q 625 813 625 861 q 588 727 625 763 q 483 676 551 692 l 599 551 q 607 528 607 542 q 597 502 607 513 q 571 492 586 492 q 543 504 554 492 l 394 664 l 388 664 l 383 526 q 372 501 383 513 q 346 489 361 489 m 394 844 l 390 733 q 511 760 474 738 q 549 813 549 782 q 531 837 549 829 q 472 844 513 844 l 394 844 z "},"™":{"ha":1304,"x_min":42,"x_max":1154,"o":"m 579 449 q 551 461 563 449 q 542 489 540 474 l 578 981 q 615 1015 581 1015 q 650 994 640 1015 l 847 615 l 1058 994 q 1092 1015 1069 1015 q 1117 1005 1107 1015 q 1129 979 1128 994 l 1153 488 q 1143 460 1154 472 q 1115 449 1132 449 q 1090 460 1100 449 q 1078 485 1079 471 l 1061 844 l 883 526 q 870 512 879 518 q 847 506 861 506 q 824 512 833 506 q 810 526 814 518 l 643 846 l 617 483 q 579 449 614 449 m 278 449 q 251 460 263 449 q 240 486 240 472 l 247 939 l 76 939 q 52 949 63 939 q 42 974 42 960 q 52 999 42 989 q 76 1008 63 1008 l 481 1008 q 506 999 496 1008 q 515 974 515 989 q 506 949 515 960 q 481 939 496 939 l 324 939 l 315 486 q 304 460 315 472 q 278 449 293 449 z "},"°":{"ha":624,"x_min":110,"x_max":514,"o":"m 311 567 q 199 597 244 567 q 132 678 154 628 q 110 788 110 728 q 132 896 110 846 q 199 976 154 946 q 311 1007 244 1007 q 424 976 379 1007 q 491 896 468 946 q 514 788 514 846 q 491 678 514 728 q 424 597 468 628 q 311 567 379 567 m 311 636 q 407 679 376 636 q 438 788 438 722 q 406 894 438 851 q 311 938 375 938 q 217 894 247 938 q 186 788 186 851 q 217 679 186 722 q 311 636 247 636 z "},"|":{"ha":365,"x_min":129,"x_max":236,"o":"m 174 -183 q 142 -170 156 -183 q 129 -139 129 -157 l 147 1111 q 160 1142 147 1129 q 192 1156 174 1156 q 224 1142 211 1156 q 236 1111 236 1129 l 218 -139 q 206 -170 218 -157 q 174 -183 193 -183 z "},"¦":{"ha":365,"x_min":129,"x_max":236,"o":"m 185 619 q 153 633 167 619 q 140 665 140 647 l 147 1111 q 160 1142 147 1129 q 192 1156 174 1156 q 224 1142 211 1156 q 236 1111 236 1129 l 231 664 q 217 633 231 646 q 185 619 204 619 m 174 -183 q 142 -170 156 -183 q 129 -139 129 -157 l 135 306 q 149 337 135 324 q 181 350 163 350 q 213 337 200 350 q 225 304 225 324 l 218 -139 q 206 -170 218 -157 q 174 -183 193 -183 z "},"†":{"ha":682,"x_min":97,"x_max":583,"o":"m 314 364 q 286 376 297 364 q 276 404 275 389 l 299 699 l 132 699 q 108 709 118 699 q 97 733 97 719 q 108 758 97 749 q 132 768 118 768 l 304 768 l 321 989 q 358 1024 324 1024 q 386 1011 375 1024 q 396 983 397 999 l 379 768 l 549 768 q 574 758 564 768 q 583 733 583 749 q 574 709 583 719 q 549 699 564 699 l 374 699 l 351 399 q 314 364 349 364 z "},"‡":{"ha":747,"x_min":131,"x_max":617,"o":"m 347 364 q 319 376 331 364 q 310 404 308 389 l 322 560 l 165 560 q 141 570 151 560 q 131 594 131 581 q 141 619 131 610 q 165 629 151 629 l 326 629 l 335 740 l 165 740 q 141 751 151 740 q 131 775 131 761 q 141 800 131 790 q 165 810 151 810 l 340 810 l 354 989 q 392 1024 357 1024 q 419 1011 408 1024 q 429 983 431 999 l 415 810 l 582 810 q 607 800 597 810 q 617 775 617 790 q 607 751 617 761 q 582 740 597 740 l 411 740 l 403 629 l 582 629 q 607 619 597 629 q 617 594 617 610 q 607 570 617 581 q 582 560 597 560 l 397 560 l 385 399 q 347 364 382 364 z "},"¢":{"ha":656,"x_min":93,"x_max":568,"o":"m 346 11 q 314 24 328 11 q 301 57 300 38 l 307 204 q 203 253 251 219 q 126 340 156 288 q 96 460 97 392 q 126 610 93 547 q 213 711 158 674 q 331 761 268 749 l 336 900 q 349 931 336 918 q 381 943 363 943 q 413 930 400 943 q 425 897 426 917 l 419 765 q 535 728 483 758 q 554 692 554 715 q 542 661 554 674 q 511 649 529 649 q 488 656 499 649 q 417 681 456 675 l 400 278 q 500 310 456 281 q 525 318 511 318 q 556 306 543 318 q 568 275 568 293 q 550 240 568 253 q 477 206 517 218 q 396 194 438 194 l 390 54 q 378 24 390 36 q 346 11 365 11 m 185 463 q 223 353 186 397 q 311 290 260 310 l 326 672 q 226 601 268 654 q 185 463 183 549 z "},"¤":{"ha":907,"x_min":89,"x_max":818,"o":"m 132 121 q 101 133 114 121 q 89 164 89 146 q 101 194 89 182 l 218 304 q 180 379 193 338 q 167 465 167 421 q 183 560 167 515 q 229 642 200 606 l 229 642 l 119 757 q 110 786 110 769 q 122 817 110 804 q 153 829 135 829 q 186 815 172 829 l 292 701 l 293 700 q 369 736 328 724 q 454 749 410 749 q 549 733 504 749 q 631 689 594 717 l 632 690 l 744 796 q 775 808 757 808 q 806 796 793 808 q 818 765 818 783 q 806 735 818 747 l 692 628 l 690 626 q 728 551 714 592 q 742 465 742 510 q 725 369 742 415 q 679 288 708 324 l 788 171 q 797 143 797 160 q 785 113 797 125 q 754 100 772 100 q 721 115 733 100 l 614 229 q 539 193 579 206 q 454 181 499 181 q 359 197 404 181 q 278 240 314 213 l 163 133 q 132 121 150 121 m 257 465 q 283 364 257 410 q 355 291 310 318 q 454 264 400 264 q 553 291 508 264 q 624 364 597 318 q 651 465 651 410 q 624 566 651 521 q 553 638 597 611 q 454 665 508 665 q 355 638 400 665 q 283 566 310 611 q 257 465 257 521 z "},"$":{"ha":763,"x_min":88,"x_max":675,"o":"m 107 43 q 88 78 88 56 q 100 108 88 96 q 131 121 113 121 q 154 113 143 121 q 299 74 210 78 l 349 540 q 235 614 290 574 q 146 708 181 654 q 111 838 111 763 q 153 972 111 917 q 263 1055 196 1026 q 406 1086 331 1083 l 415 1171 q 428 1194 417 1185 q 453 1204 439 1204 q 481 1192 469 1204 q 490 1163 493 1181 l 482 1081 q 619 1028 558 1068 q 638 993 638 1015 q 625 963 638 975 q 594 950 613 950 q 569 958 582 950 q 472 997 526 986 l 429 592 q 542 519 486 558 q 634 429 597 481 q 672 307 671 378 q 631 134 675 200 q 515 34 586 68 q 365 -7 444 0 l 351 -143 q 340 -167 350 -157 q 314 -176 329 -176 q 286 -165 297 -176 q 276 -135 275 -153 l 290 -8 q 107 43 176 -1 m 201 838 q 247 720 201 767 q 358 633 292 674 l 397 1003 q 301 980 346 1000 q 229 924 257 960 q 201 838 201 889 m 583 304 q 535 415 582 371 q 419 499 488 458 l 375 78 q 477 112 429 86 q 555 185 525 138 q 583 304 585 232 z "},"€":{"ha":1007,"x_min":103,"x_max":921,"o":"m 138 379 q 113 390 124 379 q 103 414 103 400 q 113 439 103 429 q 138 449 124 449 l 244 449 q 244 460 244 454 q 253 588 243 524 l 165 588 q 141 598 151 588 q 131 622 131 608 q 141 647 131 638 q 165 657 151 657 l 265 657 q 348 853 292 763 q 490 997 404 943 q 690 1051 576 1051 q 808 1033 754 1051 q 904 983 861 1015 q 921 950 921 971 q 908 919 921 932 q 878 907 896 907 q 851 917 864 907 q 778 955 817 942 q 690 968 739 968 q 540 926 606 968 q 428 813 474 883 q 358 657 382 743 l 757 657 q 782 647 772 657 q 792 622 792 638 q 782 598 792 608 q 757 588 772 588 l 343 588 q 333 463 332 525 q 333 449 333 456 l 729 449 q 754 439 744 449 q 764 414 764 429 q 754 390 764 400 q 729 379 744 379 l 340 379 q 435 163 360 247 q 631 79 510 79 q 733 98 688 79 q 821 151 779 117 q 850 163 832 163 q 881 150 868 163 q 893 119 893 138 q 879 88 893 101 q 768 21 832 46 q 631 -4 704 -4 q 441 47 521 -4 q 313 185 361 99 q 250 379 265 272 l 138 379 z "},"₴":{"ha":958,"x_min":93,"x_max":865,"o":"m 128 381 q 103 391 114 381 q 93 415 93 401 q 103 440 93 431 q 128 450 114 450 l 292 450 q 377 519 329 489 q 472 578 425 550 q 489 588 483 583 l 239 588 q 215 598 225 588 q 204 622 204 608 q 215 647 204 638 q 239 657 225 657 l 597 657 q 658 724 635 688 q 683 808 682 760 q 655 894 683 860 q 581 947 626 929 q 483 965 536 965 q 333 924 399 965 q 308 915 321 915 q 278 928 290 915 q 265 958 265 940 q 283 993 265 981 q 380 1035 328 1022 q 483 1049 432 1049 q 624 1022 557 1049 q 732 941 690 994 q 772 808 774 888 q 757 725 771 763 q 718 657 743 688 l 831 657 q 856 647 846 657 q 865 622 865 638 q 856 598 865 608 q 831 588 846 588 l 647 588 q 583 544 617 564 q 517 506 550 524 q 469 478 492 492 q 425 450 446 464 l 719 450 q 744 440 735 450 q 754 415 754 431 q 744 391 754 401 q 719 381 735 381 l 346 381 q 322 340 331 363 q 310 293 313 318 q 338 165 303 213 q 431 98 372 118 q 554 78 490 78 q 714 114 656 78 q 738 122 725 122 q 768 110 756 122 q 781 79 781 97 q 761 44 781 57 q 670 8 726 22 q 554 -6 614 -6 q 430 11 492 -6 q 318 65 368 28 q 240 160 268 101 q 221 301 213 218 q 243 381 225 343 l 128 381 z "},"₽":{"ha":1026,"x_min":128,"x_max":932,"o":"m 174 213 q 149 223 160 213 q 139 247 139 233 q 149 272 139 263 q 174 282 160 282 l 336 282 l 339 425 l 169 425 q 140 437 153 425 q 128 467 128 449 q 140 496 128 483 q 169 508 153 508 l 340 508 l 353 1047 l 638 1047 q 855 981 778 1047 q 932 793 932 915 q 871 607 932 688 q 697 479 810 526 q 429 426 583 432 l 426 282 l 765 282 q 790 272 781 282 q 800 247 800 263 q 790 223 800 233 q 765 213 781 213 l 425 213 l 421 38 q 408 6 421 19 q 376 -7 394 -7 q 344 7 357 -7 q 331 39 331 21 l 335 213 l 174 213 m 442 964 l 432 510 q 735 595 629 517 q 842 793 842 674 q 792 922 842 879 q 638 964 743 964 l 442 964 z "},"₹":{"ha":1033,"x_min":85,"x_max":943,"o":"m 743 -8 q 713 4 725 -8 l 219 468 q 210 483 214 474 q 206 504 206 492 q 217 534 206 522 q 247 546 229 546 q 531 597 428 546 q 665 738 635 647 l 119 738 q 95 748 106 738 q 85 772 85 758 q 95 797 85 788 q 119 807 106 807 l 679 807 q 679 825 679 815 q 630 932 679 899 q 490 965 581 965 l 247 965 q 217 977 229 965 q 206 1007 206 989 q 217 1037 206 1025 q 247 1049 229 1049 l 908 1049 q 933 1039 924 1049 q 943 1014 943 1029 q 933 990 943 1000 q 908 979 924 979 l 708 979 q 753 914 738 953 q 769 825 769 875 q 769 807 769 815 l 892 807 q 917 797 907 807 q 926 772 926 788 q 917 748 926 758 q 892 738 907 738 l 758 738 q 626 554 731 625 q 347 467 522 483 l 774 65 q 786 35 786 53 q 774 4 786 17 q 743 -8 761 -8 z "},"₪":{"ha":1013,"x_min":128,"x_max":885,"o":"m 172 67 q 141 80 154 67 q 128 111 128 93 l 128 681 q 165 832 128 763 q 266 944 201 901 q 411 986 331 986 q 554 943 494 986 q 645 830 614 900 q 672 679 676 760 l 660 388 q 647 357 660 369 q 615 344 635 344 q 583 358 597 344 q 571 390 569 371 l 583 682 q 565 793 586 743 q 504 873 543 843 q 411 903 465 903 q 314 873 358 903 q 243 792 269 843 q 217 681 217 742 l 217 111 q 204 80 217 93 q 172 67 192 67 m 601 56 q 458 99 518 56 q 368 212 399 142 q 340 363 338 282 l 353 654 q 366 685 353 672 q 397 697 379 697 q 430 684 417 697 q 442 651 443 671 l 429 360 q 449 249 428 300 q 509 169 469 199 q 601 139 549 139 q 699 169 656 139 q 769 249 743 199 q 796 361 796 300 l 796 931 q 809 963 796 950 q 840 975 822 975 q 872 963 860 975 q 885 931 885 950 l 885 361 q 848 210 885 281 q 747 98 811 140 q 601 56 683 56 z "},"£":{"ha":928,"x_min":85,"x_max":843,"o":"m 129 0 q 98 13 111 0 q 85 44 85 26 q 98 77 85 64 q 129 90 111 90 q 218 124 174 90 q 293 219 263 157 q 324 369 324 282 q 311 471 324 415 l 142 471 q 112 483 124 471 q 100 513 100 494 q 112 542 100 531 q 142 554 124 554 l 293 554 q 281 697 281 631 q 369 964 281 874 q 601 1054 458 1054 q 797 1022 685 1054 q 831 979 831 1013 q 813 944 831 957 q 772 936 794 931 q 601 964 672 964 q 432 899 493 964 q 371 697 371 835 q 374 629 371 664 q 386 554 378 594 l 719 554 q 749 542 738 554 q 761 513 761 531 q 749 483 761 494 q 719 471 738 471 l 404 471 q 414 369 414 415 q 386 210 414 281 q 314 90 358 139 l 797 90 q 830 77 817 90 q 843 44 843 64 q 830 13 843 26 q 797 0 817 0 l 129 0 z "},"₩":{"ha":1683,"x_min":115,"x_max":1635,"o":"m 150 301 q 126 312 136 301 q 115 336 115 322 q 126 361 115 351 q 150 371 136 371 l 410 371 l 369 510 l 178 510 q 153 520 164 510 q 143 544 143 531 q 153 569 143 560 q 178 579 164 579 l 349 579 l 217 1028 q 224 1065 211 1047 q 260 1083 238 1083 q 303 1051 293 1083 l 442 579 l 706 579 l 879 1051 q 924 1082 890 1082 q 967 1051 957 1082 l 1126 579 l 1390 579 l 1542 1050 q 1585 1082 1551 1082 q 1622 1063 1608 1082 q 1628 1024 1635 1044 l 1485 579 l 1589 579 q 1614 569 1604 579 q 1624 544 1624 560 q 1614 520 1624 531 q 1589 510 1604 510 l 1463 510 l 1418 371 l 1561 371 q 1586 361 1576 371 q 1596 336 1596 351 q 1586 312 1596 322 q 1561 301 1576 301 l 1396 301 l 1307 26 q 1264 -6 1297 -6 q 1219 25 1229 -6 l 1125 301 l 700 301 l 599 25 q 556 -6 588 -6 q 511 28 519 -6 l 431 301 l 150 301 m 803 579 l 1032 579 l 921 904 l 803 579 m 503 371 l 629 371 l 681 510 l 463 510 l 503 371 m 725 371 l 1101 371 l 1056 510 l 776 510 l 725 371 m 1197 371 l 1324 371 l 1368 510 l 1150 510 l 1197 371 m 524 301 l 560 179 l 604 301 l 524 301 m 1221 301 l 1263 181 l 1301 301 l 1221 301 z "},"¥":{"ha":1029,"x_min":142,"x_max":943,"o":"m 176 301 q 152 312 163 301 q 142 336 142 322 q 152 361 142 351 q 176 371 163 371 l 490 371 l 492 439 l 454 510 l 176 510 q 152 520 163 510 q 142 544 142 531 q 152 569 142 560 q 176 579 163 579 l 417 579 l 186 1021 q 182 1040 182 1029 q 195 1072 182 1060 q 226 1085 208 1085 q 267 1060 254 1085 l 518 579 l 567 579 l 860 1063 q 899 1085 872 1085 q 931 1072 918 1085 q 943 1040 943 1060 q 938 1018 943 1029 l 671 579 l 893 579 q 918 569 908 579 q 928 544 928 560 q 918 520 928 531 q 893 510 908 510 l 629 510 l 582 433 l 582 371 l 893 371 q 918 361 908 371 q 928 336 928 351 q 918 312 928 322 q 893 301 908 301 l 581 301 l 576 35 q 563 3 576 17 q 531 -10 550 -10 q 499 4 513 -10 q 486 36 486 18 l 489 301 l 176 301 z "},"∵":{"ha":883,"x_min":181,"x_max":703,"o":"m 247 711 q 299 689 282 711 q 315 632 315 667 q 299 575 315 597 q 247 553 282 553 q 198 575 215 553 q 181 632 181 597 q 198 689 181 667 q 247 711 215 711 m 635 711 q 686 689 669 711 q 703 632 703 667 q 686 575 703 597 q 635 553 669 553 q 585 575 603 553 q 568 632 568 597 q 585 689 568 667 q 635 711 603 711 m 440 274 q 492 251 475 274 q 508 194 508 229 q 492 138 508 160 q 440 115 475 115 q 391 138 408 115 q 374 194 374 160 q 391 251 374 229 q 440 274 408 274 z "},"∸":{"ha":886,"x_min":103,"x_max":783,"o":"m 443 535 q 392 557 408 535 q 375 614 375 579 q 392 671 375 649 q 443 693 408 693 q 492 671 475 693 q 510 614 510 649 q 492 557 510 579 q 443 535 475 535 m 144 250 q 115 262 126 250 q 103 292 103 274 q 115 322 103 310 q 144 333 126 333 l 742 333 q 772 322 760 333 q 783 292 783 310 q 772 262 783 274 q 742 250 760 250 l 144 250 z "},"∹":{"ha":1024,"x_min":103,"x_max":913,"o":"m 846 431 q 794 453 811 431 q 778 510 778 475 q 794 567 778 544 q 846 589 811 589 q 895 567 878 589 q 913 510 913 544 q 895 453 913 475 q 846 431 878 431 m 686 333 q 716 322 704 333 q 728 292 728 310 q 716 262 728 274 q 686 250 704 250 l 144 250 q 115 262 126 250 q 103 292 103 274 q 115 322 103 310 q 144 333 126 333 l 686 333 m 846 -7 q 794 15 811 -7 q 778 72 778 38 q 794 129 778 107 q 846 151 811 151 q 895 129 878 151 q 913 72 913 107 q 895 15 913 38 q 846 -7 878 -7 z "},"+":{"ha":956,"x_min":138,"x_max":818,"o":"m 179 249 q 149 260 161 249 q 138 290 138 272 q 149 320 138 308 q 179 332 161 332 l 381 332 l 381 644 q 392 674 381 663 q 422 686 404 686 q 452 674 440 686 q 464 644 464 663 l 464 332 l 776 332 q 806 320 794 332 q 818 290 818 308 q 806 260 818 272 q 776 249 794 249 l 464 249 l 464 47 q 452 17 464 29 q 422 6 440 6 q 392 17 404 6 q 381 47 381 29 l 381 249 l 179 249 z "},"−":{"ha":986,"x_min":153,"x_max":833,"o":"m 194 250 q 165 262 176 250 q 153 292 153 274 q 165 322 153 310 q 194 333 176 333 l 792 333 q 822 322 810 333 q 833 292 833 310 q 822 262 833 274 q 792 250 810 250 l 194 250 z "},"×":{"ha":696,"x_min":94,"x_max":603,"o":"m 138 92 q 107 104 119 92 q 94 135 94 117 q 106 164 94 153 l 288 346 l 106 528 q 94 557 94 539 q 107 588 94 575 q 138 600 119 600 q 169 586 156 600 l 349 407 l 528 586 q 560 600 542 600 q 590 588 578 600 q 603 557 603 575 q 592 528 603 539 l 410 346 l 592 164 q 603 135 603 153 q 590 104 603 117 q 560 92 578 92 q 528 106 542 92 l 349 285 l 169 106 q 138 92 156 92 z "},"÷":{"ha":986,"x_min":153,"x_max":833,"o":"m 494 431 q 443 453 460 431 q 426 510 426 475 q 443 567 426 544 q 494 589 460 589 q 544 567 526 589 q 561 510 561 544 q 544 453 561 475 q 494 431 526 431 m 194 250 q 165 262 176 250 q 153 292 153 274 q 165 322 153 310 q 194 333 176 333 l 792 333 q 822 322 810 333 q 833 292 833 310 q 822 262 833 274 q 792 250 810 250 l 194 250 m 494 -7 q 443 15 460 -7 q 426 72 426 38 q 443 129 426 107 q 494 151 460 151 q 544 129 526 151 q 561 72 561 107 q 544 15 561 38 q 494 -7 526 -7 z "},"=":{"ha":986,"x_min":153,"x_max":833,"o":"m 194 389 q 165 401 176 389 q 153 431 153 413 q 165 460 153 449 q 194 472 176 472 l 792 472 q 822 460 810 472 q 833 431 833 449 q 822 401 833 413 q 792 389 810 389 l 194 389 m 194 111 q 165 123 176 111 q 153 153 153 135 q 165 183 153 171 q 194 194 176 194 l 792 194 q 822 183 810 194 q 833 153 833 171 q 822 123 833 135 q 792 111 810 111 l 194 111 z "},"≠":{"ha":858,"x_min":89,"x_max":769,"o":"m 131 111 q 101 123 113 111 q 89 153 89 135 q 101 183 89 171 q 131 194 113 194 l 310 194 l 383 389 l 131 389 q 101 401 113 389 q 89 431 89 413 q 101 460 89 449 q 131 472 113 472 l 415 472 l 513 726 q 528 747 517 738 q 554 756 540 756 q 586 743 574 756 q 599 711 599 731 q 596 696 599 704 l 511 472 l 728 472 q 758 460 746 472 q 769 431 769 449 q 758 401 769 413 q 728 389 746 389 l 479 389 l 406 194 l 728 194 q 758 183 746 194 q 769 153 769 171 q 758 123 769 135 q 728 111 746 111 l 374 111 l 325 -15 q 310 -35 321 -26 q 283 -44 299 -44 q 252 -31 265 -44 q 239 0 239 -18 q 242 15 239 7 l 278 111 l 131 111 z "},">":{"ha":863,"x_min":89,"x_max":776,"o":"m 133 -17 q 102 -3 115 -17 q 89 28 89 10 q 110 67 89 54 l 643 389 l 110 711 q 89 750 89 724 q 102 783 89 769 q 133 796 115 796 q 157 789 146 796 l 754 428 q 776 389 776 414 q 754 350 776 364 l 157 -11 q 133 -17 147 -17 z "},"<":{"ha":863,"x_min":86,"x_max":774,"o":"m 729 -17 q 706 -11 715 -17 l 108 350 q 86 389 86 364 q 108 428 86 414 l 706 789 q 729 796 717 796 q 761 783 749 796 q 774 750 774 769 q 753 711 774 724 l 219 389 l 753 67 q 774 28 774 54 q 761 -3 774 10 q 729 -17 749 -17 z "},"≥":{"ha":986,"x_min":97,"x_max":829,"o":"m 186 192 q 155 205 168 192 q 142 236 142 218 q 163 275 142 263 l 696 597 l 163 919 q 142 958 142 932 q 155 991 142 978 q 186 1004 168 1004 q 210 997 199 1004 l 807 636 q 829 597 829 622 q 807 558 829 572 l 210 197 q 186 192 200 192 m 139 -28 q 109 -16 121 -28 q 97 14 97 -4 q 109 44 97 32 q 139 56 121 56 l 736 56 q 766 44 754 56 q 778 14 778 32 q 766 -16 778 -4 q 736 -28 754 -28 l 139 -28 z "},"≤":{"ha":907,"x_min":86,"x_max":818,"o":"m 729 192 q 706 197 715 192 l 108 558 q 86 597 86 572 q 108 636 86 622 l 706 997 q 729 1004 717 1004 q 761 991 749 1004 q 774 958 774 978 q 753 919 774 932 l 219 597 l 753 275 q 774 236 774 263 q 761 205 774 218 q 729 192 749 192 m 776 -28 l 179 -28 q 149 -16 161 -28 q 138 14 138 -4 q 149 44 138 32 q 179 56 161 56 l 776 56 q 806 44 794 56 q 818 14 818 32 q 806 -16 818 -4 q 776 -28 794 -28 z "},"±":{"ha":986,"x_min":126,"x_max":846,"o":"m 168 -28 q 138 -16 150 -28 q 126 14 126 -4 q 138 44 126 32 q 168 56 150 56 l 765 56 q 795 44 783 56 q 807 14 807 32 q 795 -16 807 -4 q 765 -28 783 -28 l 168 -28 m 207 401 q 177 413 189 401 q 165 443 165 425 q 177 473 165 461 q 207 485 189 485 l 408 485 l 408 797 q 420 827 408 815 q 450 839 432 839 q 480 827 468 839 q 492 797 492 815 l 492 485 l 804 485 q 834 473 822 485 q 846 443 846 461 q 834 413 846 425 q 804 401 822 401 l 492 401 l 492 200 q 480 170 492 182 q 450 158 468 158 q 420 170 432 158 q 408 200 408 182 l 408 401 l 207 401 z "},"≈":{"ha":897,"x_min":100,"x_max":797,"o":"m 606 126 q 509 151 554 126 q 424 203 464 176 q 352 247 385 229 q 292 265 319 265 q 249 256 265 265 q 219 226 233 247 q 183 165 206 204 q 144 142 171 142 q 113 155 126 142 q 100 186 100 168 q 106 207 100 196 q 148 276 126 243 q 203 328 169 308 q 292 349 236 349 q 389 324 343 349 q 474 272 435 299 q 546 228 514 246 q 606 210 578 210 q 649 219 633 210 q 678 249 664 228 q 714 310 692 271 q 753 333 726 333 q 785 321 772 333 q 797 289 797 308 q 792 268 797 279 q 749 199 771 232 q 695 147 728 167 q 606 126 663 126 m 606 404 q 509 429 554 404 q 424 481 464 454 q 352 525 385 507 q 292 543 319 543 q 249 534 265 543 q 219 503 233 525 q 183 443 206 482 q 144 419 171 419 q 113 433 126 419 q 100 464 100 446 q 106 485 100 474 q 148 553 126 521 q 203 606 169 586 q 292 626 236 626 q 389 601 343 626 q 474 550 435 576 q 546 506 514 524 q 606 488 578 488 q 649 497 633 488 q 678 527 664 506 q 714 588 692 549 q 753 611 726 611 q 785 599 772 611 q 797 567 797 586 q 792 546 797 557 q 749 477 771 510 q 695 424 728 444 q 606 404 663 404 z "},"~":{"ha":900,"x_min":101,"x_max":799,"o":"m 607 231 q 510 256 556 231 q 425 307 465 281 q 353 351 386 333 q 293 369 321 369 q 251 360 267 369 q 221 330 235 351 q 185 269 207 308 q 146 246 172 246 q 115 259 128 246 q 101 290 101 272 q 107 311 101 300 q 149 380 128 347 q 204 433 171 413 q 293 453 238 453 q 390 428 344 453 q 475 376 436 403 q 547 332 515 350 q 607 314 579 314 q 650 323 635 314 q 679 353 665 332 q 715 414 693 375 q 754 438 728 438 q 786 425 774 438 q 799 393 799 413 q 793 372 799 383 q 751 303 772 336 q 697 251 729 271 q 607 231 664 231 z "},"¬":{"ha":954,"x_min":135,"x_max":819,"o":"m 774 164 q 742 177 756 164 q 729 208 729 190 l 729 444 l 176 444 q 147 456 158 444 q 135 486 135 468 q 147 516 135 504 q 176 528 158 528 l 819 528 l 819 208 q 806 177 819 190 q 774 164 793 164 z "},"^":{"ha":990,"x_min":89,"x_max":901,"o":"m 133 54 q 102 67 115 54 q 89 99 89 81 q 94 122 89 113 l 456 719 q 494 742 469 742 q 533 719 519 742 l 894 122 q 901 99 901 111 q 888 67 901 81 q 856 54 875 54 q 817 75 829 54 l 494 608 l 172 75 q 133 54 160 54 z "},"∞":{"ha":1335,"x_min":104,"x_max":1231,"o":"m 393 174 q 252 214 318 174 q 145 325 186 254 q 104 488 104 396 q 144 651 104 582 q 249 759 183 721 q 389 797 314 797 q 542 752 465 797 q 671 613 618 707 q 794 754 722 710 q 940 799 865 799 q 1083 758 1017 799 q 1190 648 1149 718 q 1231 485 1231 578 q 1190 322 1231 392 q 1085 213 1150 251 q 944 175 1021 175 q 792 220 868 175 q 663 360 715 265 q 540 219 613 264 q 393 174 468 174 m 713 460 q 819 305 756 351 q 944 258 882 258 q 1040 285 996 258 q 1113 364 1085 313 q 1140 485 1140 415 q 1111 606 1140 554 q 1037 686 1082 657 q 940 715 992 715 q 828 674 885 715 q 733 535 772 632 l 708 471 l 713 460 m 194 488 q 223 367 194 419 q 297 286 251 315 q 393 257 343 257 q 506 299 450 257 q 600 438 561 340 l 625 501 l 621 513 q 515 667 578 621 q 389 714 451 714 q 294 687 339 714 q 222 609 250 660 q 194 488 194 558 z "},"∫":{"ha":832,"x_min":83,"x_max":749,"o":"m 125 -231 q 95 -219 107 -231 q 83 -189 83 -207 q 95 -159 83 -171 q 125 -147 107 -147 q 242 -113 204 -147 q 294 7 281 -79 l 449 979 q 531 1148 468 1093 q 707 1203 593 1203 q 737 1191 725 1203 q 749 1161 749 1179 q 737 1131 749 1143 q 707 1119 725 1119 q 590 1085 628 1119 q 538 965 553 1051 l 383 -7 q 303 -176 365 -121 q 125 -231 240 -231 z "},"∏":{"ha":1119,"x_min":129,"x_max":990,"o":"m 333 -7 q 302 6 315 -7 q 289 38 289 19 l 306 964 l 171 964 q 141 976 153 964 q 129 1006 129 988 q 141 1035 129 1024 q 171 1047 153 1047 l 949 1047 q 978 1035 967 1047 q 990 1006 990 1024 q 978 976 990 988 q 949 964 967 964 l 813 964 l 794 38 q 782 6 794 19 q 750 -7 769 -7 q 719 6 732 -7 q 706 38 706 19 l 722 964 l 396 964 l 378 38 q 365 6 378 19 q 333 -7 353 -7 z "},"∑":{"ha":842,"x_min":86,"x_max":756,"o":"m 131 0 q 99 13 113 0 q 86 44 86 26 q 93 68 86 57 l 417 549 l 121 978 q 114 1001 114 989 q 126 1031 114 1019 q 156 1043 138 1043 l 714 1043 q 744 1031 732 1043 q 756 1001 756 1019 q 744 972 756 983 q 714 960 732 960 l 240 960 l 508 572 q 515 549 515 561 q 508 525 515 536 l 210 83 l 714 83 q 744 72 732 83 q 756 42 756 60 q 744 12 756 24 q 714 0 732 0 l 131 0 z "},"√":{"ha":1461,"x_min":88,"x_max":1374,"o":"m 382 -7 q 357 1 368 -7 q 340 21 346 10 l 90 618 q 88 635 88 625 q 101 667 88 654 q 132 679 114 679 q 158 671 147 679 q 174 651 168 663 l 378 165 l 674 1047 l 1332 1047 q 1362 1035 1350 1047 q 1374 1006 1374 1024 q 1362 976 1374 988 q 1332 964 1350 964 l 740 964 l 425 24 q 382 -7 415 -7 z "},"∂":{"ha":819,"x_min":100,"x_max":718,"o":"m 417 -7 q 279 22 338 -7 q 182 100 221 51 q 123 209 143 149 q 101 332 103 269 q 115 458 100 396 q 164 572 131 521 q 249 654 197 624 q 369 685 300 685 q 494 658 428 685 q 621 576 560 632 q 578 797 611 701 q 492 945 546 892 q 365 999 439 999 q 304 992 339 999 q 250 974 269 985 q 226 965 239 965 q 196 978 208 965 q 183 1008 183 990 q 203 1043 183 1031 q 283 1072 235 1063 q 365 1082 331 1082 q 511 1040 449 1082 q 617 924 574 999 q 683 753 660 850 q 713 549 707 657 q 705 336 718 436 q 656 158 692 236 q 562 37 621 81 q 417 -7 503 -7 m 190 335 q 217 209 192 268 q 292 113 242 150 q 417 76 342 76 q 527 123 482 76 q 597 252 572 169 q 625 443 621 335 q 496 564 565 526 q 369 601 426 601 q 270 563 311 601 q 209 463 229 524 q 190 335 189 401 z "},"%":{"ha":1163,"x_min":93,"x_max":1069,"o":"m 215 -8 q 184 5 197 -8 q 171 36 171 18 q 178 60 171 49 l 868 1032 q 906 1053 882 1053 q 937 1040 924 1053 q 950 1008 950 1026 q 943 985 950 996 l 253 13 q 215 -8 239 -8 m 294 603 q 183 633 228 603 q 115 714 138 664 q 93 824 93 764 q 115 932 93 882 q 183 1013 138 982 q 294 1043 228 1043 q 407 1013 363 1043 q 474 932 451 982 q 497 824 497 882 q 474 714 497 764 q 407 633 451 664 q 294 603 363 603 m 294 672 q 390 715 360 672 q 421 824 421 758 q 390 931 421 888 q 294 974 358 974 q 200 931 231 974 q 169 824 169 888 q 200 715 169 758 q 294 672 231 672 m 867 -7 q 755 24 800 -7 q 688 104 710 54 q 665 214 665 154 q 688 322 665 272 q 755 403 710 372 q 867 433 800 433 q 979 403 935 433 q 1047 322 1024 372 q 1069 214 1069 272 q 1047 104 1069 154 q 979 24 1024 54 q 867 -7 935 -7 m 867 63 q 963 106 932 63 q 993 214 993 149 q 962 321 993 278 q 867 364 931 364 q 772 321 803 364 q 742 214 742 278 q 772 106 742 149 q 867 63 803 63 z "},"‰":{"ha":1663,"x_min":93,"x_max":1583,"o":"m 215 -8 q 184 5 197 -8 q 171 36 171 18 q 178 60 171 49 l 868 1032 q 906 1053 882 1053 q 937 1040 924 1053 q 950 1008 950 1026 q 943 985 950 996 l 253 13 q 215 -8 239 -8 m 294 603 q 183 633 228 603 q 115 714 138 664 q 93 824 93 764 q 115 932 93 882 q 183 1013 138 982 q 294 1043 228 1043 q 407 1013 363 1043 q 474 932 451 982 q 497 824 497 882 q 474 714 497 764 q 407 633 451 664 q 294 603 363 603 m 294 672 q 390 715 360 672 q 421 824 421 758 q 390 931 421 888 q 294 974 358 974 q 200 931 231 974 q 169 824 169 888 q 200 715 169 758 q 294 672 231 672 m 867 -7 q 755 24 800 -7 q 688 104 710 54 q 665 214 665 154 q 688 322 665 272 q 755 403 710 372 q 867 433 800 433 q 979 403 935 433 q 1047 322 1024 372 q 1069 214 1069 272 q 1047 104 1069 154 q 979 24 1024 54 q 867 -7 935 -7 m 1381 -7 q 1269 24 1314 -7 q 1201 104 1224 54 q 1179 214 1179 154 q 1201 322 1179 272 q 1269 403 1224 372 q 1381 433 1314 433 q 1493 403 1449 433 q 1560 322 1538 372 q 1583 214 1583 272 q 1560 104 1583 154 q 1493 24 1538 54 q 1381 -7 1449 -7 m 867 63 q 963 106 932 63 q 993 214 993 149 q 962 321 993 278 q 867 364 931 364 q 772 321 803 364 q 742 214 742 278 q 772 106 742 149 q 867 63 803 63 m 1381 63 q 1476 106 1446 63 q 1507 214 1507 149 q 1476 321 1507 278 q 1381 364 1444 364 q 1286 321 1317 364 q 1256 214 1256 278 q 1286 106 1256 149 q 1381 63 1317 63 z "},"∷":{"ha":883,"x_min":181,"x_max":703,"o":"m 636 431 q 585 453 601 431 q 568 510 568 475 q 585 567 568 544 q 636 589 601 589 q 685 567 668 589 q 703 510 703 544 q 685 453 703 475 q 636 431 668 431 m 249 431 q 197 453 214 431 q 181 510 181 475 q 197 567 181 544 q 249 589 214 589 q 298 567 281 589 q 315 510 315 544 q 298 453 315 475 q 249 431 281 431 m 636 -7 q 585 15 601 -7 q 568 72 568 38 q 585 129 568 107 q 636 151 601 151 q 685 129 668 151 q 703 72 703 107 q 685 15 703 38 q 636 -7 668 -7 m 249 -7 q 197 15 214 -7 q 181 72 181 38 q 197 129 181 107 q 249 151 214 151 q 298 129 281 151 q 315 72 315 107 q 298 15 315 38 q 249 -7 281 -7 z "},"∴":{"ha":883,"x_min":181,"x_max":703,"o":"m 443 431 q 392 453 408 431 q 375 510 375 475 q 392 567 375 544 q 443 589 408 589 q 492 567 475 589 q 510 510 510 544 q 492 453 510 475 q 443 431 475 431 m 636 -7 q 585 15 601 -7 q 568 72 568 38 q 585 129 568 107 q 636 151 601 151 q 685 129 668 151 q 703 72 703 107 q 685 15 703 38 q 636 -7 668 -7 m 249 -7 q 197 15 214 -7 q 181 72 181 38 q 197 129 181 107 q 249 151 214 151 q 298 129 281 151 q 315 72 315 107 q 298 15 315 38 q 249 -7 281 -7 z "},"↑":{"ha":906,"x_min":92,"x_max":828,"o":"m 460 -93 q 428 -80 442 -93 q 415 -49 415 -67 l 415 728 l 165 453 q 135 440 153 440 q 104 453 117 440 q 92 483 92 465 q 104 514 92 501 l 429 872 q 460 885 442 885 q 490 872 478 885 l 815 514 q 828 483 828 501 q 815 453 828 465 q 785 440 803 440 q 754 453 767 440 l 506 726 l 506 -49 q 492 -80 506 -67 q 460 -93 479 -93 z "},"↗":{"ha":833,"x_min":88,"x_max":735,"o":"m 706 157 q 676 143 693 143 q 644 156 658 143 q 632 186 632 168 l 644 563 l 160 64 q 131 51 147 51 q 101 64 114 51 q 88 93 89 76 q 100 122 88 110 l 582 619 l 208 596 q 178 608 190 596 q 165 638 165 619 q 178 668 165 656 q 207 682 190 682 l 690 713 q 721 701 707 715 q 735 671 732 688 l 718 188 q 706 157 718 169 z "},"→":{"ha":1069,"x_min":89,"x_max":978,"o":"m 576 75 q 546 88 558 75 q 533 118 533 100 q 546 149 533 136 l 826 403 l 131 403 q 101 415 113 403 q 89 444 89 426 q 101 474 89 463 q 131 486 113 486 l 824 486 l 546 738 q 533 768 533 750 q 546 799 533 786 q 576 811 558 811 q 607 799 594 811 l 965 474 q 978 443 978 461 q 965 413 978 425 l 607 88 q 576 75 594 75 z "},"↘":{"ha":833,"x_min":88,"x_max":735,"o":"m 706 607 q 718 576 718 594 l 735 93 q 721 63 732 76 q 690 51 707 49 l 207 82 q 178 96 190 82 q 165 126 165 108 q 178 156 165 144 q 208 168 190 168 l 582 144 l 100 642 q 88 671 88 654 q 101 700 89 688 q 131 713 114 713 q 160 700 147 713 l 644 201 l 632 578 q 644 608 632 596 q 676 621 658 621 q 706 607 693 621 z "},"↓":{"ha":906,"x_min":92,"x_max":828,"o":"m 828 308 q 815 278 828 290 l 490 -81 q 460 -93 478 -93 q 429 -81 442 -93 l 104 278 q 92 308 92 290 q 104 339 92 326 q 135 351 117 351 q 165 339 153 351 l 414 65 l 414 840 q 428 872 414 860 q 460 885 442 885 q 492 872 479 885 q 504 840 504 860 l 504 64 l 754 339 q 785 351 767 351 q 815 339 803 351 q 828 308 828 326 z "},"↙":{"ha":833,"x_min":83,"x_max":731,"o":"m 113 604 q 142 618 125 618 q 174 606 160 618 q 186 575 186 593 l 174 199 l 658 697 q 688 710 671 710 q 717 697 704 710 q 730 668 729 685 q 718 639 731 651 l 236 142 l 610 165 q 640 153 628 165 q 653 124 653 142 q 640 93 653 106 q 611 79 628 79 l 128 49 q 97 60 111 46 q 83 90 86 74 l 100 574 q 113 604 100 592 z "},"←":{"ha":1069,"x_min":92,"x_max":981,"o":"m 493 75 q 463 88 475 75 l 104 413 q 92 443 92 425 q 104 474 92 461 l 463 799 q 493 811 475 811 q 524 799 511 811 q 536 768 536 786 q 524 738 536 750 l 246 486 l 939 486 q 969 474 957 486 q 981 444 981 463 q 969 415 981 426 q 939 403 957 403 l 243 403 l 524 149 q 536 118 536 136 q 524 88 536 100 q 493 75 511 75 z "},"↖":{"ha":833,"x_min":83,"x_max":731,"o":"m 113 157 q 100 188 100 169 l 83 671 q 97 701 86 688 q 128 713 111 715 l 611 682 q 640 668 628 682 q 653 638 653 656 q 640 608 653 619 q 610 596 628 596 l 236 619 l 718 122 q 730 93 731 110 q 717 64 729 76 q 688 51 704 51 q 658 64 671 51 l 174 563 l 186 186 q 174 156 186 168 q 142 143 160 143 q 113 157 125 143 z "},"↔":{"ha":1819,"x_min":86,"x_max":1696,"o":"m 488 75 q 457 88 469 75 l 99 413 q 86 443 86 425 q 99 474 86 461 l 457 799 q 488 811 469 811 q 518 799 506 811 q 531 768 531 786 q 518 738 531 750 l 240 486 l 1542 486 l 1264 738 q 1251 768 1251 750 q 1264 799 1251 786 q 1294 811 1276 811 q 1325 799 1313 811 l 1683 474 q 1696 443 1696 461 q 1683 413 1696 425 l 1325 88 q 1294 75 1313 75 q 1264 88 1276 75 q 1251 118 1251 100 q 1264 149 1251 136 l 1544 403 l 238 403 l 518 149 q 531 118 531 136 q 518 88 531 100 q 488 75 506 75 z "},"↕":{"ha":908,"x_min":86,"x_max":822,"o":"m 86 682 q 99 713 86 700 l 424 1071 q 454 1083 436 1083 q 485 1071 472 1083 l 810 713 q 822 682 822 700 q 810 651 822 664 q 779 639 797 639 q 749 651 761 639 l 497 929 l 497 147 l 749 425 q 779 438 761 438 q 810 425 797 438 q 822 394 822 413 q 810 364 822 376 l 485 6 q 454 -7 472 -7 q 424 6 436 -7 l 99 364 q 86 394 86 376 q 99 425 86 413 q 129 438 111 438 q 160 425 147 438 l 414 144 l 414 932 l 160 651 q 129 639 147 639 q 99 651 111 639 q 86 682 86 664 z "},"◌":{"ha":1176,"x_min":100,"x_max":1076,"o":"m 589 -4 q 399 34 488 -4 q 244 140 311 72 q 138 295 176 207 q 100 485 100 383 q 138 674 100 585 q 244 829 176 763 q 399 934 311 896 q 589 972 488 972 q 778 934 689 972 q 933 829 867 896 q 1038 674 1000 763 q 1076 485 1076 585 q 1038 295 1076 383 q 933 140 1000 207 q 778 34 867 72 q 589 -4 689 -4 z "},"◊":{"ha":985,"x_min":86,"x_max":899,"o":"m 531 -136 q 492 -158 517 -158 q 453 -136 467 -158 l 92 461 q 86 485 86 471 l 86 486 l 86 488 q 92 511 86 501 l 453 1108 q 492 1131 467 1131 q 531 1108 517 1131 l 892 511 q 899 488 899 500 l 899 486 l 899 485 q 892 461 899 472 l 531 -136 m 183 486 l 492 -25 l 800 486 l 492 997 l 183 486 z "},"̈":{"ha":0,"x_min":28,"x_max":349,"o":"m 293 735 q 251 753 265 735 q 236 801 236 772 q 251 848 236 829 q 293 867 265 867 q 335 848 321 867 q 349 801 349 829 q 335 753 349 772 q 293 735 321 735 m 85 735 q 42 753 57 735 q 28 801 28 772 q 42 848 28 829 q 85 867 57 867 q 126 848 113 867 q 140 801 140 829 q 126 753 140 772 q 85 735 113 735 z "},"̇":{"ha":0,"x_min":-17,"x_max":96,"o":"m 40 735 q -2 753 13 735 q -17 801 -17 772 q -2 848 -17 829 q 40 867 13 867 q 82 848 68 867 q 96 801 96 829 q 82 753 96 772 q 40 735 68 735 z "},"̀":{"ha":0,"x_min":-12,"x_max":232,"o":"m 192 735 q 163 749 174 735 l -1 915 q -12 942 -12 926 q -1 970 -12 958 q 28 982 11 982 q 57 968 46 982 l 221 801 q 232 775 232 790 q 220 747 232 758 q 192 735 208 735 z "},"́":{"ha":0,"x_min":-12,"x_max":232,"o":"m 28 735 q -1 747 11 735 q -12 775 -12 758 q -1 801 -12 790 l 163 968 q 192 982 174 982 q 220 970 208 982 q 232 942 232 958 q 221 915 232 926 l 57 749 q 28 735 46 735 z "},"̋":{"ha":0,"x_min":-12,"x_max":394,"o":"m 28 735 q -1 747 11 735 q -12 775 -12 758 q -1 801 -12 790 l 163 968 q 192 982 174 982 q 220 970 208 982 q 232 942 232 958 q 221 915 232 926 l 57 749 q 28 735 46 735 m 190 733 q 162 745 174 733 q 150 774 150 757 q 161 800 150 789 l 325 967 q 354 981 336 981 q 383 969 371 981 q 394 940 394 957 q 383 914 394 925 l 219 747 q 190 733 208 733 z "},"̂":{"ha":0,"x_min":-42,"x_max":367,"o":"m -1 729 q -30 741 -18 729 q -42 769 -42 753 q -31 796 -42 785 l 133 963 q 163 976 144 976 q 192 963 181 976 l 356 796 q 367 769 367 785 q 355 741 367 753 q 326 729 343 729 q 297 743 308 729 l 163 881 l 28 743 q -1 729 17 729 z "},"̌":{"ha":0,"x_min":-42,"x_max":367,"o":"m 326 975 q 355 963 343 975 q 367 935 367 951 q 356 908 367 919 l 192 742 q 163 728 181 728 q 133 742 144 728 l -31 908 q -42 935 -42 919 q -30 963 -42 951 q -1 975 -18 975 q 28 961 17 975 l 163 824 l 297 961 q 326 975 308 975 z "},"̆":{"ha":0,"x_min":-42,"x_max":397,"o":"m 179 731 q 68 760 118 731 q -12 838 18 789 q -42 947 -42 888 q -30 977 -42 965 q 0 989 -18 989 q 30 977 18 989 q 42 947 42 965 q 83 848 42 889 q 179 807 124 807 q 274 848 233 807 q 314 947 314 889 q 326 977 314 965 q 356 989 338 989 q 385 977 374 989 q 397 947 397 965 q 367 838 397 888 q 288 760 338 789 q 179 731 239 731 z "},"̊":{"ha":0,"x_min":-42,"x_max":314,"o":"m 136 619 q 46 643 86 619 q -18 706 6 667 q -42 793 -42 746 q -18 881 -42 842 q 46 944 6 921 q 136 968 86 968 q 226 944 186 968 q 290 881 267 921 q 314 793 314 842 q 290 706 314 746 q 226 643 267 667 q 136 619 186 619 m 136 696 q 203 724 175 696 q 231 793 231 753 q 203 863 231 833 q 136 892 175 892 q 69 863 97 892 q 42 793 42 833 q 69 724 42 753 q 136 696 97 696 z "},"̃":{"ha":0,"x_min":6,"x_max":447,"o":"m 321 724 q 256 740 286 724 q 201 771 225 756 q 161 797 178 786 q 132 807 144 807 q 109 799 117 807 q 82 756 101 790 q 46 733 71 733 q 17 745 29 733 q 6 774 6 757 q 10 792 6 783 q 58 859 33 835 q 132 883 82 883 q 191 869 164 883 q 249 835 218 854 q 290 810 272 819 q 321 800 307 800 q 342 810 335 800 q 372 854 350 821 q 407 874 385 874 q 435 862 424 874 q 447 833 447 850 q 442 813 447 822 q 392 749 415 774 q 321 724 369 724 z "},"̄":{"ha":0,"x_min":-37,"x_max":400,"o":"m 0 726 q -26 738 -15 726 q -37 764 -37 749 q -26 791 -37 779 q 0 803 -15 803 l 361 803 q 388 791 376 803 q 400 764 400 779 q 388 738 400 749 q 361 726 376 726 l 0 726 z "},"̒":{"ha":0,"x_min":49,"x_max":172,"o":"m 158 688 q 164 667 164 676 q 151 635 164 649 q 119 622 139 622 q 97 629 107 622 q 81 646 86 636 q 53 796 49 703 q 81 1019 58 889 q 96 1046 83 1035 q 125 1057 108 1057 q 159 1041 146 1057 q 169 1006 172 1025 q 144 798 147 876 q 158 688 140 719 z "},"̦":{"ha":0,"x_min":125,"x_max":292,"o":"m 186 -97 q 194 -58 181 -76 q 229 -40 207 -40 q 256 -49 244 -40 q 272 -72 268 -58 q 290 -183 289 -124 q 272 -303 292 -243 q 201 -419 251 -364 q 168 -435 189 -435 q 138 -422 150 -435 q 125 -392 125 -410 q 135 -364 125 -374 q 197 -231 189 -304 q 186 -97 206 -158 z "},"̧":{"ha":0,"x_min":1,"x_max":285,"o":"m 42 -179 q 13 -167 25 -179 q 1 -139 1 -156 q 11 -112 1 -124 q 128 40 85 -35 q 200 193 171 115 q 239 221 210 221 q 274 203 263 221 q 278 165 285 185 q 202 4 250 88 q 72 -165 154 -79 q 42 -179 60 -179 z "},"̨":{"ha":0,"x_min":3,"x_max":264,"o":"m 119 -340 q 32 -312 61 -340 q 3 -243 3 -285 q 33 -144 3 -199 q 109 -42 63 -90 q 206 33 156 7 q 225 39 215 39 q 253 28 242 39 q 264 0 264 17 q 244 -33 264 -22 q 170 -92 207 -53 q 110 -172 133 -131 q 86 -243 86 -214 q 92 -260 86 -256 q 119 -264 99 -264 q 146 -262 132 -264 q 181 -256 160 -261 q 213 -262 197 -251 q 229 -293 229 -274 q 220 -317 229 -307 q 200 -331 211 -328 q 158 -338 179 -336 q 119 -340 136 -340 z "},"̸":{"ha":0,"x_min":236,"x_max":778,"o":"m 278 -175 q 249 -163 261 -175 q 236 -133 236 -151 q 238 -124 236 -128 q 242 -115 240 -119 l 700 792 q 736 814 713 814 q 765 802 753 814 q 778 772 778 790 q 776 763 778 767 q 772 754 775 758 l 314 -153 q 278 -175 301 -175 z "},"¨":{"ha":376,"x_min":28,"x_max":349,"o":"m 293 735 q 251 753 265 735 q 236 801 236 772 q 251 848 236 829 q 293 867 265 867 q 335 848 321 867 q 349 801 349 829 q 335 753 349 772 q 293 735 321 735 m 85 735 q 42 753 57 735 q 28 801 28 772 q 42 848 28 829 q 85 867 57 867 q 126 848 113 867 q 140 801 140 829 q 126 753 140 772 q 85 735 113 735 z "},"˙":{"ha":82,"x_min":-17,"x_max":96,"o":"m 40 735 q -2 753 13 735 q -17 801 -17 772 q -2 848 -17 829 q 40 867 13 867 q 82 848 68 867 q 96 801 96 829 q 82 753 96 772 q 40 735 68 735 z "},"`":{"ha":219,"x_min":-12,"x_max":232,"o":"m 192 735 q 163 749 174 735 l -1 915 q -12 942 -12 926 q -1 970 -12 958 q 28 982 11 982 q 57 968 46 982 l 221 801 q 232 775 232 790 q 220 747 232 758 q 192 735 208 735 z "},"´":{"ha":219,"x_min":-12,"x_max":232,"o":"m 28 735 q -1 747 11 735 q -12 775 -12 758 q -1 801 -12 790 l 163 968 q 192 982 174 982 q 220 970 208 982 q 232 942 232 958 q 221 915 232 926 l 57 749 q 28 735 46 735 z "},"˝":{"ha":340,"x_min":-12,"x_max":394,"o":"m 28 735 q -1 747 11 735 q -12 775 -12 758 q -1 801 -12 790 l 163 968 q 192 982 174 982 q 220 970 208 982 q 232 942 232 958 q 221 915 232 926 l 57 749 q 28 735 46 735 m 190 733 q 162 745 174 733 q 150 774 150 757 q 161 800 150 789 l 325 967 q 354 981 336 981 q 383 969 371 981 q 394 940 394 957 q 383 914 394 925 l 219 747 q 190 733 208 733 z "},"ˆ":{"ha":325,"x_min":-42,"x_max":367,"o":"m -1 729 q -30 741 -18 729 q -42 769 -42 753 q -31 796 -42 785 l 133 963 q 163 976 144 976 q 192 963 181 976 l 356 796 q 367 769 367 785 q 355 741 367 753 q 326 729 343 729 q 297 743 308 729 l 163 881 l 28 743 q -1 729 17 729 z "},"ˇ":{"ha":325,"x_min":-42,"x_max":367,"o":"m 326 975 q 355 963 343 975 q 367 935 367 951 q 356 908 367 919 l 192 742 q 163 728 181 728 q 133 742 144 728 l -31 908 q -42 935 -42 919 q -30 963 -42 951 q -1 975 -18 975 q 28 961 17 975 l 163 824 l 297 961 q 326 975 308 975 z "},"˘":{"ha":356,"x_min":-42,"x_max":397,"o":"m 179 731 q 68 760 118 731 q -12 838 18 789 q -42 947 -42 888 q -30 977 -42 965 q 0 989 -18 989 q 30 977 18 989 q 42 947 42 965 q 83 848 42 889 q 179 807 124 807 q 274 848 233 807 q 314 947 314 889 q 326 977 314 965 q 356 989 338 989 q 385 977 374 989 q 397 947 397 965 q 367 838 397 888 q 288 760 338 789 q 179 731 239 731 z "},"˚":{"ha":272,"x_min":-42,"x_max":314,"o":"m 136 619 q 46 643 86 619 q -18 706 6 667 q -42 793 -42 746 q -18 881 -42 842 q 46 944 6 921 q 136 968 86 968 q 226 944 186 968 q 290 881 267 921 q 314 793 314 842 q 290 706 314 746 q 226 643 267 667 q 136 619 186 619 m 136 696 q 203 724 175 696 q 231 793 231 753 q 203 863 231 833 q 136 892 175 892 q 69 863 97 892 q 42 793 42 833 q 69 724 42 753 q 136 696 97 696 z "},"˜":{"ha":451,"x_min":6,"x_max":447,"o":"m 321 724 q 256 740 286 724 q 201 771 225 756 q 161 797 178 786 q 132 807 144 807 q 109 799 117 807 q 82 756 101 790 q 46 733 71 733 q 17 745 29 733 q 6 774 6 757 q 10 792 6 783 q 58 859 33 835 q 132 883 82 883 q 191 869 164 883 q 249 835 218 854 q 290 810 272 819 q 321 800 307 800 q 342 810 335 800 q 372 854 350 821 q 407 874 385 874 q 435 862 424 874 q 447 833 447 850 q 442 813 447 822 q 392 749 415 774 q 321 724 369 724 z "},"¯":{"ha":361,"x_min":-37,"x_max":400,"o":"m 0 726 q -26 738 -15 726 q -37 764 -37 749 q -26 791 -37 779 q 0 803 -15 803 l 361 803 q 388 791 376 803 q 400 764 400 779 q 388 738 400 749 q 361 726 376 726 l 0 726 z "},"¸":{"ha":253,"x_min":1,"x_max":285,"o":"m 42 -179 q 13 -167 25 -179 q 1 -139 1 -156 q 11 -112 1 -124 q 128 40 85 -35 q 200 193 171 115 q 239 221 210 221 q 274 203 263 221 q 278 165 285 185 q 202 4 250 88 q 72 -165 154 -79 q 42 -179 60 -179 z "},"˛":{"ha":264,"x_min":3,"x_max":264,"o":"m 119 -340 q 32 -312 61 -340 q 3 -243 3 -285 q 33 -144 3 -199 q 109 -42 63 -90 q 206 33 156 7 q 225 39 215 39 q 253 28 242 39 q 264 0 264 17 q 244 -33 264 -22 q 170 -92 207 -53 q 110 -172 133 -131 q 86 -243 86 -214 q 92 -260 86 -256 q 119 -264 99 -264 q 146 -262 132 -264 q 181 -256 160 -261 q 213 -262 197 -251 q 229 -293 229 -274 q 220 -317 229 -307 q 200 -331 211 -328 q 158 -338 179 -336 q 119 -340 136 -340 z "}}}
